<svg width="37" height="76" viewBox="0 0 37 76" fill="none" xmlns="http://www.w3.org/2000/svg">
<g clip-path="url(#clip0_1_1335)">
<path d="M28.7662 6.006C23.8289 11.8555 20.5806 18.9341 19.41 26.4682C18.1768 34.4046 18.2349 43.3976 19.9774 50.5294C21.1748 55.415 21.3938 56.1091 22.1579 57.3339C24.7762 55.2249 29.2086 48.3142 34.5837 48.7077C35.7633 48.7917 36.3754 50.1447 35.665 51.0776C31.1745 56.9669 23.8155 69.2186 19.2133 74.4005C18.7308 74.9442 18.141 75.5367 17.4082 75.5014C16.6978 75.4704 16.175 74.8647 15.7417 74.3076C10.2861 67.2466 5.2951 59.832 0.809124 52.1344C0.192532 51.0776 0.523235 49.6716 1.61341 49.0969C2.56071 48.5927 3.29337 49.1322 3.94572 49.6406C7.03328 52.0459 10.1207 54.4511 13.2126 56.8564C7.93576 44.4941 8.16368 30.0495 13.3512 17.6872C16.26 10.7501 21.5011 4.98466 28.2702 1.6023C31.9073 -0.210469 34.1905 -0.422695 28.7662 6.006Z" fill="#FBC8B8"/>
</g>
<defs>
<clipPath id="clip0_1_1335">
<rect width="75" height="36" fill="white" transform="matrix(0 1 -1 0 36.5 0.5)"/>
</clipPath>
</defs>
</svg>
