<svg width="394" height="142" viewBox="0 0 394 142" fill="none" xmlns="http://www.w3.org/2000/svg">
<g clip-path="url(#clip0_1_1274)">
<path d="M295.506 80.9333C301.355 76.0542 308.434 72.844 315.968 71.6872C323.904 70.4685 332.897 70.5259 340.029 72.2479C344.915 73.4313 345.609 73.6477 346.833 74.4027C344.724 76.9902 337.814 81.3705 338.207 86.6824C338.291 87.8481 339.644 88.453 340.577 87.751C346.466 83.3133 358.718 76.0409 363.9 71.4929C364.444 71.0159 365.036 70.4331 365.001 69.709C364.97 69.0069 364.364 68.4902 363.807 68.062C356.746 62.6706 349.332 57.7384 341.634 53.3052C340.577 52.6958 339.171 53.0226 338.596 54.1C338.092 55.0361 338.632 55.7602 339.14 56.4049C341.545 59.4561 343.951 62.5072 346.356 65.5628C333.994 60.348 319.549 60.5732 307.187 65.6996C300.25 68.5742 294.484 73.7537 291.102 80.4432C289.289 84.0375 289.077 86.2939 295.506 80.9333Z" fill="#FBC8B8"/>
</g>
<path d="M76.8245 99.456C78.6539 99.456 80.2312 100.007 81.5565 101.108C82.8819 102.191 83.5445 103.656 83.5445 105.504C83.5445 107.483 82.8352 109.107 81.4165 110.376C80.0165 111.645 78.1779 112.28 75.9005 112.28C73.7165 112.28 72.0085 111.897 70.7765 111.132C69.5632 110.367 68.9565 109.424 68.9565 108.304C68.9565 107.632 69.1525 107.137 69.5445 106.82C69.9365 106.503 70.4125 106.344 70.9725 106.344C71.4765 106.344 71.9152 106.568 72.2885 107.016C72.6619 107.445 72.9512 107.921 73.1565 108.444C73.3619 108.967 73.6979 109.452 74.1645 109.9C74.6499 110.329 75.2379 110.544 75.9285 110.544C76.9179 110.544 77.7205 110.171 78.3365 109.424C78.9712 108.677 79.2885 107.595 79.2885 106.176C79.2885 104.552 78.9619 103.311 78.3085 102.452C77.6552 101.593 76.7312 101.164 75.5365 101.164C74.4725 101.164 73.3525 101.603 72.1765 102.48C71.7472 102.835 71.2525 102.9 70.6925 102.676C70.1512 102.433 69.9179 102.069 69.9925 101.584L71.0565 92.652C71.1125 92.2973 71.3365 92.12 71.7285 92.12H82.2845C82.6765 92.12 82.8725 92.3253 82.8725 92.736V94.864C82.8725 95.2747 82.6765 95.48 82.2845 95.48H72.8485L71.9525 101.024C73.2779 99.9787 74.9019 99.456 76.8245 99.456ZM114.237 109.284C114.274 109.732 114.452 110.152 114.769 110.544C115.086 110.936 115.245 111.235 115.245 111.44V111.552C115.245 111.869 115.04 112.028 114.629 112.028H109.785C109.356 112.028 109.141 111.869 109.141 111.552V111.44C109.141 111.253 109.309 110.964 109.645 110.572C110 110.18 110.158 109.76 110.121 109.312L109.841 104.188C109.766 102.639 109.533 101.537 109.141 100.884C108.749 100.212 108.17 99.876 107.405 99.876C106.752 99.876 106.22 100.147 105.809 100.688C105.398 101.229 105.174 101.929 105.137 102.788C105.212 103.161 105.249 103.609 105.249 104.132V109.312C105.249 109.76 105.408 110.18 105.725 110.572C106.061 110.964 106.229 111.253 106.229 111.44V111.552C106.229 111.869 106.024 112.028 105.613 112.028H100.769C100.34 112.028 100.125 111.869 100.125 111.552V111.44C100.125 111.253 100.293 110.964 100.629 110.572C100.965 110.18 101.133 109.76 101.133 109.312V103.852C101.133 102.583 100.909 101.603 100.461 100.912C100.013 100.221 99.4249 99.876 98.6969 99.876C97.9502 99.876 97.3622 100.165 96.9329 100.744C96.5036 101.323 96.2889 102.069 96.2889 102.984V109.312C96.2889 109.76 96.4849 110.18 96.8769 110.572C97.2876 110.964 97.4929 111.253 97.4929 111.44V111.552C97.4929 111.869 97.2782 112.028 96.8489 112.028H91.6409C91.2116 112.028 90.9969 111.869 90.9969 111.552V111.44C90.9969 111.253 91.1929 110.964 91.5849 110.572C91.9956 110.18 92.2009 109.76 92.2009 109.312V102.788C92.2009 102.433 92.0889 102.135 91.8649 101.892C91.6409 101.649 91.4076 101.444 91.1649 101.276C90.9409 101.089 90.8289 100.903 90.8289 100.716V100.604C90.8289 100.399 91.0249 100.203 91.4169 100.016L94.9449 98.392C95.2622 98.2427 95.5049 98.2333 95.6729 98.364C95.8409 98.476 95.9249 98.6813 95.9249 98.98V100.296C96.8022 98.952 98.0902 98.28 99.7889 98.28C101.917 98.28 103.466 99.12 104.437 100.8C104.81 100.016 105.37 99.4 106.117 98.952C106.882 98.504 107.741 98.28 108.693 98.28C110.112 98.28 111.297 98.756 112.249 99.708C113.201 100.641 113.752 102.172 113.901 104.3L114.237 109.284ZM121.743 95.9C121.258 96.348 120.605 96.572 119.783 96.572C118.962 96.572 118.29 96.348 117.767 95.9C117.263 95.4333 117.011 94.836 117.011 94.108C117.011 93.3987 117.263 92.82 117.767 92.372C118.29 91.9053 118.962 91.672 119.783 91.672C120.605 91.672 121.258 91.9053 121.743 92.372C122.247 92.82 122.499 93.3987 122.499 94.108C122.499 94.836 122.247 95.4333 121.743 95.9ZM117.235 112C116.825 112 116.619 111.841 116.619 111.524V111.412C116.619 111.225 116.797 110.936 117.151 110.544C117.506 110.152 117.683 109.732 117.683 109.284V102.956C117.683 102.489 117.506 102.051 117.151 101.64C116.797 101.229 116.619 100.949 116.619 100.8V100.716C116.619 100.529 116.815 100.333 117.207 100.128L120.707 98.392C121.062 98.2427 121.342 98.2333 121.547 98.364C121.753 98.476 121.855 98.672 121.855 98.952V109.284C121.855 109.732 122.051 110.152 122.443 110.544C122.835 110.936 123.031 111.225 123.031 111.412V111.524C123.031 111.841 122.817 112 122.387 112H117.235ZM139.162 109.284C139.199 109.732 139.376 110.152 139.694 110.544C140.011 110.936 140.17 111.235 140.17 111.44V111.552C140.17 111.869 139.955 112.028 139.526 112.028H134.682C134.252 112.028 134.038 111.869 134.038 111.552V111.44C134.038 111.253 134.206 110.964 134.542 110.572C134.896 110.18 135.064 109.751 135.046 109.284L134.766 104.104C134.635 101.285 133.823 99.876 132.33 99.876C131.583 99.876 130.995 100.156 130.566 100.716C130.155 101.276 129.95 102.023 129.95 102.956V109.312C129.95 109.76 130.146 110.18 130.538 110.572C130.948 110.964 131.154 111.253 131.154 111.44V111.552C131.154 111.869 130.939 112.028 130.51 112.028H125.302C124.872 112.028 124.658 111.869 124.658 111.552V111.44C124.658 111.253 124.854 110.964 125.246 110.572C125.656 110.18 125.862 109.76 125.862 109.312V102.788C125.862 102.508 125.787 102.256 125.638 102.032C125.507 101.808 125.348 101.649 125.162 101.556C124.994 101.444 124.835 101.313 124.686 101.164C124.555 101.015 124.49 100.865 124.49 100.716V100.604C124.49 100.399 124.676 100.203 125.05 100.016L128.382 98.392C128.699 98.2427 128.932 98.2333 129.082 98.364C129.25 98.476 129.334 98.6813 129.334 98.98V100.548C130.136 99.036 131.518 98.28 133.478 98.28C134.896 98.28 136.1 98.756 137.09 99.708C138.098 100.66 138.676 102.172 138.826 104.244L139.162 109.284ZM155.137 109.144C155.137 109.648 155.203 110.031 155.333 110.292C155.483 110.535 155.641 110.675 155.809 110.712C155.977 110.731 156.127 110.787 156.257 110.88C156.407 110.973 156.481 111.132 156.481 111.356C156.481 111.897 155.651 112.168 153.989 112.168C153.168 112.168 152.552 112.037 152.141 111.776C151.749 111.496 151.535 111.02 151.497 110.348C150.713 111.636 149.36 112.28 147.437 112.28C145.925 112.28 144.675 111.776 143.685 110.768C142.715 109.741 142.229 108.304 142.229 106.456V101.724C142.229 101.257 142.043 100.828 141.669 100.436C141.315 100.025 141.137 99.7453 141.137 99.596V99.512C141.137 99.176 141.333 98.98 141.725 98.924L145.253 98.392C146.019 98.2987 146.401 98.4667 146.401 98.896L146.317 106.876C146.317 109.415 147.092 110.684 148.641 110.684C149.332 110.684 149.901 110.385 150.349 109.788C150.816 109.172 151.049 108.379 151.049 107.408V101.724C151.049 101.257 150.863 100.828 150.489 100.436C150.116 100.025 149.929 99.7453 149.929 99.596V99.512C149.929 99.176 150.116 98.98 150.489 98.924L154.073 98.392C154.783 98.3173 155.137 98.4853 155.137 98.896V109.144ZM163.313 112.28C162.006 112.28 160.97 111.869 160.205 111.048C159.458 110.208 159.085 109.004 159.085 107.436V100.184H157.769C157.396 100.184 157.209 99.9973 157.209 99.624V99.148C157.209 98.756 157.396 98.56 157.769 98.56H158.469C159.234 98.56 159.878 98.308 160.401 97.804C160.942 97.3 161.288 96.628 161.437 95.788C161.53 95.34 161.745 95.116 162.081 95.116H162.641C163.052 95.116 163.257 95.34 163.257 95.788L163.285 98.56H166.505C166.654 98.56 166.785 98.616 166.897 98.728C167.009 98.84 167.065 98.98 167.065 99.148V99.624C167.065 99.792 167.009 99.932 166.897 100.044C166.785 100.137 166.654 100.184 166.505 100.184H163.285V107.492C163.285 108.033 163.416 108.472 163.677 108.808C163.957 109.125 164.302 109.284 164.713 109.284C165.684 109.284 166.318 108.864 166.617 108.024C166.785 107.781 166.99 107.688 167.233 107.744C167.494 107.781 167.625 107.931 167.625 108.192C167.625 109.275 167.233 110.227 166.449 111.048C165.684 111.869 164.638 112.28 163.313 112.28ZM179.939 107.744C180.107 107.52 180.312 107.445 180.555 107.52C180.798 107.595 180.91 107.772 180.891 108.052C180.798 109.023 180.238 109.975 179.211 110.908C178.184 111.823 176.85 112.28 175.207 112.28C173.228 112.28 171.604 111.627 170.335 110.32C169.066 109.013 168.431 107.296 168.431 105.168C168.431 103.171 169.094 101.528 170.419 100.24C171.744 98.9333 173.34 98.28 175.207 98.28C176.906 98.28 178.212 98.6813 179.127 99.484C180.042 100.287 180.499 101.211 180.499 102.256C180.499 103.115 180.088 103.731 179.267 104.104L173.051 106.932C173.816 108.556 175.048 109.368 176.747 109.368C177.456 109.368 178.091 109.219 178.651 108.92C179.23 108.603 179.659 108.211 179.939 107.744ZM174.703 99.512C173.975 99.512 173.396 99.8667 172.967 100.576C172.538 101.267 172.323 102.153 172.323 103.236C172.323 104.151 172.416 104.953 172.603 105.644L176.215 103.824C176.7 103.581 176.943 103.143 176.943 102.508C176.943 101.873 176.738 101.22 176.327 100.548C175.916 99.8573 175.375 99.512 174.703 99.512ZM188.177 112.252C186.422 112.252 184.985 111.935 183.865 111.3C182.745 110.665 182.185 109.9 182.185 109.004C182.185 108.5 182.334 108.117 182.633 107.856C182.95 107.595 183.361 107.464 183.865 107.464C184.406 107.464 184.845 107.66 185.181 108.052C185.517 108.425 185.75 108.845 185.881 109.312C186.03 109.779 186.292 110.208 186.665 110.6C187.057 110.973 187.561 111.16 188.177 111.16C188.774 111.16 189.26 111.001 189.633 110.684C190.025 110.367 190.221 109.909 190.221 109.312C190.221 108.64 189.95 108.108 189.409 107.716C188.886 107.324 188.242 107.035 187.477 106.848C186.712 106.643 185.946 106.419 185.181 106.176C184.416 105.915 183.762 105.476 183.221 104.86C182.698 104.225 182.437 103.404 182.437 102.396C182.437 101.201 182.96 100.221 184.005 99.456C185.069 98.672 186.441 98.28 188.121 98.28C189.82 98.28 191.201 98.616 192.265 99.288C193.348 99.9413 193.889 100.725 193.889 101.64C193.889 102.051 193.73 102.396 193.413 102.676C193.114 102.956 192.741 103.096 192.293 103.096C191.77 103.096 191.35 102.909 191.033 102.536C190.716 102.144 190.492 101.724 190.361 101.276C190.23 100.809 189.997 100.389 189.661 100.016C189.325 99.624 188.886 99.428 188.345 99.428C187.804 99.428 187.365 99.6147 187.029 99.988C186.693 100.343 186.525 100.781 186.525 101.304C186.525 101.827 186.665 102.265 186.945 102.62C187.225 102.975 187.589 103.245 188.037 103.432C188.485 103.619 188.98 103.796 189.521 103.964C190.062 104.113 190.604 104.291 191.145 104.496C191.705 104.683 192.209 104.916 192.657 105.196C193.105 105.476 193.469 105.877 193.749 106.4C194.029 106.904 194.169 107.52 194.169 108.248C194.169 109.405 193.628 110.367 192.545 111.132C191.462 111.879 190.006 112.252 188.177 112.252Z" fill="#163A24"/>
<path d="M6.46756 40H4.84756V27.148H12.0296V28.57H6.46756V33.124H11.6876V34.546H6.46756V40ZM14.7755 26.734C15.0155 26.734 15.2255 26.818 15.4055 26.986C15.5975 27.142 15.6935 27.394 15.6935 27.742C15.6935 28.078 15.5975 28.33 15.4055 28.498C15.2255 28.666 15.0155 28.75 14.7755 28.75C14.5115 28.75 14.2895 28.666 14.1095 28.498C13.9295 28.33 13.8395 28.078 13.8395 27.742C13.8395 27.394 13.9295 27.142 14.1095 26.986C14.2895 26.818 14.5115 26.734 14.7755 26.734ZM15.5495 30.352V40H13.9655V30.352H15.5495ZM20.1902 40H18.6062V26.32H20.1902V40ZM24.8308 40H23.2468V26.32H24.8308V40ZM40.9512 35.158C40.9512 36.754 40.5432 37.99 39.7272 38.866C38.9232 39.742 37.8312 40.18 36.4512 40.18C35.5992 40.18 34.8372 39.988 34.1652 39.604C33.5052 39.208 32.9832 38.638 32.5992 37.894C32.2152 37.138 32.0232 36.226 32.0232 35.158C32.0232 33.562 32.4252 32.332 33.2292 31.468C34.0332 30.604 35.1252 30.172 36.5052 30.172C37.3812 30.172 38.1492 30.37 38.8092 30.766C39.4812 31.15 40.0032 31.714 40.3752 32.458C40.7592 33.19 40.9512 34.09 40.9512 35.158ZM33.6612 35.158C33.6612 36.298 33.8832 37.204 34.3272 37.876C34.7832 38.536 35.5032 38.866 36.4872 38.866C37.4592 38.866 38.1732 38.536 38.6292 37.876C39.0852 37.204 39.3132 36.298 39.3132 35.158C39.3132 34.018 39.0852 33.124 38.6292 32.476C38.1732 31.828 37.4532 31.504 36.4692 31.504C35.4852 31.504 34.7712 31.828 34.3272 32.476C33.8832 33.124 33.6612 34.018 33.6612 35.158ZM51.5256 30.352V40H50.2296L49.9956 38.722H49.9236C49.6116 39.226 49.1796 39.598 48.6276 39.838C48.0756 40.066 47.4876 40.18 46.8636 40.18C45.6996 40.18 44.8236 39.904 44.2356 39.352C43.6476 38.788 43.3536 37.894 43.3536 36.67V30.352H44.9556V36.562C44.9556 38.098 45.6696 38.866 47.0976 38.866C48.1656 38.866 48.9036 38.566 49.3116 37.966C49.7316 37.366 49.9416 36.502 49.9416 35.374V30.352H51.5256ZM57.8106 38.884C58.0506 38.884 58.2966 38.866 58.5486 38.83C58.8006 38.782 59.0046 38.734 59.1606 38.686V39.892C58.9926 39.976 58.7526 40.042 58.4406 40.09C58.1286 40.15 57.8286 40.18 57.5406 40.18C57.0366 40.18 56.5686 40.096 56.1366 39.928C55.7166 39.748 55.3746 39.442 55.1106 39.01C54.8466 38.578 54.7146 37.972 54.7146 37.192V31.576H53.3466V30.82L54.7326 30.19L55.3626 28.138H56.2986V30.352H59.0886V31.576H56.2986V37.156C56.2986 37.744 56.4366 38.182 56.7126 38.47C57.0006 38.746 57.3666 38.884 57.8106 38.884ZM69.4223 30.19C70.5983 30.19 71.4683 30.448 72.0323 30.964C72.5963 31.48 72.8783 32.302 72.8783 33.43V40H71.7263L71.4203 38.632H71.3483C70.9283 39.16 70.4843 39.55 70.0163 39.802C69.5603 40.054 68.9243 40.18 68.1083 40.18C67.2323 40.18 66.5063 39.952 65.9303 39.496C65.3543 39.028 65.0663 38.302 65.0663 37.318C65.0663 36.358 65.4443 35.62 66.2003 35.104C66.9563 34.576 68.1203 34.288 69.6923 34.24L71.3303 34.186V33.61C71.3303 32.806 71.1563 32.248 70.8083 31.936C70.4603 31.624 69.9683 31.468 69.3323 31.468C68.8283 31.468 68.3483 31.546 67.8923 31.702C67.4363 31.846 67.0103 32.014 66.6143 32.206L66.1283 31.018C66.5483 30.79 67.0463 30.598 67.6223 30.442C68.1983 30.274 68.7983 30.19 69.4223 30.19ZM69.8903 35.338C68.6903 35.386 67.8563 35.578 67.3883 35.914C66.9323 36.25 66.7043 36.724 66.7043 37.336C66.7043 37.876 66.8663 38.272 67.1903 38.524C67.5263 38.776 67.9523 38.902 68.4683 38.902C69.2843 38.902 69.9623 38.68 70.5023 38.236C71.0423 37.78 71.3123 37.084 71.3123 36.148V35.284L69.8903 35.338ZM84.9799 31.576H82.5499V40H80.9659V31.576H79.2739V30.838L80.9659 30.298V29.74C80.9659 28.492 81.2419 27.598 81.7939 27.058C82.3459 26.506 83.1139 26.23 84.0979 26.23C84.4819 26.23 84.8299 26.266 85.1419 26.338C85.4659 26.398 85.7419 26.47 85.9699 26.554L85.5559 27.796C85.3639 27.736 85.1419 27.676 84.8899 27.616C84.6379 27.556 84.3799 27.526 84.1159 27.526C83.5879 27.526 83.1919 27.706 82.9279 28.066C82.6759 28.414 82.5499 28.966 82.5499 29.722V30.352H84.9799V31.576ZM95.1094 35.158C95.1094 36.754 94.7014 37.99 93.8854 38.866C93.0814 39.742 91.9894 40.18 90.6094 40.18C89.7574 40.18 88.9954 39.988 88.3234 39.604C87.6634 39.208 87.1414 38.638 86.7574 37.894C86.3734 37.138 86.1814 36.226 86.1814 35.158C86.1814 33.562 86.5834 32.332 87.3874 31.468C88.1914 30.604 89.2834 30.172 90.6634 30.172C91.5394 30.172 92.3074 30.37 92.9674 30.766C93.6394 31.15 94.1614 31.714 94.5334 32.458C94.9174 33.19 95.1094 34.09 95.1094 35.158ZM87.8194 35.158C87.8194 36.298 88.0414 37.204 88.4854 37.876C88.9414 38.536 89.6614 38.866 90.6454 38.866C91.6174 38.866 92.3314 38.536 92.7874 37.876C93.2434 37.204 93.4714 36.298 93.4714 35.158C93.4714 34.018 93.2434 33.124 92.7874 32.476C92.3314 31.828 91.6114 31.504 90.6274 31.504C89.6434 31.504 88.9294 31.828 88.4854 32.476C88.0414 33.124 87.8194 34.018 87.8194 35.158ZM102.12 30.172C102.3 30.172 102.492 30.184 102.696 30.208C102.912 30.22 103.098 30.244 103.254 30.28L103.056 31.738C102.9 31.702 102.726 31.672 102.534 31.648C102.354 31.624 102.18 31.612 102.012 31.612C101.52 31.612 101.058 31.75 100.626 32.026C100.194 32.29 99.8458 32.668 99.5818 33.16C99.3298 33.64 99.2038 34.204 99.2038 34.852V40H97.6198V30.352H98.9158L99.0958 32.116H99.1678C99.4798 31.588 99.8818 31.132 100.374 30.748C100.866 30.364 101.448 30.172 102.12 30.172ZM115.639 30.172C116.731 30.172 117.547 30.454 118.087 31.018C118.627 31.57 118.897 32.47 118.897 33.718V40H117.331V33.79C117.331 32.266 116.677 31.504 115.369 31.504C114.433 31.504 113.761 31.774 113.353 32.314C112.957 32.854 112.759 33.64 112.759 34.672V40H111.193V33.79C111.193 32.266 110.533 31.504 109.213 31.504C108.241 31.504 107.569 31.804 107.197 32.404C106.825 33.004 106.639 33.868 106.639 34.996V40H105.055V30.352H106.333L106.567 31.666H106.657C106.957 31.162 107.359 30.79 107.863 30.55C108.379 30.298 108.925 30.172 109.501 30.172C111.013 30.172 111.997 30.712 112.453 31.792H112.543C112.867 31.24 113.305 30.832 113.857 30.568C114.421 30.304 115.015 30.172 115.639 30.172ZM130.207 30.19C131.383 30.19 132.253 30.448 132.817 30.964C133.381 31.48 133.663 32.302 133.663 33.43V40H132.511L132.205 38.632H132.133C131.713 39.16 131.269 39.55 130.801 39.802C130.345 40.054 129.709 40.18 128.893 40.18C128.017 40.18 127.291 39.952 126.715 39.496C126.139 39.028 125.851 38.302 125.851 37.318C125.851 36.358 126.229 35.62 126.985 35.104C127.741 34.576 128.905 34.288 130.477 34.24L132.115 34.186V33.61C132.115 32.806 131.941 32.248 131.593 31.936C131.245 31.624 130.753 31.468 130.117 31.468C129.613 31.468 129.133 31.546 128.677 31.702C128.221 31.846 127.795 32.014 127.399 32.206L126.913 31.018C127.333 30.79 127.831 30.598 128.407 30.442C128.983 30.274 129.583 30.19 130.207 30.19ZM130.675 35.338C129.475 35.386 128.641 35.578 128.173 35.914C127.717 36.25 127.489 36.724 127.489 37.336C127.489 37.876 127.651 38.272 127.975 38.524C128.311 38.776 128.737 38.902 129.253 38.902C130.069 38.902 130.747 38.68 131.287 38.236C131.827 37.78 132.097 37.084 132.097 36.148V35.284L130.675 35.338ZM141.287 30.172C142.439 30.172 143.309 30.454 143.897 31.018C144.485 31.57 144.779 32.47 144.779 33.718V40H143.213V33.826C143.213 32.278 142.493 31.504 141.053 31.504C139.985 31.504 139.247 31.804 138.839 32.404C138.431 33.004 138.227 33.868 138.227 34.996V40H136.643V30.352H137.921L138.155 31.666H138.245C138.557 31.162 138.989 30.79 139.541 30.55C140.093 30.298 140.675 30.172 141.287 30.172ZM151.19 40.18C149.99 40.18 149.03 39.766 148.31 38.938C147.59 38.098 147.23 36.85 147.23 35.194C147.23 33.538 147.59 32.29 148.31 31.45C149.042 30.598 150.008 30.172 151.208 30.172C151.952 30.172 152.558 30.31 153.026 30.586C153.506 30.862 153.896 31.198 154.196 31.594H154.304C154.292 31.438 154.268 31.21 154.232 30.91C154.208 30.598 154.196 30.352 154.196 30.172V26.32H155.78V40H154.502L154.268 38.704H154.196C153.908 39.112 153.524 39.46 153.044 39.748C152.564 40.036 151.946 40.18 151.19 40.18ZM151.442 38.866C152.462 38.866 153.176 38.59 153.584 38.038C154.004 37.474 154.214 36.628 154.214 35.5V35.212C154.214 34.012 154.016 33.094 153.62 32.458C153.224 31.81 152.492 31.486 151.424 31.486C150.572 31.486 149.93 31.828 149.498 32.512C149.078 33.184 148.868 34.09 148.868 35.23C148.868 36.382 149.078 37.276 149.498 37.912C149.93 38.548 150.578 38.866 151.442 38.866ZM166.742 38.884C166.982 38.884 167.228 38.866 167.48 38.83C167.732 38.782 167.936 38.734 168.092 38.686V39.892C167.924 39.976 167.684 40.042 167.372 40.09C167.06 40.15 166.76 40.18 166.472 40.18C165.968 40.18 165.5 40.096 165.068 39.928C164.648 39.748 164.306 39.442 164.042 39.01C163.778 38.578 163.646 37.972 163.646 37.192V31.576H162.278V30.82L163.664 30.19L164.294 28.138H165.23V30.352H168.02V31.576H165.23V37.156C165.23 37.744 165.368 38.182 165.644 38.47C165.932 38.746 166.298 38.884 166.742 38.884ZM173.75 30.172C174.578 30.172 175.286 30.352 175.874 30.712C176.474 31.072 176.93 31.582 177.242 32.242C177.566 32.89 177.728 33.652 177.728 34.528V35.482H171.122C171.146 36.574 171.422 37.408 171.95 37.984C172.49 38.548 173.24 38.83 174.2 38.83C174.812 38.83 175.352 38.776 175.82 38.668C176.3 38.548 176.792 38.38 177.296 38.164V39.55C176.804 39.766 176.318 39.922 175.838 40.018C175.358 40.126 174.788 40.18 174.128 40.18C173.216 40.18 172.406 39.994 171.698 39.622C171.002 39.25 170.456 38.698 170.06 37.966C169.676 37.222 169.484 36.316 169.484 35.248C169.484 34.192 169.658 33.286 170.006 32.53C170.366 31.774 170.864 31.192 171.5 30.784C172.148 30.376 172.898 30.172 173.75 30.172ZM173.732 31.468C172.976 31.468 172.376 31.714 171.932 32.206C171.5 32.686 171.242 33.358 171.158 34.222H176.072C176.06 33.406 175.868 32.746 175.496 32.242C175.124 31.726 174.536 31.468 173.732 31.468ZM181.768 40H180.184V26.32H181.768V40ZM186.409 40H184.825V26.32H186.409V40ZM202.205 30.352V40H200.909L200.675 38.722H200.603C200.291 39.226 199.859 39.598 199.307 39.838C198.755 40.066 198.167 40.18 197.543 40.18C196.379 40.18 195.503 39.904 194.915 39.352C194.327 38.788 194.033 37.894 194.033 36.67V30.352H195.635V36.562C195.635 38.098 196.349 38.866 197.777 38.866C198.845 38.866 199.583 38.566 199.991 37.966C200.411 37.366 200.621 36.502 200.621 35.374V30.352H202.205ZM211.55 37.336C211.55 38.272 211.202 38.98 210.506 39.46C209.81 39.94 208.874 40.18 207.698 40.18C207.026 40.18 206.444 40.126 205.952 40.018C205.472 39.91 205.046 39.76 204.674 39.568V38.128C205.058 38.32 205.52 38.5 206.06 38.668C206.612 38.824 207.17 38.902 207.734 38.902C208.538 38.902 209.12 38.776 209.48 38.524C209.84 38.26 210.02 37.912 210.02 37.48C210.02 37.24 209.954 37.024 209.822 36.832C209.69 36.64 209.45 36.448 209.102 36.256C208.766 36.064 208.28 35.848 207.644 35.608C207.02 35.368 206.486 35.128 206.042 34.888C205.598 34.648 205.256 34.36 205.016 34.024C204.776 33.688 204.656 33.256 204.656 32.728C204.656 31.912 204.986 31.282 205.646 30.838C206.318 30.394 207.194 30.172 208.274 30.172C208.862 30.172 209.408 30.232 209.912 30.352C210.428 30.46 210.908 30.616 211.352 30.82L210.812 32.08C210.404 31.912 209.978 31.768 209.534 31.648C209.09 31.528 208.634 31.468 208.166 31.468C207.518 31.468 207.02 31.576 206.672 31.792C206.336 31.996 206.168 32.278 206.168 32.638C206.168 32.902 206.246 33.13 206.402 33.322C206.558 33.502 206.816 33.682 207.176 33.862C207.548 34.03 208.04 34.234 208.652 34.474C209.264 34.702 209.786 34.936 210.218 35.176C210.65 35.416 210.98 35.71 211.208 36.058C211.436 36.394 211.55 36.82 211.55 37.336ZM224.785 34.546C224.629 34.054 224.491 33.574 224.371 33.106C224.263 32.626 224.179 32.254 224.119 31.99H224.047C223.999 32.254 223.921 32.626 223.813 33.106C223.705 33.574 223.567 34.06 223.399 34.564L221.671 39.982H219.871L217.225 30.334H218.863L220.195 35.482C220.327 35.998 220.453 36.52 220.573 37.048C220.693 37.576 220.777 38.014 220.825 38.362H220.897C220.945 38.158 220.999 37.906 221.059 37.606C221.131 37.306 221.209 36.994 221.293 36.67C221.377 36.334 221.461 36.034 221.545 35.77L223.255 30.334H224.983L226.639 35.77C226.771 36.178 226.897 36.622 227.017 37.102C227.149 37.582 227.239 37.996 227.287 38.344H227.359C227.395 38.044 227.473 37.63 227.593 37.102C227.725 36.574 227.863 36.034 228.007 35.482L229.357 30.334H230.977L228.295 39.982H226.441L224.785 34.546ZM234.292 30.334C234.292 30.814 234.262 31.264 234.202 31.684H234.31C234.622 31.192 235.042 30.82 235.57 30.568C236.11 30.316 236.692 30.19 237.316 30.19C238.492 30.19 239.374 30.472 239.962 31.036C240.55 31.588 240.844 32.482 240.844 33.718V40H239.278V33.826C239.278 32.278 238.558 31.504 237.118 31.504C236.038 31.504 235.294 31.81 234.886 32.422C234.49 33.022 234.292 33.886 234.292 35.014V40H232.708V26.32H234.292V30.334ZM247.489 30.19C248.665 30.19 249.535 30.448 250.099 30.964C250.663 31.48 250.945 32.302 250.945 33.43V40H249.793L249.487 38.632H249.415C248.995 39.16 248.551 39.55 248.083 39.802C247.627 40.054 246.991 40.18 246.175 40.18C245.299 40.18 244.573 39.952 243.997 39.496C243.421 39.028 243.133 38.302 243.133 37.318C243.133 36.358 243.511 35.62 244.267 35.104C245.023 34.576 246.187 34.288 247.759 34.24L249.397 34.186V33.61C249.397 32.806 249.223 32.248 248.875 31.936C248.527 31.624 248.035 31.468 247.399 31.468C246.895 31.468 246.415 31.546 245.959 31.702C245.503 31.846 245.077 32.014 244.681 32.206L244.195 31.018C244.615 30.79 245.113 30.598 245.689 30.442C246.265 30.274 246.865 30.19 247.489 30.19ZM247.957 35.338C246.757 35.386 245.923 35.578 245.455 35.914C244.999 36.25 244.771 36.724 244.771 37.336C244.771 37.876 244.933 38.272 245.257 38.524C245.593 38.776 246.019 38.902 246.535 38.902C247.351 38.902 248.029 38.68 248.569 38.236C249.109 37.78 249.379 37.084 249.379 36.148V35.284L247.957 35.338ZM257.147 38.884C257.387 38.884 257.633 38.866 257.885 38.83C258.137 38.782 258.341 38.734 258.497 38.686V39.892C258.329 39.976 258.089 40.042 257.777 40.09C257.465 40.15 257.165 40.18 256.877 40.18C256.373 40.18 255.905 40.096 255.473 39.928C255.053 39.748 254.711 39.442 254.447 39.01C254.183 38.578 254.051 37.972 254.051 37.192V31.576H252.683V30.82L254.069 30.19L254.699 28.138H255.635V30.352H258.425V31.576H255.635V37.156C255.635 37.744 255.773 38.182 256.049 38.47C256.337 38.746 256.703 38.884 257.147 38.884ZM54.2543 57.352H55.9463L58.0343 62.842C58.2143 63.322 58.3763 63.784 58.5203 64.228C58.6643 64.66 58.7723 65.074 58.8443 65.47H58.9163C58.9883 65.17 59.1023 64.78 59.2583 64.3C59.4143 63.808 59.5763 63.316 59.7443 62.824L61.7063 57.352H63.4163L59.2583 68.332C58.9223 69.244 58.4843 69.97 57.9443 70.51C57.4163 71.05 56.6843 71.32 55.7483 71.32C55.4603 71.32 55.2083 71.302 54.9923 71.266C54.7763 71.242 54.5903 71.212 54.4343 71.176V69.916C54.5663 69.94 54.7223 69.964 54.9023 69.988C55.0943 70.012 55.2923 70.024 55.4963 70.024C56.0483 70.024 56.4923 69.868 56.8283 69.556C57.1763 69.244 57.4463 68.83 57.6383 68.314L58.1423 67.036L54.2543 57.352ZM73.3301 62.158C73.3301 63.754 72.9221 64.99 72.1061 65.866C71.3021 66.742 70.2101 67.18 68.8301 67.18C67.9781 67.18 67.2161 66.988 66.5441 66.604C65.8841 66.208 65.3621 65.638 64.9781 64.894C64.5941 64.138 64.4021 63.226 64.4021 62.158C64.4021 60.562 64.8041 59.332 65.6081 58.468C66.4121 57.604 67.5041 57.172 68.8841 57.172C69.7601 57.172 70.5281 57.37 71.1881 57.766C71.8601 58.15 72.3821 58.714 72.7541 59.458C73.1381 60.19 73.3301 61.09 73.3301 62.158ZM66.0401 62.158C66.0401 63.298 66.2621 64.204 66.7061 64.876C67.1621 65.536 67.8821 65.866 68.8661 65.866C69.8381 65.866 70.5521 65.536 71.0081 64.876C71.4641 64.204 71.6921 63.298 71.6921 62.158C71.6921 61.018 71.4641 60.124 71.0081 59.476C70.5521 58.828 69.8321 58.504 68.8481 58.504C67.8641 58.504 67.1501 58.828 66.7061 59.476C66.2621 60.124 66.0401 61.018 66.0401 62.158ZM83.9045 57.352V67H82.6085L82.3745 65.722H82.3025C81.9905 66.226 81.5585 66.598 81.0065 66.838C80.4545 67.066 79.8665 67.18 79.2425 67.18C78.0785 67.18 77.2025 66.904 76.6145 66.352C76.0265 65.788 75.7325 64.894 75.7325 63.67V57.352H77.3345V63.562C77.3345 65.098 78.0485 65.866 79.4765 65.866C80.5445 65.866 81.2825 65.566 81.6905 64.966C82.1105 64.366 82.3205 63.502 82.3205 62.374V57.352H83.9045ZM88.3175 54.148L87.9575 58.792H86.9675L86.6075 54.148H88.3175ZM94.9655 57.172C95.1455 57.172 95.3375 57.184 95.5415 57.208C95.7575 57.22 95.9435 57.244 96.0995 57.28L95.9015 58.738C95.7455 58.702 95.5715 58.672 95.3795 58.648C95.1995 58.624 95.0255 58.612 94.8575 58.612C94.3655 58.612 93.9035 58.75 93.4715 59.026C93.0395 59.29 92.6915 59.668 92.4275 60.16C92.1755 60.64 92.0495 61.204 92.0495 61.852V67H90.4655V57.352H91.7615L91.9415 59.116H92.0135C92.3255 58.588 92.7275 58.132 93.2195 57.748C93.7115 57.364 94.2935 57.172 94.9655 57.172ZM101.276 57.172C102.104 57.172 102.812 57.352 103.4 57.712C104 58.072 104.456 58.582 104.768 59.242C105.092 59.89 105.254 60.652 105.254 61.528V62.482H98.6475C98.6715 63.574 98.9475 64.408 99.4755 64.984C100.016 65.548 100.766 65.83 101.726 65.83C102.338 65.83 102.878 65.776 103.346 65.668C103.826 65.548 104.318 65.38 104.822 65.164V66.55C104.33 66.766 103.844 66.922 103.364 67.018C102.884 67.126 102.314 67.18 101.654 67.18C100.742 67.18 99.9315 66.994 99.2235 66.622C98.5275 66.25 97.9815 65.698 97.5855 64.966C97.2015 64.222 97.0095 63.316 97.0095 62.248C97.0095 61.192 97.1835 60.286 97.5315 59.53C97.8915 58.774 98.3895 58.192 99.0255 57.784C99.6735 57.376 100.424 57.172 101.276 57.172ZM101.258 58.468C100.502 58.468 99.9015 58.714 99.4575 59.206C99.0255 59.686 98.7675 60.358 98.6835 61.222H103.598C103.586 60.406 103.394 59.746 103.022 59.242C102.65 58.726 102.062 58.468 101.258 58.468ZM113.969 67H112.385V53.32H113.969V67ZM125.414 62.158C125.414 63.754 125.006 64.99 124.19 65.866C123.386 66.742 122.294 67.18 120.914 67.18C120.062 67.18 119.3 66.988 118.628 66.604C117.968 66.208 117.446 65.638 117.062 64.894C116.678 64.138 116.486 63.226 116.486 62.158C116.486 60.562 116.888 59.332 117.692 58.468C118.496 57.604 119.588 57.172 120.968 57.172C121.844 57.172 122.612 57.37 123.272 57.766C123.944 58.15 124.466 58.714 124.838 59.458C125.222 60.19 125.414 61.09 125.414 62.158ZM118.124 62.158C118.124 63.298 118.346 64.204 118.79 64.876C119.246 65.536 119.966 65.866 120.95 65.866C121.922 65.866 122.636 65.536 123.092 64.876C123.548 64.204 123.776 63.298 123.776 62.158C123.776 61.018 123.548 60.124 123.092 59.476C122.636 58.828 121.916 58.504 120.932 58.504C119.948 58.504 119.234 58.828 118.79 59.476C118.346 60.124 118.124 61.018 118.124 62.158ZM136.313 62.158C136.313 63.754 135.905 64.99 135.089 65.866C134.285 66.742 133.193 67.18 131.813 67.18C130.961 67.18 130.199 66.988 129.527 66.604C128.867 66.208 128.345 65.638 127.961 64.894C127.577 64.138 127.385 63.226 127.385 62.158C127.385 60.562 127.787 59.332 128.591 58.468C129.395 57.604 130.487 57.172 131.867 57.172C132.743 57.172 133.511 57.37 134.171 57.766C134.843 58.15 135.365 58.714 135.737 59.458C136.121 60.19 136.313 61.09 136.313 62.158ZM129.023 62.158C129.023 63.298 129.245 64.204 129.689 64.876C130.145 65.536 130.865 65.866 131.849 65.866C132.821 65.866 133.535 65.536 133.991 64.876C134.447 64.204 134.675 63.298 134.675 62.158C134.675 61.018 134.447 60.124 133.991 59.476C133.535 58.828 132.815 58.504 131.831 58.504C130.847 58.504 130.133 58.828 129.689 59.476C129.245 60.124 129.023 61.018 129.023 62.158ZM140.389 60.466C140.389 60.658 140.377 60.91 140.353 61.222C140.341 61.534 140.329 61.804 140.317 62.032H140.389C140.461 61.936 140.569 61.798 140.713 61.618C140.857 61.438 141.001 61.258 141.145 61.078C141.301 60.886 141.433 60.73 141.541 60.61L144.619 57.352H146.473L142.567 61.474L146.743 67H144.835L141.487 62.5L140.389 63.454V67H138.823V53.32H140.389V60.466ZM149.248 53.734C149.488 53.734 149.698 53.818 149.878 53.986C150.07 54.142 150.166 54.394 150.166 54.742C150.166 55.078 150.07 55.33 149.878 55.498C149.698 55.666 149.488 55.75 149.248 55.75C148.984 55.75 148.762 55.666 148.582 55.498C148.402 55.33 148.312 55.078 148.312 54.742C148.312 54.394 148.402 54.142 148.582 53.986C148.762 53.818 148.984 53.734 149.248 53.734ZM150.022 57.352V67H148.438V57.352H150.022ZM157.723 57.172C158.875 57.172 159.745 57.454 160.333 58.018C160.921 58.57 161.215 59.47 161.215 60.718V67H159.649V60.826C159.649 59.278 158.929 58.504 157.489 58.504C156.421 58.504 155.683 58.804 155.275 59.404C154.867 60.004 154.663 60.868 154.663 61.996V67H153.079V57.352H154.357L154.591 58.666H154.681C154.993 58.162 155.425 57.79 155.977 57.55C156.529 57.298 157.111 57.172 157.723 57.172ZM167.626 57.172C168.262 57.172 168.832 57.292 169.336 57.532C169.852 57.772 170.29 58.138 170.65 58.63H170.74L170.956 57.352H172.216V67.162C172.216 68.542 171.862 69.58 171.154 70.276C170.458 70.972 169.372 71.32 167.896 71.32C166.48 71.32 165.322 71.116 164.422 70.708V69.25C165.37 69.754 166.558 70.006 167.986 70.006C168.814 70.006 169.462 69.76 169.93 69.268C170.41 68.788 170.65 68.128 170.65 67.288V66.91C170.65 66.766 170.656 66.562 170.668 66.298C170.68 66.022 170.692 65.83 170.704 65.722H170.632C169.984 66.694 168.988 67.18 167.644 67.18C166.396 67.18 165.418 66.742 164.71 65.866C164.014 64.99 163.666 63.766 163.666 62.194C163.666 60.658 164.014 59.44 164.71 58.54C165.418 57.628 166.39 57.172 167.626 57.172ZM167.842 58.504C167.038 58.504 166.414 58.828 165.97 59.476C165.526 60.112 165.304 61.024 165.304 62.212C165.304 63.4 165.52 64.312 165.952 64.948C166.396 65.572 167.038 65.884 167.878 65.884C168.85 65.884 169.558 65.626 170.002 65.11C170.446 64.582 170.668 63.736 170.668 62.572V62.194C170.668 60.874 170.44 59.932 169.984 59.368C169.528 58.792 168.814 58.504 167.842 58.504ZM184.402 58.576H181.972V67H180.388V58.576H178.696V57.838L180.388 57.298V56.74C180.388 55.492 180.664 54.598 181.216 54.058C181.768 53.506 182.536 53.23 183.52 53.23C183.904 53.23 184.252 53.266 184.564 53.338C184.888 53.398 185.164 53.47 185.392 53.554L184.978 54.796C184.786 54.736 184.564 54.676 184.312 54.616C184.06 54.556 183.802 54.526 183.538 54.526C183.01 54.526 182.614 54.706 182.35 55.066C182.098 55.414 181.972 55.966 181.972 56.722V57.352H184.402V58.576ZM194.531 62.158C194.531 63.754 194.123 64.99 193.307 65.866C192.503 66.742 191.411 67.18 190.031 67.18C189.179 67.18 188.417 66.988 187.745 66.604C187.085 66.208 186.563 65.638 186.179 64.894C185.795 64.138 185.603 63.226 185.603 62.158C185.603 60.562 186.005 59.332 186.809 58.468C187.613 57.604 188.705 57.172 190.085 57.172C190.961 57.172 191.729 57.37 192.389 57.766C193.061 58.15 193.583 58.714 193.955 59.458C194.339 60.19 194.531 61.09 194.531 62.158ZM187.241 62.158C187.241 63.298 187.463 64.204 187.907 64.876C188.363 65.536 189.083 65.866 190.067 65.866C191.039 65.866 191.753 65.536 192.209 64.876C192.665 64.204 192.893 63.298 192.893 62.158C192.893 61.018 192.665 60.124 192.209 59.476C191.753 58.828 191.033 58.504 190.049 58.504C189.065 58.504 188.351 58.828 187.907 59.476C187.463 60.124 187.241 61.018 187.241 62.158ZM201.542 57.172C201.722 57.172 201.914 57.184 202.118 57.208C202.334 57.22 202.52 57.244 202.676 57.28L202.478 58.738C202.322 58.702 202.148 58.672 201.956 58.648C201.776 58.624 201.602 58.612 201.434 58.612C200.942 58.612 200.48 58.75 200.048 59.026C199.616 59.29 199.268 59.668 199.004 60.16C198.752 60.64 198.626 61.204 198.626 61.852V67H197.042V57.352H198.338L198.518 59.116H198.59C198.902 58.588 199.304 58.132 199.796 57.748C200.288 57.364 200.87 57.172 201.542 57.172ZM204.243 58.324C204.243 57.868 204.351 57.55 204.567 57.37C204.783 57.19 205.041 57.1 205.341 57.1C205.653 57.1 205.917 57.19 206.133 57.37C206.361 57.55 206.475 57.868 206.475 58.324C206.475 58.756 206.361 59.068 206.133 59.26C205.917 59.452 205.653 59.548 205.341 59.548C205.041 59.548 204.783 59.452 204.567 59.26C204.351 59.068 204.243 58.756 204.243 58.324ZM204.243 66.028C204.243 65.584 204.351 65.272 204.567 65.092C204.783 64.912 205.041 64.822 205.341 64.822C205.653 64.822 205.917 64.912 206.133 65.092C206.361 65.272 206.475 65.584 206.475 66.028C206.475 66.46 206.361 66.772 206.133 66.964C205.917 67.156 205.653 67.252 205.341 67.252C205.041 67.252 204.783 67.156 204.567 66.964C204.351 66.772 204.243 66.46 204.243 66.028Z" fill="#163A24"/>
<defs>
<clipPath id="clip0_1_1274">
<rect width="75" height="36" fill="white" transform="translate(290 53)"/>
</clipPath>
</defs>
</svg>
