<svg width="37" height="76" viewBox="0 0 37 76" fill="none" xmlns="http://www.w3.org/2000/svg">
<g clip-path="url(#clip0_1_1275)">
<path d="M8.56661 6.00551C13.4457 11.855 16.6559 18.9336 17.8128 26.4678C19.0314 34.4041 18.9741 43.3971 17.252 50.5289C16.0686 55.4145 15.8523 56.1086 15.0973 57.3334C12.5097 55.2244 8.12939 48.3138 2.81754 48.7073C1.65188 48.7913 1.04696 50.1443 1.74895 51.0771C6.18664 56.9664 13.459 69.2181 18.0071 74.4C18.484 74.9438 19.0668 75.5363 19.7909 75.5009C20.493 75.4699 21.0097 74.8643 21.438 74.3071C26.8293 67.2461 31.7615 59.8315 36.1947 52.1339C36.8041 51.0771 36.4773 49.6711 35.3999 49.0964C34.4639 48.5924 33.7397 49.1318 33.095 49.6401C30.0439 52.0454 26.9927 54.4506 23.9371 56.8559C29.1519 44.4936 28.9267 30.049 23.8003 17.6869C20.9258 10.7497 15.7463 4.98417 9.05671 1.60181C5.46242 -0.210957 3.20609 -0.423183 8.56661 6.00551Z" fill="#FBC8B8"/>
</g>
<defs>
<clipPath id="clip0_1_1275">
<rect width="75" height="36" fill="white" transform="matrix(0 1 -1 0 36.5 0.5)"/>
</clipPath>
</defs>
</svg>
