<svg width="394" height="142" viewBox="0 0 394 142" fill="none" xmlns="http://www.w3.org/2000/svg">
<path d="M98.4144 106.764C98.601 106.764 98.741 106.829 98.8344 106.96C98.9277 107.072 98.9557 107.212 98.9184 107.38L98.0784 111.356C97.9477 111.785 97.7144 112 97.3784 112H84.2744C84.1064 112 83.9477 111.944 83.7984 111.832C83.6677 111.701 83.6024 111.552 83.6024 111.384V111.048C83.6024 109.965 83.9384 108.892 84.6104 107.828C85.301 106.764 86.1317 105.803 87.1024 104.944C88.073 104.067 89.0437 103.208 90.0144 102.368C90.985 101.509 91.8064 100.613 92.4784 99.68C93.169 98.728 93.5144 97.7947 93.5144 96.88C93.5144 95.872 93.253 95.06 92.7304 94.444C92.2264 93.828 91.6384 93.52 90.9664 93.52C90.3317 93.52 89.7904 93.7907 89.3424 94.332C88.913 94.8733 88.5957 95.4613 88.3904 96.096C88.2037 96.7307 87.8864 97.3187 87.4384 97.86C87.009 98.4013 86.477 98.672 85.8424 98.672C85.245 98.672 84.7504 98.4947 84.3584 98.14C83.9664 97.7853 83.7704 97.3 83.7704 96.684C83.7704 95.4147 84.461 94.2947 85.8424 93.324C87.2237 92.3347 88.9224 91.84 90.9384 91.84C93.0664 91.84 94.7557 92.2973 96.0064 93.212C97.2757 94.108 97.9104 95.4613 97.9104 97.272C97.9104 98.056 97.733 98.8027 97.3784 99.512C97.0424 100.203 96.5944 100.828 96.0344 101.388C95.4744 101.929 94.849 102.461 94.1584 102.984C93.4677 103.488 92.7584 103.983 92.0304 104.468C91.3024 104.935 90.621 105.401 89.9864 105.868C89.3517 106.335 88.7917 106.839 88.3064 107.38C87.8397 107.921 87.5224 108.472 87.3544 109.032H95.2224C95.6704 109.032 96.0624 108.92 96.3984 108.696C96.7344 108.453 96.9677 108.192 97.0984 107.912C97.2477 107.613 97.4064 107.352 97.5744 107.128C97.761 106.885 97.9384 106.764 98.1064 106.764H98.4144ZM114.864 105.448C115.2 105.448 115.368 105.616 115.368 105.952V106.764C115.368 107.1 115.2 107.268 114.864 107.268H112.988V109.256C112.988 109.741 113.193 110.18 113.604 110.572C114.014 110.964 114.22 111.253 114.22 111.44V111.524C114.22 111.841 114.014 112 113.604 112H108.256C107.845 112 107.64 111.841 107.64 111.524V111.44C107.64 111.253 107.826 110.964 108.2 110.572C108.573 110.18 108.76 109.741 108.76 109.256V107.268H100.892C100.145 107.268 99.7715 106.969 99.7715 106.372V106.232C99.7715 105.728 99.9022 105.271 100.164 104.86L107.948 93.184C108.414 92.4747 109.04 92.12 109.824 92.12H112.344C112.773 92.12 112.988 92.3347 112.988 92.764V105.448H114.864ZM102.04 105.448H108.76L108.788 95.396L102.04 105.448ZM136.875 109.256C136.912 109.704 137.089 110.124 137.407 110.516C137.724 110.908 137.883 111.207 137.883 111.412V111.524C137.883 111.841 137.677 112 137.267 112H132.395C131.984 112 131.779 111.841 131.779 111.524V111.412C131.779 111.225 131.947 110.936 132.283 110.544C132.637 110.152 132.805 109.732 132.787 109.284L132.507 103.908C132.376 101.22 131.564 99.876 130.071 99.876C129.324 99.876 128.736 100.156 128.307 100.716C127.896 101.276 127.691 102.023 127.691 102.956V109.312C127.691 109.741 127.887 110.152 128.279 110.544C128.689 110.936 128.895 111.225 128.895 111.412V111.524C128.895 111.841 128.671 112 128.223 112H123.043C122.613 112 122.399 111.841 122.399 111.524V111.412C122.399 111.225 122.595 110.936 122.987 110.544C123.379 110.152 123.575 109.741 123.575 109.312V95.368C123.575 94.92 123.36 94.5187 122.931 94.164C122.52 93.8093 122.315 93.5387 122.315 93.352V93.268C122.315 92.988 122.501 92.7547 122.875 92.568L126.571 90.944C126.888 90.8133 127.131 90.7947 127.299 90.888C127.485 90.9813 127.579 91.168 127.579 91.448L127.551 99.848C128.428 98.8027 129.651 98.28 131.219 98.28C132.637 98.28 133.841 98.7467 134.831 99.68C135.82 100.595 136.38 102.041 136.511 104.02L136.875 109.256ZM146.724 112.28C144.502 112.28 142.664 111.599 141.208 110.236C139.77 108.855 139.052 107.175 139.052 105.196C139.052 103.199 139.761 101.547 141.18 100.24C142.598 98.9333 144.306 98.28 146.304 98.28C148.45 98.28 150.242 98.9613 151.68 100.324C153.117 101.668 153.836 103.339 153.836 105.336C153.836 107.333 153.154 108.995 151.792 110.32C150.448 111.627 148.758 112.28 146.724 112.28ZM147.228 111.048C147.993 111.048 148.581 110.693 148.992 109.984C149.421 109.275 149.636 108.276 149.636 106.988C149.636 105.924 149.477 104.832 149.16 103.712C148.861 102.573 148.404 101.593 147.788 100.772C147.172 99.932 146.49 99.512 145.744 99.512C144.026 99.512 143.168 100.875 143.168 103.6C143.168 104.608 143.317 105.672 143.616 106.792C143.933 107.912 144.409 108.901 145.044 109.76C145.697 110.619 146.425 111.048 147.228 111.048ZM169.126 109.144C169.126 109.648 169.191 110.031 169.322 110.292C169.471 110.535 169.63 110.675 169.798 110.712C169.966 110.731 170.115 110.787 170.246 110.88C170.395 110.973 170.47 111.132 170.47 111.356C170.47 111.897 169.639 112.168 167.978 112.168C167.156 112.168 166.54 112.037 166.13 111.776C165.738 111.496 165.523 111.02 165.486 110.348C164.702 111.636 163.348 112.28 161.426 112.28C159.914 112.28 158.663 111.776 157.674 110.768C156.703 109.741 156.218 108.304 156.218 106.456V101.724C156.218 101.257 156.031 100.828 155.658 100.436C155.303 100.025 155.126 99.7453 155.126 99.596V99.512C155.126 99.176 155.322 98.98 155.714 98.924L159.242 98.392C160.007 98.2987 160.39 98.4667 160.39 98.896L160.306 106.876C160.306 109.415 161.08 110.684 162.63 110.684C163.32 110.684 163.89 110.385 164.338 109.788C164.804 109.172 165.038 108.379 165.038 107.408V101.724C165.038 101.257 164.851 100.828 164.478 100.436C164.104 100.025 163.918 99.7453 163.918 99.596V99.512C163.918 99.176 164.104 98.98 164.478 98.924L168.062 98.392C168.771 98.3173 169.126 98.4853 169.126 98.896V109.144ZM180.381 98.28C181.183 98.28 181.809 98.5227 182.257 99.008C182.723 99.4747 182.957 100.081 182.957 100.828C182.957 102.303 182.359 103.04 181.165 103.04C180.679 103.04 180.297 102.919 180.017 102.676C179.755 102.415 179.597 102.135 179.541 101.836C179.485 101.537 179.373 101.267 179.205 101.024C179.037 100.763 178.785 100.632 178.449 100.632C177.945 100.632 177.571 100.931 177.329 101.528C177.086 102.125 176.965 102.853 176.965 103.712V109.312C176.965 109.648 177.077 109.947 177.301 110.208C177.543 110.451 177.777 110.665 178.001 110.852C178.243 111.039 178.365 111.225 178.365 111.412V111.524C178.365 111.841 178.159 112 177.749 112H172.569C172.139 112 171.925 111.841 171.925 111.524V111.412C171.925 111.225 172.102 110.936 172.457 110.544C172.83 110.152 173.017 109.741 173.017 109.312V102.76C173.017 102.312 172.802 101.911 172.373 101.556C171.943 101.201 171.729 100.931 171.729 100.744V100.632C171.729 100.371 171.925 100.147 172.317 99.96L175.677 98.392C176.274 98.112 176.573 98.2987 176.573 98.952V101.052C177.207 99.204 178.477 98.28 180.381 98.28ZM189.587 112.252C187.833 112.252 186.395 111.935 185.275 111.3C184.155 110.665 183.595 109.9 183.595 109.004C183.595 108.5 183.745 108.117 184.043 107.856C184.361 107.595 184.771 107.464 185.275 107.464C185.817 107.464 186.255 107.66 186.591 108.052C186.927 108.425 187.161 108.845 187.291 109.312C187.441 109.779 187.702 110.208 188.075 110.6C188.467 110.973 188.971 111.16 189.587 111.16C190.185 111.16 190.67 111.001 191.043 110.684C191.435 110.367 191.631 109.909 191.631 109.312C191.631 108.64 191.361 108.108 190.819 107.716C190.297 107.324 189.653 107.035 188.887 106.848C188.122 106.643 187.357 106.419 186.591 106.176C185.826 105.915 185.173 105.476 184.631 104.86C184.109 104.225 183.847 103.404 183.847 102.396C183.847 101.201 184.37 100.221 185.415 99.456C186.479 98.672 187.851 98.28 189.531 98.28C191.23 98.28 192.611 98.616 193.675 99.288C194.758 99.9413 195.299 100.725 195.299 101.64C195.299 102.051 195.141 102.396 194.823 102.676C194.525 102.956 194.151 103.096 193.703 103.096C193.181 103.096 192.761 102.909 192.443 102.536C192.126 102.144 191.902 101.724 191.771 101.276C191.641 100.809 191.407 100.389 191.071 100.016C190.735 99.624 190.297 99.428 189.755 99.428C189.214 99.428 188.775 99.6147 188.439 99.988C188.103 100.343 187.935 100.781 187.935 101.304C187.935 101.827 188.075 102.265 188.355 102.62C188.635 102.975 188.999 103.245 189.447 103.432C189.895 103.619 190.39 103.796 190.931 103.964C191.473 104.113 192.014 104.291 192.555 104.496C193.115 104.683 193.619 104.916 194.067 105.196C194.515 105.476 194.879 105.877 195.159 106.4C195.439 106.904 195.579 107.52 195.579 108.248C195.579 109.405 195.038 110.367 193.955 111.132C192.873 111.879 191.417 112.252 189.587 112.252Z" fill="#163A24"/>
<path d="M14.9703 40H13.3503V28.57H9.33625V27.148H18.9663V28.57H14.9703V40ZM21.4982 26.734C21.7382 26.734 21.9482 26.818 22.1282 26.986C22.3202 27.142 22.4162 27.394 22.4162 27.742C22.4162 28.078 22.3202 28.33 22.1282 28.498C21.9482 28.666 21.7382 28.75 21.4982 28.75C21.2342 28.75 21.0122 28.666 20.8322 28.498C20.6522 28.33 20.5622 28.078 20.5622 27.742C20.5622 27.394 20.6522 27.142 20.8322 26.986C21.0122 26.818 21.2342 26.734 21.4982 26.734ZM22.2722 30.352V40H20.6882V30.352H22.2722ZM35.9128 30.172C37.0048 30.172 37.8208 30.454 38.3608 31.018C38.9008 31.57 39.1708 32.47 39.1708 33.718V40H37.6048V33.79C37.6048 32.266 36.9508 31.504 35.6428 31.504C34.7068 31.504 34.0348 31.774 33.6268 32.314C33.2308 32.854 33.0328 33.64 33.0328 34.672V40H31.4668V33.79C31.4668 32.266 30.8068 31.504 29.4868 31.504C28.5148 31.504 27.8428 31.804 27.4708 32.404C27.0988 33.004 26.9128 33.868 26.9128 34.996V40H25.3288V30.352H26.6068L26.8408 31.666H26.9308C27.2308 31.162 27.6328 30.79 28.1368 30.55C28.6528 30.298 29.1988 30.172 29.7748 30.172C31.2868 30.172 32.2708 30.712 32.7268 31.792H32.8168C33.1408 31.24 33.5788 30.832 34.1308 30.568C34.6948 30.304 35.2888 30.172 35.9128 30.172ZM45.8771 30.172C46.7051 30.172 47.4131 30.352 48.0011 30.712C48.6011 31.072 49.0571 31.582 49.3691 32.242C49.6931 32.89 49.8551 33.652 49.8551 34.528V35.482H43.2491C43.2731 36.574 43.5491 37.408 44.0771 37.984C44.6171 38.548 45.3671 38.83 46.3271 38.83C46.9391 38.83 47.4791 38.776 47.9471 38.668C48.4271 38.548 48.9191 38.38 49.4231 38.164V39.55C48.9311 39.766 48.4451 39.922 47.9651 40.018C47.4851 40.126 46.9151 40.18 46.2551 40.18C45.3431 40.18 44.5331 39.994 43.8251 39.622C43.1291 39.25 42.5831 38.698 42.1871 37.966C41.8031 37.222 41.6111 36.316 41.6111 35.248C41.6111 34.192 41.7851 33.286 42.1331 32.53C42.4931 31.774 42.9911 31.192 43.6271 30.784C44.2751 30.376 45.0251 30.172 45.8771 30.172ZM45.8591 31.468C45.1031 31.468 44.5031 31.714 44.0591 32.206C43.6271 32.686 43.3691 33.358 43.2851 34.222H48.1991C48.1871 33.406 47.9951 32.746 47.6231 32.242C47.2511 31.726 46.6631 31.468 45.8591 31.468ZM57.797 26.734C58.037 26.734 58.247 26.818 58.427 26.986C58.619 27.142 58.715 27.394 58.715 27.742C58.715 28.078 58.619 28.33 58.427 28.498C58.247 28.666 58.037 28.75 57.797 28.75C57.533 28.75 57.311 28.666 57.131 28.498C56.951 28.33 56.861 28.078 56.861 27.742C56.861 27.394 56.951 27.142 57.131 26.986C57.311 26.818 57.533 26.734 57.797 26.734ZM58.571 30.352V40H56.987V30.352H58.571ZM64.8497 38.884C65.0897 38.884 65.3357 38.866 65.5877 38.83C65.8397 38.782 66.0437 38.734 66.1997 38.686V39.892C66.0317 39.976 65.7917 40.042 65.4797 40.09C65.1677 40.15 64.8677 40.18 64.5797 40.18C64.0757 40.18 63.6077 40.096 63.1757 39.928C62.7557 39.748 62.4137 39.442 62.1497 39.01C61.8857 38.578 61.7537 37.972 61.7537 37.192V31.576H60.3857V30.82L61.7717 30.19L62.4017 28.138H63.3377V30.352H66.1277V31.576H63.3377V37.156C63.3377 37.744 63.4757 38.182 63.7517 38.47C64.0397 38.746 64.4057 38.884 64.8497 38.884ZM79.0353 34.546C78.8793 34.054 78.7413 33.574 78.6213 33.106C78.5133 32.626 78.4293 32.254 78.3693 31.99H78.2973C78.2493 32.254 78.1713 32.626 78.0633 33.106C77.9553 33.574 77.8173 34.06 77.6493 34.564L75.9213 39.982H74.1213L71.4753 30.334H73.1133L74.4453 35.482C74.5773 35.998 74.7033 36.52 74.8233 37.048C74.9433 37.576 75.0273 38.014 75.0753 38.362H75.1473C75.1953 38.158 75.2493 37.906 75.3093 37.606C75.3813 37.306 75.4593 36.994 75.5433 36.67C75.6273 36.334 75.7113 36.034 75.7953 35.77L77.5053 30.334H79.2333L80.8893 35.77C81.0213 36.178 81.1473 36.622 81.2673 37.102C81.3993 37.582 81.4893 37.996 81.5373 38.344H81.6093C81.6453 38.044 81.7233 37.63 81.8433 37.102C81.9753 36.574 82.1133 36.034 82.2573 35.482L83.6073 30.334H85.2273L82.5453 39.982H80.6913L79.0353 34.546ZM87.7677 26.734C88.0077 26.734 88.2177 26.818 88.3977 26.986C88.5897 27.142 88.6857 27.394 88.6857 27.742C88.6857 28.078 88.5897 28.33 88.3977 28.498C88.2177 28.666 88.0077 28.75 87.7677 28.75C87.5037 28.75 87.2817 28.666 87.1017 28.498C86.9217 28.33 86.8317 28.078 86.8317 27.742C86.8317 27.394 86.9217 27.142 87.1017 26.986C87.2817 26.818 87.5037 26.734 87.7677 26.734ZM88.5417 30.352V40H86.9577V30.352H88.5417ZM93.1824 40H91.5984V26.32H93.1824V40ZM97.823 40H96.239V26.32H97.823V40ZM108.777 38.884C109.017 38.884 109.263 38.866 109.515 38.83C109.767 38.782 109.971 38.734 110.127 38.686V39.892C109.959 39.976 109.719 40.042 109.407 40.09C109.095 40.15 108.795 40.18 108.507 40.18C108.003 40.18 107.535 40.096 107.103 39.928C106.683 39.748 106.341 39.442 106.077 39.01C105.813 38.578 105.681 37.972 105.681 37.192V31.576H104.313V30.82L105.699 30.19L106.329 28.138H107.265V30.352H110.055V31.576H107.265V37.156C107.265 37.744 107.403 38.182 107.679 38.47C107.967 38.746 108.333 38.884 108.777 38.884ZM115.713 30.19C116.889 30.19 117.759 30.448 118.323 30.964C118.887 31.48 119.169 32.302 119.169 33.43V40H118.017L117.711 38.632H117.639C117.219 39.16 116.775 39.55 116.307 39.802C115.851 40.054 115.215 40.18 114.399 40.18C113.523 40.18 112.797 39.952 112.221 39.496C111.645 39.028 111.357 38.302 111.357 37.318C111.357 36.358 111.735 35.62 112.491 35.104C113.247 34.576 114.411 34.288 115.983 34.24L117.621 34.186V33.61C117.621 32.806 117.447 32.248 117.099 31.936C116.751 31.624 116.259 31.468 115.623 31.468C115.119 31.468 114.639 31.546 114.183 31.702C113.727 31.846 113.301 32.014 112.905 32.206L112.419 31.018C112.839 30.79 113.337 30.598 113.913 30.442C114.489 30.274 115.089 30.19 115.713 30.19ZM116.181 35.338C114.981 35.386 114.147 35.578 113.679 35.914C113.223 36.25 112.995 36.724 112.995 37.336C112.995 37.876 113.157 38.272 113.481 38.524C113.817 38.776 114.243 38.902 114.759 38.902C115.575 38.902 116.253 38.68 116.793 38.236C117.333 37.78 117.603 37.084 117.603 36.148V35.284L116.181 35.338ZM123.715 33.466C123.715 33.658 123.703 33.91 123.679 34.222C123.667 34.534 123.655 34.804 123.643 35.032H123.715C123.787 34.936 123.895 34.798 124.039 34.618C124.183 34.438 124.327 34.258 124.471 34.078C124.627 33.886 124.759 33.73 124.867 33.61L127.945 30.352H129.799L125.893 34.474L130.069 40H128.161L124.813 35.5L123.715 36.454V40H122.149V26.32H123.715V33.466ZM135.49 30.172C136.318 30.172 137.026 30.352 137.614 30.712C138.214 31.072 138.67 31.582 138.982 32.242C139.306 32.89 139.468 33.652 139.468 34.528V35.482H132.862C132.886 36.574 133.162 37.408 133.69 37.984C134.23 38.548 134.98 38.83 135.94 38.83C136.552 38.83 137.092 38.776 137.56 38.668C138.04 38.548 138.532 38.38 139.036 38.164V39.55C138.544 39.766 138.058 39.922 137.578 40.018C137.098 40.126 136.528 40.18 135.868 40.18C134.956 40.18 134.146 39.994 133.438 39.622C132.742 39.25 132.196 38.698 131.8 37.966C131.416 37.222 131.224 36.316 131.224 35.248C131.224 34.192 131.398 33.286 131.746 32.53C132.106 31.774 132.604 31.192 133.24 30.784C133.888 30.376 134.638 30.172 135.49 30.172ZM135.472 31.468C134.716 31.468 134.116 31.714 133.672 32.206C133.24 32.686 132.982 33.358 132.898 34.222H137.812C137.8 33.406 137.608 32.746 137.236 32.242C136.864 31.726 136.276 31.468 135.472 31.468ZM150.254 30.19C151.43 30.19 152.3 30.448 152.864 30.964C153.428 31.48 153.71 32.302 153.71 33.43V40H152.558L152.252 38.632H152.18C151.76 39.16 151.316 39.55 150.848 39.802C150.392 40.054 149.756 40.18 148.94 40.18C148.064 40.18 147.338 39.952 146.762 39.496C146.186 39.028 145.898 38.302 145.898 37.318C145.898 36.358 146.276 35.62 147.032 35.104C147.788 34.576 148.952 34.288 150.524 34.24L152.162 34.186V33.61C152.162 32.806 151.988 32.248 151.64 31.936C151.292 31.624 150.8 31.468 150.164 31.468C149.66 31.468 149.18 31.546 148.724 31.702C148.268 31.846 147.842 32.014 147.446 32.206L146.96 31.018C147.38 30.79 147.878 30.598 148.454 30.442C149.03 30.274 149.63 30.19 150.254 30.19ZM150.722 35.338C149.522 35.386 148.688 35.578 148.22 35.914C147.764 36.25 147.536 36.724 147.536 37.336C147.536 37.876 147.698 38.272 148.022 38.524C148.358 38.776 148.784 38.902 149.3 38.902C150.116 38.902 150.794 38.68 151.334 38.236C151.874 37.78 152.144 37.084 152.144 36.148V35.284L150.722 35.338ZM167.09 28.39C165.71 28.39 164.624 28.852 163.832 29.776C163.04 30.7 162.644 31.966 162.644 33.574C162.644 35.17 163.01 36.436 163.742 37.372C164.486 38.296 165.596 38.758 167.072 38.758C167.636 38.758 168.17 38.71 168.674 38.614C169.178 38.518 169.67 38.398 170.15 38.254V39.658C169.67 39.838 169.172 39.97 168.656 40.054C168.152 40.138 167.546 40.18 166.838 40.18C165.53 40.18 164.438 39.91 163.562 39.37C162.686 38.83 162.026 38.062 161.582 37.066C161.15 36.07 160.934 34.9 160.934 33.556C160.934 32.26 161.168 31.12 161.636 30.136C162.116 29.14 162.818 28.366 163.742 27.814C164.666 27.25 165.788 26.968 167.108 26.968C168.464 26.968 169.646 27.22 170.654 27.724L170.006 29.092C169.61 28.912 169.166 28.75 168.674 28.606C168.194 28.462 167.666 28.39 167.09 28.39ZM174.323 40H172.739V26.32H174.323V40ZM181.106 30.172C181.934 30.172 182.642 30.352 183.23 30.712C183.83 31.072 184.286 31.582 184.598 32.242C184.922 32.89 185.084 33.652 185.084 34.528V35.482H178.478C178.502 36.574 178.778 37.408 179.306 37.984C179.846 38.548 180.596 38.83 181.556 38.83C182.168 38.83 182.708 38.776 183.176 38.668C183.656 38.548 184.148 38.38 184.652 38.164V39.55C184.16 39.766 183.674 39.922 183.194 40.018C182.714 40.126 182.144 40.18 181.484 40.18C180.572 40.18 179.762 39.994 179.054 39.622C178.358 39.25 177.812 38.698 177.416 37.966C177.032 37.222 176.84 36.316 176.84 35.248C176.84 34.192 177.014 33.286 177.362 32.53C177.722 31.774 178.22 31.192 178.856 30.784C179.504 30.376 180.254 30.172 181.106 30.172ZM181.088 31.468C180.332 31.468 179.732 31.714 179.288 32.206C178.856 32.686 178.598 33.358 178.514 34.222H183.428C183.416 33.406 183.224 32.746 182.852 32.242C182.48 31.726 181.892 31.468 181.088 31.468ZM192.04 30.172C192.22 30.172 192.412 30.184 192.616 30.208C192.832 30.22 193.018 30.244 193.174 30.28L192.976 31.738C192.82 31.702 192.646 31.672 192.454 31.648C192.274 31.624 192.1 31.612 191.932 31.612C191.44 31.612 190.978 31.75 190.546 32.026C190.114 32.29 189.766 32.668 189.502 33.16C189.25 33.64 189.124 34.204 189.124 34.852V40H187.54V30.352H188.836L189.016 32.116H189.088C189.4 31.588 189.802 31.132 190.294 30.748C190.786 30.364 191.368 30.172 192.04 30.172ZM196.541 33.466C196.541 33.658 196.529 33.91 196.505 34.222C196.493 34.534 196.481 34.804 196.469 35.032H196.541C196.613 34.936 196.721 34.798 196.865 34.618C197.009 34.438 197.153 34.258 197.297 34.078C197.453 33.886 197.585 33.73 197.693 33.61L200.771 30.352H202.625L198.719 34.474L202.895 40H200.987L197.639 35.5L196.541 36.454V40H194.975V26.32H196.541V33.466ZM210.873 37.336C210.873 38.272 210.525 38.98 209.829 39.46C209.133 39.94 208.197 40.18 207.021 40.18C206.349 40.18 205.767 40.126 205.275 40.018C204.795 39.91 204.369 39.76 203.997 39.568V38.128C204.381 38.32 204.843 38.5 205.383 38.668C205.935 38.824 206.493 38.902 207.057 38.902C207.861 38.902 208.443 38.776 208.803 38.524C209.163 38.26 209.343 37.912 209.343 37.48C209.343 37.24 209.277 37.024 209.145 36.832C209.013 36.64 208.773 36.448 208.425 36.256C208.089 36.064 207.603 35.848 206.967 35.608C206.343 35.368 205.809 35.128 205.365 34.888C204.921 34.648 204.579 34.36 204.339 34.024C204.099 33.688 203.979 33.256 203.979 32.728C203.979 31.912 204.309 31.282 204.969 30.838C205.641 30.394 206.517 30.172 207.597 30.172C208.185 30.172 208.731 30.232 209.235 30.352C209.751 30.46 210.231 30.616 210.675 30.82L210.135 32.08C209.727 31.912 209.301 31.768 208.857 31.648C208.413 31.528 207.957 31.468 207.489 31.468C206.841 31.468 206.343 31.576 205.995 31.792C205.659 31.996 205.491 32.278 205.491 32.638C205.491 32.902 205.569 33.13 205.725 33.322C205.881 33.502 206.139 33.682 206.499 33.862C206.871 34.03 207.363 34.234 207.975 34.474C208.587 34.702 209.109 34.936 209.541 35.176C209.973 35.416 210.303 35.71 210.531 36.058C210.759 36.394 210.873 36.82 210.873 37.336ZM211.692 30.352H213.384L215.472 35.842C215.652 36.322 215.814 36.784 215.958 37.228C216.102 37.66 216.21 38.074 216.282 38.47H216.354C216.426 38.17 216.54 37.78 216.696 37.3C216.852 36.808 217.014 36.316 217.182 35.824L219.144 30.352H220.854L216.696 41.332C216.36 42.244 215.922 42.97 215.382 43.51C214.854 44.05 214.122 44.32 213.186 44.32C212.898 44.32 212.646 44.302 212.43 44.266C212.214 44.242 212.028 44.212 211.872 44.176V42.916C212.004 42.94 212.16 42.964 212.34 42.988C212.532 43.012 212.73 43.024 212.934 43.024C213.486 43.024 213.93 42.868 214.266 42.556C214.614 42.244 214.884 41.83 215.076 41.314L215.58 40.036L211.692 30.352ZM231.555 30.172C231.735 30.172 231.927 30.184 232.131 30.208C232.347 30.22 232.533 30.244 232.689 30.28L232.491 31.738C232.335 31.702 232.161 31.672 231.969 31.648C231.789 31.624 231.615 31.612 231.447 31.612C230.955 31.612 230.493 31.75 230.061 32.026C229.629 32.29 229.281 32.668 229.017 33.16C228.765 33.64 228.639 34.204 228.639 34.852V40H227.055V30.352H228.351L228.531 32.116H228.603C228.915 31.588 229.317 31.132 229.809 30.748C230.301 30.364 230.883 30.172 231.555 30.172ZM237.865 30.172C238.693 30.172 239.401 30.352 239.989 30.712C240.589 31.072 241.045 31.582 241.357 32.242C241.681 32.89 241.843 33.652 241.843 34.528V35.482H235.237C235.261 36.574 235.537 37.408 236.065 37.984C236.605 38.548 237.355 38.83 238.315 38.83C238.927 38.83 239.467 38.776 239.935 38.668C240.415 38.548 240.907 38.38 241.411 38.164V39.55C240.919 39.766 240.433 39.922 239.953 40.018C239.473 40.126 238.903 40.18 238.243 40.18C237.331 40.18 236.521 39.994 235.813 39.622C235.117 39.25 234.571 38.698 234.175 37.966C233.791 37.222 233.599 36.316 233.599 35.248C233.599 34.192 233.773 33.286 234.121 32.53C234.481 31.774 234.979 31.192 235.615 30.784C236.263 30.376 237.013 30.172 237.865 30.172ZM237.847 31.468C237.091 31.468 236.491 31.714 236.047 32.206C235.615 32.686 235.357 33.358 235.273 34.222H240.187C240.175 33.406 239.983 32.746 239.611 32.242C239.239 31.726 238.651 31.468 237.847 31.468ZM248.89 30.172C250.078 30.172 251.032 30.586 251.752 31.414C252.484 32.242 252.85 33.49 252.85 35.158C252.85 36.802 252.484 38.05 251.752 38.902C251.032 39.754 250.072 40.18 248.872 40.18C248.128 40.18 247.51 40.042 247.018 39.766C246.538 39.478 246.16 39.148 245.884 38.776H245.776C245.8 38.98 245.824 39.238 245.848 39.55C245.872 39.862 245.884 40.132 245.884 40.36V44.32H244.3V30.352H245.596L245.812 31.666H245.884C246.172 31.246 246.55 30.892 247.018 30.604C247.486 30.316 248.11 30.172 248.89 30.172ZM248.602 31.504C247.618 31.504 246.922 31.78 246.514 32.332C246.118 32.884 245.908 33.724 245.884 34.852V35.158C245.884 36.346 246.076 37.264 246.46 37.912C246.856 38.548 247.582 38.866 248.638 38.866C249.226 38.866 249.706 38.704 250.078 38.38C250.462 38.056 250.744 37.618 250.924 37.066C251.116 36.502 251.212 35.86 251.212 35.14C251.212 34.036 250.996 33.154 250.564 32.494C250.144 31.834 249.49 31.504 248.602 31.504ZM83.834 65.884C84.074 65.884 84.32 65.866 84.572 65.83C84.824 65.782 85.028 65.734 85.184 65.686V66.892C85.016 66.976 84.776 67.042 84.464 67.09C84.152 67.15 83.852 67.18 83.564 67.18C83.06 67.18 82.592 67.096 82.16 66.928C81.74 66.748 81.398 66.442 81.134 66.01C80.87 65.578 80.738 64.972 80.738 64.192V58.576H79.37V57.82L80.756 57.19L81.386 55.138H82.322V57.352H85.112V58.576H82.322V64.156C82.322 64.744 82.46 65.182 82.736 65.47C83.024 65.746 83.39 65.884 83.834 65.884ZM95.5039 62.158C95.5039 63.754 95.0959 64.99 94.2799 65.866C93.4759 66.742 92.3839 67.18 91.0039 67.18C90.1519 67.18 89.3899 66.988 88.7179 66.604C88.0579 66.208 87.5359 65.638 87.1519 64.894C86.7679 64.138 86.5759 63.226 86.5759 62.158C86.5759 60.562 86.9779 59.332 87.7819 58.468C88.5859 57.604 89.6779 57.172 91.0579 57.172C91.9339 57.172 92.7019 57.37 93.3619 57.766C94.0339 58.15 94.5559 58.714 94.9279 59.458C95.3119 60.19 95.5039 61.09 95.5039 62.158ZM88.2139 62.158C88.2139 63.298 88.4359 64.204 88.8799 64.876C89.3359 65.536 90.0559 65.866 91.0399 65.866C92.0119 65.866 92.7259 65.536 93.1819 64.876C93.6379 64.204 93.8659 63.298 93.8659 62.158C93.8659 61.018 93.6379 60.124 93.1819 59.476C92.7259 58.828 92.0059 58.504 91.0219 58.504C90.0379 58.504 89.3239 58.828 88.8799 59.476C88.4359 60.124 88.2139 61.018 88.2139 62.158ZM107.136 58.576H104.706V67H103.122V58.576H101.43V57.838L103.122 57.298V56.74C103.122 55.492 103.398 54.598 103.95 54.058C104.502 53.506 105.27 53.23 106.254 53.23C106.638 53.23 106.986 53.266 107.298 53.338C107.622 53.398 107.898 53.47 108.126 53.554L107.712 54.796C107.52 54.736 107.298 54.676 107.046 54.616C106.794 54.556 106.536 54.526 106.272 54.526C105.744 54.526 105.348 54.706 105.084 55.066C104.832 55.414 104.706 55.966 104.706 56.722V57.352H107.136V58.576ZM117.266 62.158C117.266 63.754 116.858 64.99 116.042 65.866C115.238 66.742 114.146 67.18 112.766 67.18C111.914 67.18 111.152 66.988 110.48 66.604C109.82 66.208 109.298 65.638 108.914 64.894C108.53 64.138 108.338 63.226 108.338 62.158C108.338 60.562 108.74 59.332 109.544 58.468C110.348 57.604 111.44 57.172 112.82 57.172C113.696 57.172 114.464 57.37 115.124 57.766C115.796 58.15 116.318 58.714 116.69 59.458C117.074 60.19 117.266 61.09 117.266 62.158ZM109.976 62.158C109.976 63.298 110.198 64.204 110.642 64.876C111.098 65.536 111.818 65.866 112.802 65.866C113.774 65.866 114.488 65.536 114.944 64.876C115.4 64.204 115.628 63.298 115.628 62.158C115.628 61.018 115.4 60.124 114.944 59.476C114.488 58.828 113.768 58.504 112.784 58.504C111.8 58.504 111.086 58.828 110.642 59.476C110.198 60.124 109.976 61.018 109.976 62.158ZM121.36 67H119.776V53.32H121.36V67ZM126.001 67H124.417V53.32H126.001V67ZM137.445 62.158C137.445 63.754 137.037 64.99 136.221 65.866C135.417 66.742 134.325 67.18 132.945 67.18C132.093 67.18 131.331 66.988 130.659 66.604C129.999 66.208 129.477 65.638 129.093 64.894C128.709 64.138 128.517 63.226 128.517 62.158C128.517 60.562 128.919 59.332 129.723 58.468C130.527 57.604 131.619 57.172 132.999 57.172C133.875 57.172 134.643 57.37 135.303 57.766C135.975 58.15 136.497 58.714 136.869 59.458C137.253 60.19 137.445 61.09 137.445 62.158ZM130.155 62.158C130.155 63.298 130.377 64.204 130.821 64.876C131.277 65.536 131.997 65.866 132.981 65.866C133.953 65.866 134.667 65.536 135.123 64.876C135.579 64.204 135.807 63.298 135.807 62.158C135.807 61.018 135.579 60.124 135.123 59.476C134.667 58.828 133.947 58.504 132.963 58.504C131.979 58.504 131.265 58.828 130.821 59.476C130.377 60.124 130.155 61.018 130.155 62.158ZM145.832 61.546C145.676 61.054 145.538 60.574 145.418 60.106C145.31 59.626 145.226 59.254 145.166 58.99H145.094C145.046 59.254 144.968 59.626 144.86 60.106C144.752 60.574 144.614 61.06 144.446 61.564L142.718 66.982H140.918L138.272 57.334H139.91L141.242 62.482C141.374 62.998 141.5 63.52 141.62 64.048C141.74 64.576 141.824 65.014 141.872 65.362H141.944C141.992 65.158 142.046 64.906 142.106 64.606C142.178 64.306 142.256 63.994 142.34 63.67C142.424 63.334 142.508 63.034 142.592 62.77L144.302 57.334H146.03L147.686 62.77C147.818 63.178 147.944 63.622 148.064 64.102C148.196 64.582 148.286 64.996 148.334 65.344H148.406C148.442 65.044 148.52 64.63 148.64 64.102C148.772 63.574 148.91 63.034 149.054 62.482L150.404 57.334H152.024L149.342 66.982H147.488L145.832 61.546ZM166.494 57.352V67H165.198L164.964 65.722H164.892C164.58 66.226 164.148 66.598 163.596 66.838C163.044 67.066 162.456 67.18 161.832 67.18C160.668 67.18 159.792 66.904 159.204 66.352C158.616 65.788 158.322 64.894 158.322 63.67V57.352H159.924V63.562C159.924 65.098 160.638 65.866 162.066 65.866C163.134 65.866 163.872 65.566 164.28 64.966C164.7 64.366 164.91 63.502 164.91 62.374V57.352H166.494ZM174.147 57.172C175.335 57.172 176.289 57.586 177.009 58.414C177.741 59.242 178.107 60.49 178.107 62.158C178.107 63.802 177.741 65.05 177.009 65.902C176.289 66.754 175.329 67.18 174.129 67.18C173.385 67.18 172.767 67.042 172.275 66.766C171.795 66.478 171.417 66.148 171.141 65.776H171.033C171.057 65.98 171.081 66.238 171.105 66.55C171.129 66.862 171.141 67.132 171.141 67.36V71.32H169.557V57.352H170.853L171.069 58.666H171.141C171.429 58.246 171.807 57.892 172.275 57.604C172.743 57.316 173.367 57.172 174.147 57.172ZM173.859 58.504C172.875 58.504 172.179 58.78 171.771 59.332C171.375 59.884 171.165 60.724 171.141 61.852V62.158C171.141 63.346 171.333 64.264 171.717 64.912C172.113 65.548 172.839 65.866 173.895 65.866C174.483 65.866 174.963 65.704 175.335 65.38C175.719 65.056 176.001 64.618 176.181 64.066C176.373 63.502 176.469 62.86 176.469 62.14C176.469 61.036 176.253 60.154 175.821 59.494C175.401 58.834 174.747 58.504 173.859 58.504ZM180.398 58.324C180.398 57.868 180.506 57.55 180.722 57.37C180.938 57.19 181.196 57.1 181.496 57.1C181.808 57.1 182.072 57.19 182.288 57.37C182.516 57.55 182.63 57.868 182.63 58.324C182.63 58.756 182.516 59.068 182.288 59.26C182.072 59.452 181.808 59.548 181.496 59.548C181.196 59.548 180.938 59.452 180.722 59.26C180.506 59.068 180.398 58.756 180.398 58.324ZM180.398 66.028C180.398 65.584 180.506 65.272 180.722 65.092C180.938 64.912 181.196 64.822 181.496 64.822C181.808 64.822 182.072 64.912 182.288 65.092C182.516 65.272 182.63 65.584 182.63 66.028C182.63 66.46 182.516 66.772 182.288 66.964C182.072 67.156 181.808 67.252 181.496 67.252C181.196 67.252 180.938 67.156 180.722 66.964C180.506 66.772 180.398 66.46 180.398 66.028Z" fill="#163A24"/>
<g clip-path="url(#clip0_1_1331)">
<path d="M296.506 60.7339C302.355 65.6712 309.434 68.9195 316.968 70.0901C324.904 71.3233 333.897 71.2652 341.029 69.5227C345.915 68.3252 346.609 68.1063 347.834 67.3422C345.725 64.7239 338.814 60.2915 339.208 54.9164C339.292 53.7368 340.645 53.1246 341.578 53.8351C347.467 58.3255 359.718 65.6846 364.9 70.2867C365.444 70.7693 366.037 71.359 366.001 72.0918C365.97 72.8023 365.365 73.325 364.808 73.7584C357.747 79.214 350.332 84.205 342.634 88.6909C341.577 89.3075 340.172 88.9768 339.597 87.8866C339.093 86.9394 339.632 86.2067 340.141 85.5543C342.546 82.4668 344.951 79.3794 347.356 76.2874C334.994 81.5643 320.549 81.3364 308.187 76.1489C301.25 73.2401 295.485 67.999 292.102 61.2298C290.289 57.5928 290.077 55.3096 296.506 60.7339Z" fill="#FBC8B8"/>
</g>
<defs>
<clipPath id="clip0_1_1331">
<rect width="75" height="36" fill="white" transform="translate(291 53)"/>
</clipPath>
</defs>
</svg>
