<svg width="274" height="133" viewBox="0 0 274 133" fill="none" xmlns="http://www.w3.org/2000/svg">
<path d="M32.936 54H26.552V42.576H32.936V43.84H27.992V47.408H32.648V48.656H27.992V52.736H32.936V54ZM44.6586 45.264C45.6293 45.264 46.3546 45.5147 46.8346 46.016C47.3146 46.5067 47.5546 47.3067 47.5546 48.416V54H46.1626V48.48C46.1626 47.1253 45.5813 46.448 44.4186 46.448C43.5866 46.448 42.9893 46.688 42.6266 47.168C42.2746 47.648 42.0986 48.3467 42.0986 49.264V54H40.7066V48.48C40.7066 47.1253 40.12 46.448 38.9466 46.448C38.0826 46.448 37.4853 46.7147 37.1546 47.248C36.824 47.7813 36.6586 48.5493 36.6586 49.552V54H35.2506V45.424H36.3866L36.5946 46.592H36.6746C36.9413 46.144 37.2986 45.8133 37.7466 45.6C38.2053 45.376 38.6906 45.264 39.2026 45.264C40.5466 45.264 41.4213 45.744 41.8266 46.704H41.9066C42.1946 46.2133 42.584 45.8507 43.0746 45.616C43.576 45.3813 44.104 45.264 44.6586 45.264ZM54.2838 45.264C55.3398 45.264 56.1878 45.632 56.8278 46.368C57.4784 47.104 57.8038 48.2133 57.8038 49.696C57.8038 51.1573 57.4784 52.2667 56.8278 53.024C56.1878 53.7813 55.3344 54.16 54.2678 54.16C53.6064 54.16 53.0571 54.0373 52.6198 53.792C52.1931 53.536 51.8571 53.2427 51.6118 52.912H51.5158C51.5371 53.0933 51.5584 53.3227 51.5798 53.6C51.6011 53.8773 51.6118 54.1173 51.6118 54.32V57.84H50.2038V45.424H51.3558L51.5478 46.592H51.6118C51.8678 46.2187 52.2038 45.904 52.6198 45.648C53.0358 45.392 53.5904 45.264 54.2838 45.264ZM54.0278 46.448C53.1531 46.448 52.5344 46.6933 52.1718 47.184C51.8198 47.6747 51.6331 48.4213 51.6118 49.424V49.696C51.6118 50.752 51.7824 51.568 52.1238 52.144C52.4758 52.7093 53.1211 52.992 54.0598 52.992C54.5824 52.992 55.0091 52.848 55.3398 52.56C55.6811 52.272 55.9318 51.8827 56.0918 51.392C56.2624 50.8907 56.3478 50.32 56.3478 49.68C56.3478 48.6987 56.1558 47.9147 55.7718 47.328C55.3984 46.7413 54.8171 46.448 54.0278 46.448ZM61.4555 54H60.0475V41.84H61.4555V54ZM71.6285 49.696C71.6285 51.1147 71.2658 52.2133 70.5405 52.992C69.8258 53.7707 68.8552 54.16 67.6285 54.16C66.8712 54.16 66.1938 53.9893 65.5965 53.648C65.0098 53.296 64.5458 52.7893 64.2045 52.128C63.8632 51.456 63.6925 50.6453 63.6925 49.696C63.6925 48.2773 64.0498 47.184 64.7645 46.416C65.4792 45.648 66.4498 45.264 67.6765 45.264C68.4552 45.264 69.1378 45.44 69.7245 45.792C70.3218 46.1333 70.7858 46.6347 71.1165 47.296C71.4578 47.9467 71.6285 48.7467 71.6285 49.696ZM65.1485 49.696C65.1485 50.7093 65.3458 51.5147 65.7405 52.112C66.1458 52.6987 66.7858 52.992 67.6605 52.992C68.5245 52.992 69.1592 52.6987 69.5645 52.112C69.9698 51.5147 70.1725 50.7093 70.1725 49.696C70.1725 48.6827 69.9698 47.888 69.5645 47.312C69.1592 46.736 68.5192 46.448 67.6445 46.448C66.7698 46.448 66.1352 46.736 65.7405 47.312C65.3458 47.888 65.1485 48.6827 65.1485 49.696ZM72.2035 45.424H73.7075L75.5635 50.304C75.7235 50.7307 75.8675 51.1413 75.9955 51.536C76.1235 51.92 76.2195 52.288 76.2835 52.64H76.3475C76.4115 52.3733 76.5128 52.0267 76.6515 51.6C76.7902 51.1627 76.9342 50.7253 77.0835 50.288L78.8275 45.424H80.3475L76.6515 55.184C76.3528 55.9947 75.9635 56.64 75.4835 57.12C75.0142 57.6 74.3635 57.84 73.5315 57.84C73.2755 57.84 73.0515 57.824 72.8595 57.792C72.6675 57.7707 72.5022 57.744 72.3635 57.712V56.592C72.4808 56.6133 72.6195 56.6347 72.7795 56.656C72.9502 56.6773 73.1262 56.688 73.3075 56.688C73.7982 56.688 74.1928 56.5493 74.4915 56.272C74.8008 55.9947 75.0408 55.6267 75.2115 55.168L75.6595 54.032L72.2035 45.424ZM85.0158 45.264C85.7518 45.264 86.3811 45.424 86.9038 45.744C87.4371 46.064 87.8424 46.5173 88.1198 47.104C88.4078 47.68 88.5518 48.3573 88.5518 49.136V49.984H82.6798C82.7011 50.9547 82.9464 51.696 83.4158 52.208C83.8958 52.7093 84.5624 52.96 85.4158 52.96C85.9598 52.96 86.4398 52.912 86.8558 52.816C87.2824 52.7093 87.7198 52.56 88.1678 52.368V53.6C87.7304 53.792 87.2984 53.9307 86.8718 54.016C86.4451 54.112 85.9384 54.16 85.3518 54.16C84.5411 54.16 83.8211 53.9947 83.1918 53.664C82.5731 53.3333 82.0878 52.8427 81.7358 52.192C81.3944 51.5307 81.2238 50.7253 81.2238 49.776C81.2238 48.8373 81.3784 48.032 81.6878 47.36C82.0078 46.688 82.4504 46.1707 83.0158 45.808C83.5918 45.4453 84.2584 45.264 85.0158 45.264ZM84.9998 46.416C84.3278 46.416 83.7944 46.6347 83.3998 47.072C83.0158 47.4987 82.7864 48.096 82.7118 48.864H87.0798C87.0691 48.1387 86.8984 47.552 86.5678 47.104C86.2371 46.6453 85.7144 46.416 84.9998 46.416ZM94.047 45.264C94.783 45.264 95.4123 45.424 95.935 45.744C96.4683 46.064 96.8737 46.5173 97.151 47.104C97.439 47.68 97.583 48.3573 97.583 49.136V49.984H91.711C91.7323 50.9547 91.9777 51.696 92.447 52.208C92.927 52.7093 93.5937 52.96 94.447 52.96C94.991 52.96 95.471 52.912 95.887 52.816C96.3137 52.7093 96.751 52.56 97.199 52.368V53.6C96.7617 53.792 96.3297 53.9307 95.903 54.016C95.4763 54.112 94.9697 54.16 94.383 54.16C93.5723 54.16 92.8523 53.9947 92.223 53.664C91.6043 53.3333 91.119 52.8427 90.767 52.192C90.4257 51.5307 90.255 50.7253 90.255 49.776C90.255 48.8373 90.4097 48.032 90.719 47.36C91.039 46.688 91.4817 46.1707 92.047 45.808C92.623 45.4453 93.2897 45.264 94.047 45.264ZM94.031 46.416C93.359 46.416 92.8257 46.6347 92.431 47.072C92.047 47.4987 91.8177 48.096 91.743 48.864H96.111C96.1003 48.1387 95.9297 47.552 95.599 47.104C95.2683 46.6453 94.7457 46.416 94.031 46.416ZM107.266 42.576C108.685 42.576 109.731 42.848 110.403 43.392C111.085 43.9253 111.427 44.736 111.427 45.824C111.427 46.432 111.315 46.9387 111.091 47.344C110.867 47.7493 110.579 48.0747 110.227 48.32C109.885 48.5547 109.523 48.7413 109.139 48.88L112.275 54H110.595L107.827 49.28H105.555V54H104.115V42.576H107.266ZM107.187 43.824H105.555V48.064H107.266C108.195 48.064 108.872 47.8827 109.299 47.52C109.725 47.1467 109.939 46.6027 109.939 45.888C109.939 45.1413 109.715 44.6133 109.267 44.304C108.819 43.984 108.125 43.824 107.187 43.824ZM117.188 45.264C117.924 45.264 118.553 45.424 119.076 45.744C119.609 46.064 120.014 46.5173 120.292 47.104C120.58 47.68 120.724 48.3573 120.724 49.136V49.984H114.852C114.873 50.9547 115.118 51.696 115.588 52.208C116.068 52.7093 116.734 52.96 117.588 52.96C118.132 52.96 118.612 52.912 119.028 52.816C119.454 52.7093 119.892 52.56 120.34 52.368V53.6C119.902 53.792 119.47 53.9307 119.044 54.016C118.617 54.112 118.11 54.16 117.524 54.16C116.713 54.16 115.993 53.9947 115.364 53.664C114.745 53.3333 114.26 52.8427 113.908 52.192C113.566 51.5307 113.396 50.7253 113.396 49.776C113.396 48.8373 113.55 48.032 113.86 47.36C114.18 46.688 114.622 46.1707 115.188 45.808C115.764 45.4453 116.43 45.264 117.188 45.264ZM117.172 46.416C116.5 46.416 115.966 46.6347 115.572 47.072C115.188 47.4987 114.958 48.096 114.884 48.864H119.252C119.241 48.1387 119.07 47.552 118.74 47.104C118.409 46.6453 117.886 46.416 117.172 46.416ZM124.315 54H122.907V41.84H124.315V54ZM130.28 45.28C131.325 45.28 132.099 45.5093 132.6 45.968C133.101 46.4267 133.352 47.1573 133.352 48.16V54H132.328L132.056 52.784H131.992C131.619 53.2533 131.224 53.6 130.808 53.824C130.403 54.048 129.837 54.16 129.112 54.16C128.333 54.16 127.688 53.9573 127.176 53.552C126.664 53.136 126.408 52.4907 126.408 51.616C126.408 50.7627 126.744 50.1067 127.416 49.648C128.088 49.1787 129.123 48.9227 130.52 48.88L131.976 48.832V48.32C131.976 47.6053 131.821 47.1093 131.512 46.832C131.203 46.5547 130.765 46.416 130.2 46.416C129.752 46.416 129.325 46.4853 128.92 46.624C128.515 46.752 128.136 46.9013 127.784 47.072L127.352 46.016C127.725 45.8133 128.168 45.6427 128.68 45.504C129.192 45.3547 129.725 45.28 130.28 45.28ZM130.696 49.856C129.629 49.8987 128.888 50.0693 128.472 50.368C128.067 50.6667 127.864 51.088 127.864 51.632C127.864 52.112 128.008 52.464 128.296 52.688C128.595 52.912 128.973 53.024 129.432 53.024C130.157 53.024 130.76 52.8267 131.24 52.432C131.72 52.0267 131.96 51.408 131.96 50.576V49.808L130.696 49.856ZM138.865 53.008C139.078 53.008 139.297 52.992 139.521 52.96C139.745 52.9173 139.926 52.8747 140.065 52.832V53.904C139.915 53.9787 139.702 54.0373 139.425 54.08C139.147 54.1333 138.881 54.16 138.625 54.16C138.177 54.16 137.761 54.0853 137.377 53.936C137.003 53.776 136.699 53.504 136.465 53.12C136.23 52.736 136.113 52.1973 136.113 51.504V46.512H134.897V45.84L136.129 45.28L136.689 43.456H137.521V45.424H140.001V46.512H137.521V51.472C137.521 51.9947 137.643 52.384 137.889 52.64C138.145 52.8853 138.47 53.008 138.865 53.008ZM142.502 42.208C142.715 42.208 142.902 42.2827 143.062 42.432C143.233 42.5707 143.318 42.7947 143.318 43.104C143.318 43.4027 143.233 43.6267 143.062 43.776C142.902 43.9253 142.715 44 142.502 44C142.267 44 142.07 43.9253 141.91 43.776C141.75 43.6267 141.67 43.4027 141.67 43.104C141.67 42.7947 141.75 42.5707 141.91 42.432C142.07 42.2827 142.267 42.208 142.502 42.208ZM143.19 45.424V54H141.782V45.424H143.19ZM153.363 49.696C153.363 51.1147 153 52.2133 152.275 52.992C151.56 53.7707 150.59 54.16 149.363 54.16C148.606 54.16 147.928 53.9893 147.331 53.648C146.744 53.296 146.28 52.7893 145.939 52.128C145.598 51.456 145.427 50.6453 145.427 49.696C145.427 48.2773 145.784 47.184 146.499 46.416C147.214 45.648 148.184 45.264 149.411 45.264C150.19 45.264 150.872 45.44 151.459 45.792C152.056 46.1333 152.52 46.6347 152.851 47.296C153.192 47.9467 153.363 48.7467 153.363 49.696ZM146.883 49.696C146.883 50.7093 147.08 51.5147 147.475 52.112C147.88 52.6987 148.52 52.992 149.395 52.992C150.259 52.992 150.894 52.6987 151.299 52.112C151.704 51.5147 151.907 50.7093 151.907 49.696C151.907 48.6827 151.704 47.888 151.299 47.312C150.894 46.736 150.254 46.448 149.379 46.448C148.504 46.448 147.87 46.736 147.475 47.312C147.08 47.888 146.883 48.6827 146.883 49.696ZM159.722 45.264C160.746 45.264 161.52 45.5147 162.042 46.016C162.565 46.5067 162.826 47.3067 162.826 48.416V54H161.434V48.512C161.434 47.136 160.794 46.448 159.514 46.448C158.565 46.448 157.909 46.7147 157.546 47.248C157.184 47.7813 157.002 48.5493 157.002 49.552V54H155.594V45.424H156.73L156.938 46.592H157.018C157.296 46.144 157.68 45.8133 158.17 45.6C158.661 45.376 159.178 45.264 159.722 45.264ZM171.069 51.632C171.069 52.464 170.76 53.0933 170.141 53.52C169.522 53.9467 168.69 54.16 167.645 54.16C167.048 54.16 166.53 54.112 166.093 54.016C165.666 53.92 165.288 53.7867 164.957 53.616V52.336C165.298 52.5067 165.709 52.6667 166.189 52.816C166.68 52.9547 167.176 53.024 167.677 53.024C168.392 53.024 168.909 52.912 169.229 52.688C169.549 52.4533 169.709 52.144 169.709 51.76C169.709 51.5467 169.65 51.3547 169.533 51.184C169.416 51.0133 169.202 50.8427 168.893 50.672C168.594 50.5013 168.162 50.3093 167.597 50.096C167.042 49.8827 166.568 49.6693 166.173 49.456C165.778 49.2427 165.474 48.9867 165.261 48.688C165.048 48.3893 164.941 48.0053 164.941 47.536C164.941 46.8107 165.234 46.2507 165.821 45.856C166.418 45.4613 167.197 45.264 168.157 45.264C168.68 45.264 169.165 45.3173 169.613 45.424C170.072 45.52 170.498 45.6587 170.893 45.84L170.413 46.96C170.05 46.8107 169.672 46.6827 169.277 46.576C168.882 46.4693 168.477 46.416 168.061 46.416C167.485 46.416 167.042 46.512 166.733 46.704C166.434 46.8853 166.285 47.136 166.285 47.456C166.285 47.6907 166.354 47.8933 166.493 48.064C166.632 48.224 166.861 48.384 167.181 48.544C167.512 48.6933 167.949 48.8747 168.493 49.088C169.037 49.2907 169.501 49.4987 169.885 49.712C170.269 49.9253 170.562 50.1867 170.765 50.496C170.968 50.7947 171.069 51.1733 171.069 51.632Z" fill="#163A24"/>
<path d="M32.936 128H26.552V116.576H32.936V117.84H27.992V121.408H32.648V122.656H27.992V126.736H32.936V128ZM44.6586 119.264C45.6293 119.264 46.3546 119.515 46.8346 120.016C47.3146 120.507 47.5546 121.307 47.5546 122.416V128H46.1626V122.48C46.1626 121.125 45.5813 120.448 44.4186 120.448C43.5866 120.448 42.9893 120.688 42.6266 121.168C42.2746 121.648 42.0986 122.347 42.0986 123.264V128H40.7066V122.48C40.7066 121.125 40.12 120.448 38.9466 120.448C38.0826 120.448 37.4853 120.715 37.1546 121.248C36.824 121.781 36.6586 122.549 36.6586 123.552V128H35.2506V119.424H36.3866L36.5946 120.592H36.6746C36.9413 120.144 37.2986 119.813 37.7466 119.6C38.2053 119.376 38.6906 119.264 39.2026 119.264C40.5466 119.264 41.4213 119.744 41.8266 120.704H41.9066C42.1946 120.213 42.584 119.851 43.0746 119.616C43.576 119.381 44.104 119.264 44.6586 119.264ZM54.2838 119.264C55.3398 119.264 56.1878 119.632 56.8278 120.368C57.4784 121.104 57.8038 122.213 57.8038 123.696C57.8038 125.157 57.4784 126.267 56.8278 127.024C56.1878 127.781 55.3344 128.16 54.2678 128.16C53.6064 128.16 53.0571 128.037 52.6198 127.792C52.1931 127.536 51.8571 127.243 51.6118 126.912H51.5158C51.5371 127.093 51.5584 127.323 51.5798 127.6C51.6011 127.877 51.6118 128.117 51.6118 128.32V131.84H50.2038V119.424H51.3558L51.5478 120.592H51.6118C51.8678 120.219 52.2038 119.904 52.6198 119.648C53.0358 119.392 53.5904 119.264 54.2838 119.264ZM54.0278 120.448C53.1531 120.448 52.5344 120.693 52.1718 121.184C51.8198 121.675 51.6331 122.421 51.6118 123.424V123.696C51.6118 124.752 51.7824 125.568 52.1238 126.144C52.4758 126.709 53.1211 126.992 54.0598 126.992C54.5824 126.992 55.0091 126.848 55.3398 126.56C55.6811 126.272 55.9318 125.883 56.0918 125.392C56.2624 124.891 56.3478 124.32 56.3478 123.68C56.3478 122.699 56.1558 121.915 55.7718 121.328C55.3984 120.741 54.8171 120.448 54.0278 120.448ZM61.4555 128H60.0475V115.84H61.4555V128ZM71.6285 123.696C71.6285 125.115 71.2658 126.213 70.5405 126.992C69.8258 127.771 68.8552 128.16 67.6285 128.16C66.8712 128.16 66.1938 127.989 65.5965 127.648C65.0098 127.296 64.5458 126.789 64.2045 126.128C63.8632 125.456 63.6925 124.645 63.6925 123.696C63.6925 122.277 64.0498 121.184 64.7645 120.416C65.4792 119.648 66.4498 119.264 67.6765 119.264C68.4552 119.264 69.1378 119.44 69.7245 119.792C70.3218 120.133 70.7858 120.635 71.1165 121.296C71.4578 121.947 71.6285 122.747 71.6285 123.696ZM65.1485 123.696C65.1485 124.709 65.3458 125.515 65.7405 126.112C66.1458 126.699 66.7858 126.992 67.6605 126.992C68.5245 126.992 69.1592 126.699 69.5645 126.112C69.9698 125.515 70.1725 124.709 70.1725 123.696C70.1725 122.683 69.9698 121.888 69.5645 121.312C69.1592 120.736 68.5192 120.448 67.6445 120.448C66.7698 120.448 66.1352 120.736 65.7405 121.312C65.3458 121.888 65.1485 122.683 65.1485 123.696ZM72.2035 119.424H73.7075L75.5635 124.304C75.7235 124.731 75.8675 125.141 75.9955 125.536C76.1235 125.92 76.2195 126.288 76.2835 126.64H76.3475C76.4115 126.373 76.5128 126.027 76.6515 125.6C76.7902 125.163 76.9342 124.725 77.0835 124.288L78.8275 119.424H80.3475L76.6515 129.184C76.3528 129.995 75.9635 130.64 75.4835 131.12C75.0142 131.6 74.3635 131.84 73.5315 131.84C73.2755 131.84 73.0515 131.824 72.8595 131.792C72.6675 131.771 72.5022 131.744 72.3635 131.712V130.592C72.4808 130.613 72.6195 130.635 72.7795 130.656C72.9502 130.677 73.1262 130.688 73.3075 130.688C73.7982 130.688 74.1928 130.549 74.4915 130.272C74.8008 129.995 75.0408 129.627 75.2115 129.168L75.6595 128.032L72.2035 119.424ZM85.0158 119.264C85.7518 119.264 86.3811 119.424 86.9038 119.744C87.4371 120.064 87.8424 120.517 88.1198 121.104C88.4078 121.68 88.5518 122.357 88.5518 123.136V123.984H82.6798C82.7011 124.955 82.9464 125.696 83.4158 126.208C83.8958 126.709 84.5624 126.96 85.4158 126.96C85.9598 126.96 86.4398 126.912 86.8558 126.816C87.2824 126.709 87.7198 126.56 88.1678 126.368V127.6C87.7304 127.792 87.2984 127.931 86.8718 128.016C86.4451 128.112 85.9384 128.16 85.3518 128.16C84.5411 128.16 83.8211 127.995 83.1918 127.664C82.5731 127.333 82.0878 126.843 81.7358 126.192C81.3944 125.531 81.2238 124.725 81.2238 123.776C81.2238 122.837 81.3784 122.032 81.6878 121.36C82.0078 120.688 82.4504 120.171 83.0158 119.808C83.5918 119.445 84.2584 119.264 85.0158 119.264ZM84.9998 120.416C84.3278 120.416 83.7944 120.635 83.3998 121.072C83.0158 121.499 82.7864 122.096 82.7118 122.864H87.0798C87.0691 122.139 86.8984 121.552 86.5678 121.104C86.2371 120.645 85.7144 120.416 84.9998 120.416ZM94.047 119.264C94.783 119.264 95.4123 119.424 95.935 119.744C96.4683 120.064 96.8737 120.517 97.151 121.104C97.439 121.68 97.583 122.357 97.583 123.136V123.984H91.711C91.7323 124.955 91.9777 125.696 92.447 126.208C92.927 126.709 93.5937 126.96 94.447 126.96C94.991 126.96 95.471 126.912 95.887 126.816C96.3137 126.709 96.751 126.56 97.199 126.368V127.6C96.7617 127.792 96.3297 127.931 95.903 128.016C95.4763 128.112 94.9697 128.16 94.383 128.16C93.5723 128.16 92.8523 127.995 92.223 127.664C91.6043 127.333 91.119 126.843 90.767 126.192C90.4257 125.531 90.255 124.725 90.255 123.776C90.255 122.837 90.4097 122.032 90.719 121.36C91.039 120.688 91.4817 120.171 92.047 119.808C92.623 119.445 93.2897 119.264 94.047 119.264ZM94.031 120.416C93.359 120.416 92.8257 120.635 92.431 121.072C92.047 121.499 91.8177 122.096 91.743 122.864H96.111C96.1003 122.139 95.9297 121.552 95.599 121.104C95.2683 120.645 94.7457 120.416 94.031 120.416ZM107.139 116.576C108.632 116.576 109.72 116.869 110.403 117.456C111.085 118.043 111.427 118.869 111.427 119.936C111.427 120.565 111.283 121.157 110.995 121.712C110.717 122.256 110.243 122.699 109.571 123.04C108.909 123.381 108.008 123.552 106.867 123.552H105.555V128H104.115V116.576H107.139ZM107.011 117.808H105.555V122.32H106.707C107.795 122.32 108.605 122.144 109.139 121.792C109.672 121.44 109.939 120.843 109.939 120C109.939 119.264 109.704 118.715 109.235 118.352C108.765 117.989 108.024 117.808 107.011 117.808ZM116.922 119.264C117.658 119.264 118.287 119.424 118.81 119.744C119.343 120.064 119.749 120.517 120.026 121.104C120.314 121.68 120.458 122.357 120.458 123.136V123.984H114.586C114.607 124.955 114.853 125.696 115.322 126.208C115.802 126.709 116.469 126.96 117.322 126.96C117.866 126.96 118.346 126.912 118.762 126.816C119.189 126.709 119.626 126.56 120.074 126.368V127.6C119.637 127.792 119.205 127.931 118.778 128.016C118.351 128.112 117.845 128.16 117.258 128.16C116.447 128.16 115.727 127.995 115.098 127.664C114.479 127.333 113.994 126.843 113.642 126.192C113.301 125.531 113.13 124.725 113.13 123.776C113.13 122.837 113.285 122.032 113.594 121.36C113.914 120.688 114.357 120.171 114.922 119.808C115.498 119.445 116.165 119.264 116.922 119.264ZM116.906 120.416C116.234 120.416 115.701 120.635 115.306 121.072C114.922 121.499 114.693 122.096 114.618 122.864H118.986C118.975 122.139 118.805 121.552 118.474 121.104C118.143 120.645 117.621 120.416 116.906 120.416ZM126.641 119.264C126.801 119.264 126.972 119.275 127.153 119.296C127.345 119.307 127.511 119.328 127.649 119.36L127.473 120.656C127.335 120.624 127.18 120.597 127.009 120.576C126.849 120.555 126.695 120.544 126.545 120.544C126.108 120.544 125.697 120.667 125.313 120.912C124.929 121.147 124.62 121.483 124.385 121.92C124.161 122.347 124.049 122.848 124.049 123.424V128H122.641V119.424H123.793L123.953 120.992H124.017C124.295 120.523 124.652 120.117 125.089 119.776C125.527 119.435 126.044 119.264 126.641 119.264ZM133.203 120.512H131.043V128H129.635V120.512H128.131V119.856L129.635 119.376V118.88C129.635 117.771 129.88 116.976 130.371 116.496C130.861 116.005 131.544 115.76 132.419 115.76C132.76 115.76 133.069 115.792 133.347 115.856C133.635 115.909 133.88 115.973 134.083 116.048L133.715 117.152C133.544 117.099 133.347 117.045 133.123 116.992C132.899 116.939 132.669 116.912 132.435 116.912C131.965 116.912 131.613 117.072 131.379 117.392C131.155 117.701 131.043 118.192 131.043 118.864V119.424H133.203V120.512ZM142.207 123.696C142.207 125.115 141.844 126.213 141.119 126.992C140.404 127.771 139.433 128.16 138.207 128.16C137.449 128.16 136.772 127.989 136.175 127.648C135.588 127.296 135.124 126.789 134.783 126.128C134.441 125.456 134.271 124.645 134.271 123.696C134.271 122.277 134.628 121.184 135.343 120.416C136.057 119.648 137.028 119.264 138.255 119.264C139.033 119.264 139.716 119.44 140.303 119.792C140.9 120.133 141.364 120.635 141.695 121.296C142.036 121.947 142.207 122.747 142.207 123.696ZM135.727 123.696C135.727 124.709 135.924 125.515 136.319 126.112C136.724 126.699 137.364 126.992 138.239 126.992C139.103 126.992 139.737 126.699 140.143 126.112C140.548 125.515 140.751 124.709 140.751 123.696C140.751 122.683 140.548 121.888 140.143 121.312C139.737 120.736 139.097 120.448 138.223 120.448C137.348 120.448 136.713 120.736 136.319 121.312C135.924 121.888 135.727 122.683 135.727 123.696ZM148.438 119.264C148.598 119.264 148.769 119.275 148.95 119.296C149.142 119.307 149.307 119.328 149.446 119.36L149.27 120.656C149.131 120.624 148.977 120.597 148.806 120.576C148.646 120.555 148.491 120.544 148.342 120.544C147.905 120.544 147.494 120.667 147.11 120.912C146.726 121.147 146.417 121.483 146.182 121.92C145.958 122.347 145.846 122.848 145.846 123.424V128H144.438V119.424H145.59L145.75 120.992H145.814C146.091 120.523 146.449 120.117 146.886 119.776C147.323 119.435 147.841 119.264 148.438 119.264ZM160.456 119.264C161.426 119.264 162.152 119.515 162.632 120.016C163.112 120.507 163.352 121.307 163.352 122.416V128H161.96V122.48C161.96 121.125 161.378 120.448 160.216 120.448C159.384 120.448 158.786 120.688 158.424 121.168C158.072 121.648 157.896 122.347 157.896 123.264V128H156.504V122.48C156.504 121.125 155.917 120.448 154.744 120.448C153.88 120.448 153.282 120.715 152.952 121.248C152.621 121.781 152.456 122.549 152.456 123.552V128H151.048V119.424H152.184L152.392 120.592H152.472C152.738 120.144 153.096 119.813 153.544 119.6C154.002 119.376 154.488 119.264 155 119.264C156.344 119.264 157.218 119.744 157.624 120.704H157.704C157.992 120.213 158.381 119.851 158.872 119.616C159.373 119.381 159.901 119.264 160.456 119.264ZM169.249 119.28C170.294 119.28 171.067 119.509 171.569 119.968C172.07 120.427 172.321 121.157 172.321 122.16V128H171.297L171.025 126.784H170.961C170.587 127.253 170.193 127.6 169.777 127.824C169.371 128.048 168.806 128.16 168.081 128.16C167.302 128.16 166.657 127.957 166.145 127.552C165.633 127.136 165.377 126.491 165.377 125.616C165.377 124.763 165.713 124.107 166.385 123.648C167.057 123.179 168.091 122.923 169.489 122.88L170.945 122.832V122.32C170.945 121.605 170.79 121.109 170.481 120.832C170.171 120.555 169.734 120.416 169.169 120.416C168.721 120.416 168.294 120.485 167.889 120.624C167.483 120.752 167.105 120.901 166.753 121.072L166.321 120.016C166.694 119.813 167.137 119.643 167.649 119.504C168.161 119.355 168.694 119.28 169.249 119.28ZM169.665 123.856C168.598 123.899 167.857 124.069 167.441 124.368C167.035 124.667 166.833 125.088 166.833 125.632C166.833 126.112 166.977 126.464 167.265 126.688C167.563 126.912 167.942 127.024 168.401 127.024C169.126 127.024 169.729 126.827 170.209 126.432C170.689 126.027 170.929 125.408 170.929 124.576V123.808L169.665 123.856ZM179.097 119.264C180.121 119.264 180.895 119.515 181.417 120.016C181.94 120.507 182.201 121.307 182.201 122.416V128H180.809V122.512C180.809 121.136 180.169 120.448 178.889 120.448C177.94 120.448 177.284 120.715 176.921 121.248C176.559 121.781 176.377 122.549 176.377 123.552V128H174.969V119.424H176.105L176.313 120.592H176.393C176.671 120.144 177.055 119.813 177.545 119.6C178.036 119.376 178.553 119.264 179.097 119.264ZM188.3 128.16C187.543 128.16 186.865 128.005 186.268 127.696C185.681 127.387 185.217 126.907 184.876 126.256C184.545 125.605 184.38 124.773 184.38 123.76C184.38 122.704 184.556 121.845 184.908 121.184C185.26 120.523 185.735 120.037 186.332 119.728C186.94 119.419 187.628 119.264 188.396 119.264C188.833 119.264 189.255 119.312 189.66 119.408C190.065 119.493 190.396 119.6 190.652 119.728L190.22 120.896C189.964 120.8 189.665 120.709 189.324 120.624C188.983 120.539 188.663 120.496 188.364 120.496C186.679 120.496 185.836 121.579 185.836 123.744C185.836 124.779 186.039 125.573 186.444 126.128C186.86 126.672 187.473 126.944 188.284 126.944C188.753 126.944 189.164 126.896 189.516 126.8C189.879 126.704 190.209 126.587 190.508 126.448V127.696C190.22 127.845 189.9 127.957 189.548 128.032C189.207 128.117 188.791 128.16 188.3 128.16ZM195.86 119.264C196.596 119.264 197.225 119.424 197.748 119.744C198.281 120.064 198.686 120.517 198.964 121.104C199.252 121.68 199.396 122.357 199.396 123.136V123.984H193.524C193.545 124.955 193.79 125.696 194.26 126.208C194.74 126.709 195.406 126.96 196.26 126.96C196.804 126.96 197.284 126.912 197.7 126.816C198.126 126.709 198.564 126.56 199.012 126.368V127.6C198.574 127.792 198.142 127.931 197.716 128.016C197.289 128.112 196.782 128.16 196.196 128.16C195.385 128.16 194.665 127.995 194.036 127.664C193.417 127.333 192.932 126.843 192.58 126.192C192.238 125.531 192.068 124.725 192.068 123.776C192.068 122.837 192.222 122.032 192.532 121.36C192.852 120.688 193.294 120.171 193.86 119.808C194.436 119.445 195.102 119.264 195.86 119.264ZM195.844 120.416C195.172 120.416 194.638 120.635 194.244 121.072C193.86 121.499 193.63 122.096 193.556 122.864H197.924C197.913 122.139 197.742 121.552 197.412 121.104C197.081 120.645 196.558 120.416 195.844 120.416Z" fill="#163A24"/>
<path d="M26.552 17V5.576H27.992V15.72H32.984V17H26.552ZM38.0626 8.264C38.7986 8.264 39.428 8.424 39.9506 8.744C40.484 9.064 40.8893 9.51733 41.1666 10.104C41.4546 10.68 41.5986 11.3573 41.5986 12.136V12.984H35.7266C35.748 13.9547 35.9933 14.696 36.4626 15.208C36.9426 15.7093 37.6093 15.96 38.4626 15.96C39.0066 15.96 39.4866 15.912 39.9026 15.816C40.3293 15.7093 40.7666 15.56 41.2146 15.368V16.6C40.7773 16.792 40.3453 16.9307 39.9186 17.016C39.492 17.112 38.9853 17.16 38.3986 17.16C37.588 17.16 36.868 16.9947 36.2386 16.664C35.62 16.3333 35.1346 15.8427 34.7826 15.192C34.4413 14.5307 34.2706 13.7253 34.2706 12.776C34.2706 11.8373 34.4253 11.032 34.7346 10.36C35.0546 9.688 35.4973 9.17067 36.0626 8.808C36.6386 8.44533 37.3053 8.264 38.0626 8.264ZM38.0466 9.416C37.3746 9.416 36.8413 9.63467 36.4466 10.072C36.0626 10.4987 35.8333 11.096 35.7586 11.864H40.1266C40.116 11.1387 39.9453 10.552 39.6146 10.104C39.284 9.64533 38.7613 9.416 38.0466 9.416ZM47.0299 8.28C48.0752 8.28 48.8485 8.50933 49.3499 8.968C49.8512 9.42667 50.1019 10.1573 50.1019 11.16V17H49.0779L48.8059 15.784H48.7419C48.3685 16.2533 47.9739 16.6 47.5579 16.824C47.1525 17.048 46.5872 17.16 45.8619 17.16C45.0832 17.16 44.4379 16.9573 43.9259 16.552C43.4139 16.136 43.1579 15.4907 43.1579 14.616C43.1579 13.7627 43.4939 13.1067 44.1659 12.648C44.8379 12.1787 45.8725 11.9227 47.2699 11.88L48.7259 11.832V11.32C48.7259 10.6053 48.5712 10.1093 48.2619 9.832C47.9525 9.55467 47.5152 9.416 46.9499 9.416C46.5019 9.416 46.0752 9.48533 45.6699 9.624C45.2645 9.752 44.8859 9.90133 44.5339 10.072L44.1019 9.016C44.4752 8.81333 44.9179 8.64267 45.4299 8.504C45.9419 8.35467 46.4752 8.28 47.0299 8.28ZM47.4459 12.856C46.3792 12.8987 45.6379 13.0693 45.2219 13.368C44.8165 13.6667 44.6139 14.088 44.6139 14.632C44.6139 15.112 44.7579 15.464 45.0459 15.688C45.3445 15.912 45.7232 16.024 46.1819 16.024C46.9072 16.024 47.5099 15.8267 47.9899 15.432C48.4699 15.0267 48.7099 14.408 48.7099 13.576V12.808L47.4459 12.856ZM56.7506 8.264C56.9106 8.264 57.0813 8.27467 57.2626 8.296C57.4546 8.30667 57.62 8.328 57.7586 8.36L57.5826 9.656C57.444 9.624 57.2893 9.59733 57.1186 9.576C56.9586 9.55467 56.804 9.544 56.6546 9.544C56.2173 9.544 55.8066 9.66667 55.4226 9.912C55.0386 10.1467 54.7293 10.4827 54.4946 10.92C54.2706 11.3467 54.1586 11.848 54.1586 12.424V17H52.7506V8.424H53.9026L54.0626 9.992H54.1266C54.404 9.52267 54.7613 9.11733 55.1986 8.776C55.636 8.43467 56.1533 8.264 56.7506 8.264ZM63.488 8.264C64.512 8.264 65.2853 8.51467 65.808 9.016C66.3307 9.50667 66.592 10.3067 66.592 11.416V17H65.2V11.512C65.2 10.136 64.56 9.448 63.28 9.448C62.3307 9.448 61.6747 9.71467 61.312 10.248C60.9493 10.7813 60.768 11.5493 60.768 12.552V17H59.36V8.424H60.496L60.704 9.592H60.784C61.0613 9.144 61.4453 8.81333 61.936 8.6C62.4267 8.376 62.944 8.264 63.488 8.264ZM69.9706 5.208C70.184 5.208 70.3706 5.28267 70.5306 5.432C70.7013 5.57067 70.7866 5.79467 70.7866 6.104C70.7866 6.40267 70.7013 6.62667 70.5306 6.776C70.3706 6.92533 70.184 7 69.9706 7C69.736 7 69.5386 6.92533 69.3786 6.776C69.2186 6.62667 69.1386 6.40267 69.1386 6.104C69.1386 5.79467 69.2186 5.57067 69.3786 5.432C69.5386 5.28267 69.736 5.208 69.9706 5.208ZM70.6586 8.424V17H69.2506V8.424H70.6586ZM77.5036 8.264C78.5276 8.264 79.301 8.51467 79.8236 9.016C80.3463 9.50667 80.6076 10.3067 80.6076 11.416V17H79.2156V11.512C79.2156 10.136 78.5756 9.448 77.2956 9.448C76.3463 9.448 75.6903 9.71467 75.3276 10.248C74.965 10.7813 74.7836 11.5493 74.7836 12.552V17H73.3756V8.424H74.5116L74.7196 9.592H74.7996C75.077 9.144 75.461 8.81333 75.9516 8.6C76.4423 8.376 76.9596 8.264 77.5036 8.264ZM86.3063 8.264C86.8716 8.264 87.3783 8.37067 87.8263 8.584C88.2849 8.79733 88.6743 9.12267 88.9943 9.56H89.0743L89.2663 8.424H90.3863V17.144C90.3863 18.3707 90.0716 19.2933 89.4423 19.912C88.8236 20.5307 87.8583 20.84 86.5463 20.84C85.2876 20.84 84.2583 20.6587 83.4583 20.296V19C84.3009 19.448 85.3569 19.672 86.6263 19.672C87.3623 19.672 87.9383 19.4533 88.3543 19.016C88.7809 18.5893 88.9943 18.0027 88.9943 17.256V16.92C88.9943 16.792 88.9996 16.6107 89.0103 16.376C89.0209 16.1307 89.0316 15.96 89.0423 15.864H88.9783C88.4023 16.728 87.5169 17.16 86.3223 17.16C85.2129 17.16 84.3436 16.7707 83.7143 15.992C83.0956 15.2133 82.7863 14.1253 82.7863 12.728C82.7863 11.3627 83.0956 10.28 83.7143 9.48C84.3436 8.66933 85.2076 8.264 86.3063 8.264ZM86.4983 9.448C85.7836 9.448 85.2289 9.736 84.8343 10.312C84.4396 10.8773 84.2423 11.688 84.2423 12.744C84.2423 13.8 84.4343 14.6107 84.8183 15.176C85.2129 15.7307 85.7836 16.008 86.5303 16.008C87.3943 16.008 88.0236 15.7787 88.4183 15.32C88.8129 14.8507 89.0103 14.0987 89.0103 13.064V12.728C89.0103 11.5547 88.8076 10.7173 88.4023 10.216C87.9969 9.704 87.3623 9.448 86.4983 9.448ZM100.77 5.4C101.624 5.4 102.296 5.61867 102.786 6.056C103.288 6.48267 103.538 7.08533 103.538 7.864C103.538 8.536 103.32 9.10667 102.882 9.576C102.456 10.0453 101.912 10.472 101.25 10.856L104.338 13.832C104.616 13.5013 104.84 13.1227 105.01 12.696C105.192 12.2587 105.341 11.7893 105.458 11.288H106.882C106.712 11.9707 106.498 12.6053 106.242 13.192C105.986 13.7787 105.656 14.2907 105.25 14.728L107.586 17H105.682L104.29 15.656C103.789 16.104 103.229 16.4667 102.61 16.744C101.992 17.0213 101.24 17.16 100.354 17.16C99.2556 17.16 98.3809 16.888 97.7303 16.344C97.0796 15.8 96.7543 15.0267 96.7543 14.024C96.7543 13.2027 96.9729 12.5467 97.4103 12.056C97.8583 11.5547 98.4609 11.0907 99.2183 10.664C98.8769 10.28 98.5569 9.86933 98.2582 9.432C97.9703 8.99467 97.8263 8.48267 97.8263 7.896C97.8263 7.10667 98.0876 6.49333 98.6103 6.056C99.1436 5.61867 99.8636 5.4 100.77 5.4ZM100.722 6.552C100.274 6.552 99.9063 6.66933 99.6183 6.904C99.3409 7.13867 99.2023 7.464 99.2023 7.88C99.2023 8.264 99.3036 8.62133 99.5063 8.952C99.7089 9.272 100.002 9.62933 100.386 10.024C101.016 9.66133 101.464 9.32 101.73 9C102.008 8.66933 102.146 8.29067 102.146 7.864C102.146 7.48 102.018 7.16533 101.762 6.92C101.506 6.67467 101.16 6.552 100.722 6.552ZM100.066 11.544C99.4903 11.8853 99.0369 12.232 98.7063 12.584C98.3863 12.936 98.2263 13.4 98.2263 13.976C98.2263 14.5627 98.4236 15.032 98.8183 15.384C99.2129 15.736 99.7409 15.912 100.402 15.912C101.085 15.912 101.672 15.8 102.162 15.576C102.653 15.352 103.064 15.0853 103.394 14.776L100.066 11.544ZM122.485 11.176C122.485 13.1067 121.957 14.5627 120.901 15.544C119.856 16.5147 118.395 17 116.517 17H113.333V5.576H116.853C118.005 5.576 119.003 5.78933 119.845 6.216C120.688 6.64267 121.339 7.272 121.797 8.104C122.256 8.92533 122.485 9.94933 122.485 11.176ZM120.965 11.224C120.965 9.69867 120.587 8.584 119.829 7.88C119.083 7.16533 118.021 6.808 116.645 6.808H114.773V15.768H116.325C119.419 15.768 120.965 14.2533 120.965 11.224ZM128.141 8.264C128.877 8.264 129.506 8.424 130.029 8.744C130.562 9.064 130.967 9.51733 131.245 10.104C131.533 10.68 131.677 11.3573 131.677 12.136V12.984H125.805C125.826 13.9547 126.071 14.696 126.541 15.208C127.021 15.7093 127.687 15.96 128.541 15.96C129.085 15.96 129.565 15.912 129.981 15.816C130.407 15.7093 130.845 15.56 131.293 15.368V16.6C130.855 16.792 130.423 16.9307 129.997 17.016C129.57 17.112 129.063 17.16 128.477 17.16C127.666 17.16 126.946 16.9947 126.317 16.664C125.698 16.3333 125.213 15.8427 124.861 15.192C124.519 14.5307 124.349 13.7253 124.349 12.776C124.349 11.8373 124.503 11.032 124.813 10.36C125.133 9.688 125.575 9.17067 126.141 8.808C126.717 8.44533 127.383 8.264 128.141 8.264ZM128.125 9.416C127.453 9.416 126.919 9.63467 126.525 10.072C126.141 10.4987 125.911 11.096 125.837 11.864H130.205C130.194 11.1387 130.023 10.552 129.693 10.104C129.362 9.64533 128.839 9.416 128.125 9.416ZM135.436 17L132.188 8.424H133.692L135.516 13.48C135.601 13.7147 135.692 13.976 135.788 14.264C135.884 14.552 135.969 14.8293 136.044 15.096C136.118 15.352 136.172 15.5707 136.204 15.752H136.268C136.31 15.5707 136.369 15.3467 136.444 15.08C136.529 14.8133 136.62 14.536 136.716 14.248C136.822 13.96 136.913 13.704 136.988 13.48L138.812 8.424H140.316L137.052 17H135.436ZM144.985 8.264C145.721 8.264 146.35 8.424 146.873 8.744C147.406 9.064 147.811 9.51733 148.089 10.104C148.377 10.68 148.521 11.3573 148.521 12.136V12.984H142.649C142.67 13.9547 142.915 14.696 143.385 15.208C143.865 15.7093 144.531 15.96 145.385 15.96C145.929 15.96 146.409 15.912 146.825 15.816C147.251 15.7093 147.689 15.56 148.137 15.368V16.6C147.699 16.792 147.267 16.9307 146.841 17.016C146.414 17.112 145.907 17.16 145.321 17.16C144.51 17.16 143.79 16.9947 143.161 16.664C142.542 16.3333 142.057 15.8427 141.705 15.192C141.363 14.5307 141.193 13.7253 141.193 12.776C141.193 11.8373 141.347 11.032 141.657 10.36C141.977 9.688 142.419 9.17067 142.985 8.808C143.561 8.44533 144.227 8.264 144.985 8.264ZM144.969 9.416C144.297 9.416 143.763 9.63467 143.369 10.072C142.985 10.4987 142.755 11.096 142.681 11.864H147.049C147.038 11.1387 146.867 10.552 146.537 10.104C146.206 9.64533 145.683 9.416 144.969 9.416ZM152.112 17H150.704V4.84H152.112V17ZM162.285 12.696C162.285 14.1147 161.922 15.2133 161.197 15.992C160.482 16.7707 159.511 17.16 158.285 17.16C157.527 17.16 156.85 16.9893 156.253 16.648C155.666 16.296 155.202 15.7893 154.861 15.128C154.519 14.456 154.349 13.6453 154.349 12.696C154.349 11.2773 154.706 10.184 155.421 9.416C156.135 8.648 157.106 8.264 158.333 8.264C159.111 8.264 159.794 8.44 160.381 8.792C160.978 9.13333 161.442 9.63467 161.773 10.296C162.114 10.9467 162.285 11.7467 162.285 12.696ZM155.805 12.696C155.805 13.7093 156.002 14.5147 156.397 15.112C156.802 15.6987 157.442 15.992 158.317 15.992C159.181 15.992 159.815 15.6987 160.221 15.112C160.626 14.5147 160.829 13.7093 160.829 12.696C160.829 11.6827 160.626 10.888 160.221 10.312C159.815 9.736 159.175 9.448 158.301 9.448C157.426 9.448 156.791 9.736 156.397 10.312C156.002 10.888 155.805 11.6827 155.805 12.696ZM168.596 8.264C169.652 8.264 170.5 8.632 171.14 9.368C171.791 10.104 172.116 11.2133 172.116 12.696C172.116 14.1573 171.791 15.2667 171.14 16.024C170.5 16.7813 169.647 17.16 168.58 17.16C167.919 17.16 167.37 17.0373 166.932 16.792C166.506 16.536 166.17 16.2427 165.924 15.912H165.828C165.85 16.0933 165.871 16.3227 165.892 16.6C165.914 16.8773 165.924 17.1173 165.924 17.32V20.84H164.516V8.424H165.668L165.86 9.592H165.924C166.18 9.21867 166.516 8.904 166.932 8.648C167.348 8.392 167.903 8.264 168.596 8.264ZM168.34 9.448C167.466 9.448 166.847 9.69333 166.484 10.184C166.132 10.6747 165.946 11.4213 165.924 12.424V12.696C165.924 13.752 166.095 14.568 166.436 15.144C166.788 15.7093 167.434 15.992 168.372 15.992C168.895 15.992 169.322 15.848 169.652 15.56C169.994 15.272 170.244 14.8827 170.404 14.392C170.575 13.8907 170.66 13.32 170.66 12.68C170.66 11.6987 170.468 10.9147 170.084 10.328C169.711 9.74133 169.13 9.448 168.34 9.448ZM183.768 8.264C184.739 8.264 185.464 8.51467 185.944 9.016C186.424 9.50667 186.664 10.3067 186.664 11.416V17H185.272V11.48C185.272 10.1253 184.691 9.448 183.528 9.448C182.696 9.448 182.099 9.688 181.736 10.168C181.384 10.648 181.208 11.3467 181.208 12.264V17H179.816V11.48C179.816 10.1253 179.229 9.448 178.056 9.448C177.192 9.448 176.595 9.71467 176.264 10.248C175.933 10.7813 175.768 11.5493 175.768 12.552V17H174.36V8.424H175.496L175.704 9.592H175.784C176.051 9.144 176.408 8.81333 176.856 8.6C177.315 8.376 177.8 8.264 178.312 8.264C179.656 8.264 180.531 8.744 180.936 9.704H181.016C181.304 9.21333 181.693 8.85067 182.184 8.616C182.685 8.38133 183.213 8.264 183.768 8.264ZM192.625 8.264C193.361 8.264 193.99 8.424 194.513 8.744C195.046 9.064 195.452 9.51733 195.729 10.104C196.017 10.68 196.161 11.3573 196.161 12.136V12.984H190.289C190.31 13.9547 190.556 14.696 191.025 15.208C191.505 15.7093 192.172 15.96 193.025 15.96C193.569 15.96 194.049 15.912 194.465 15.816C194.892 15.7093 195.329 15.56 195.777 15.368V16.6C195.34 16.792 194.908 16.9307 194.481 17.016C194.054 17.112 193.548 17.16 192.961 17.16C192.15 17.16 191.43 16.9947 190.801 16.664C190.182 16.3333 189.697 15.8427 189.345 15.192C189.004 14.5307 188.833 13.7253 188.833 12.776C188.833 11.8373 188.988 11.032 189.297 10.36C189.617 9.688 190.06 9.17067 190.625 8.808C191.201 8.44533 191.868 8.264 192.625 8.264ZM192.609 9.416C191.937 9.416 191.404 9.63467 191.009 10.072C190.625 10.4987 190.396 11.096 190.321 11.864H194.689C194.678 11.1387 194.508 10.552 194.177 10.104C193.846 9.64533 193.324 9.416 192.609 9.416ZM202.472 8.264C203.496 8.264 204.27 8.51467 204.792 9.016C205.315 9.50667 205.576 10.3067 205.576 11.416V17H204.184V11.512C204.184 10.136 203.544 9.448 202.264 9.448C201.315 9.448 200.659 9.71467 200.296 10.248C199.934 10.7813 199.752 11.5493 199.752 12.552V17H198.344V8.424H199.48L199.688 9.592H199.768C200.046 9.144 200.43 8.81333 200.92 8.6C201.411 8.376 201.928 8.264 202.472 8.264ZM211.099 16.008C211.312 16.008 211.531 15.992 211.755 15.96C211.979 15.9173 212.16 15.8747 212.299 15.832V16.904C212.15 16.9787 211.936 17.0373 211.659 17.08C211.382 17.1333 211.115 17.16 210.859 17.16C210.411 17.16 209.995 17.0853 209.611 16.936C209.238 16.776 208.934 16.504 208.699 16.12C208.464 15.736 208.347 15.1973 208.347 14.504V9.512H207.131V8.84L208.363 8.28L208.923 6.456H209.755V8.424H212.235V9.512H209.755V14.472C209.755 14.9947 209.878 15.384 210.123 15.64C210.379 15.8853 210.704 16.008 211.099 16.008Z" fill="#163A24"/>
<path d="M29.816 79.576C31.2453 79.576 32.3227 79.7893 33.048 80.216C33.784 80.632 34.152 81.3627 34.152 82.408C34.152 83.08 33.9653 83.64 33.592 84.088C33.2187 84.5253 32.68 84.808 31.976 84.936V85.016C32.456 85.0907 32.888 85.2293 33.272 85.432C33.6667 85.6347 33.976 85.9227 34.2 86.296C34.424 86.6693 34.536 87.1547 34.536 87.752C34.536 88.7867 34.1787 89.5867 33.464 90.152C32.76 90.7173 31.7947 91 30.568 91H26.552V79.576H29.816ZM30.104 84.44C31.0853 84.44 31.7573 84.2853 32.12 83.976C32.4827 83.656 32.664 83.1867 32.664 82.568C32.664 81.9387 32.44 81.4907 31.992 81.224C31.5547 80.9467 30.8507 80.808 29.88 80.808H27.992V84.44H30.104ZM27.992 85.64V89.784H30.296C31.3093 89.784 32.0133 89.5867 32.408 89.192C32.8027 88.7973 33 88.28 33 87.64C33 87.0427 32.792 86.5627 32.376 86.2C31.9707 85.8267 31.24 85.64 30.184 85.64H27.992ZM40.0783 82.264C40.8143 82.264 41.4436 82.424 41.9663 82.744C42.4996 83.064 42.9049 83.5173 43.1823 84.104C43.4703 84.68 43.6143 85.3573 43.6143 86.136V86.984H37.7423C37.7636 87.9547 38.0089 88.696 38.4783 89.208C38.9583 89.7093 39.6249 89.96 40.4783 89.96C41.0223 89.96 41.5023 89.912 41.9183 89.816C42.3449 89.7093 42.7823 89.56 43.2303 89.368V90.6C42.7929 90.792 42.3609 90.9307 41.9343 91.016C41.5076 91.112 41.0009 91.16 40.4143 91.16C39.6036 91.16 38.8836 90.9947 38.2543 90.664C37.6356 90.3333 37.1503 89.8427 36.7983 89.192C36.4569 88.5307 36.2863 87.7253 36.2863 86.776C36.2863 85.8373 36.4409 85.032 36.7503 84.36C37.0703 83.688 37.5129 83.1707 38.0783 82.808C38.6543 82.4453 39.3209 82.264 40.0783 82.264ZM40.0623 83.416C39.3903 83.416 38.8569 83.6347 38.4623 84.072C38.0783 84.4987 37.8489 85.096 37.7743 85.864H42.1423C42.1316 85.1387 41.9609 84.552 41.6303 84.104C41.2996 83.6453 40.7769 83.416 40.0623 83.416ZM49.9255 82.264C50.9495 82.264 51.7228 82.5147 52.2455 83.016C52.7682 83.5067 53.0295 84.3067 53.0295 85.416V91H51.6375V85.512C51.6375 84.136 50.9975 83.448 49.7175 83.448C48.7682 83.448 48.1122 83.7147 47.7495 84.248C47.3868 84.7813 47.2055 85.5493 47.2055 86.552V91H45.7975V82.424H46.9335L47.1415 83.592H47.2215C47.4988 83.144 47.8828 82.8133 48.3735 82.6C48.8642 82.376 49.3815 82.264 49.9255 82.264ZM59.0001 82.264C59.7361 82.264 60.3655 82.424 60.8881 82.744C61.4215 83.064 61.8268 83.5173 62.1041 84.104C62.3921 84.68 62.5361 85.3573 62.5361 86.136V86.984H56.6641C56.6855 87.9547 56.9308 88.696 57.4001 89.208C57.8801 89.7093 58.5468 89.96 59.4001 89.96C59.9441 89.96 60.4241 89.912 60.8401 89.816C61.2668 89.7093 61.7041 89.56 62.1521 89.368V90.6C61.7148 90.792 61.2828 90.9307 60.8561 91.016C60.4295 91.112 59.9228 91.16 59.3361 91.16C58.5255 91.16 57.8055 90.9947 57.1761 90.664C56.5575 90.3333 56.0721 89.8427 55.7201 89.192C55.3788 88.5307 55.2081 87.7253 55.2081 86.776C55.2081 85.8373 55.3628 85.032 55.6721 84.36C55.9921 83.688 56.4348 83.1707 57.0001 82.808C57.5761 82.4453 58.2428 82.264 59.0001 82.264ZM58.9841 83.416C58.3121 83.416 57.7788 83.6347 57.3841 84.072C57.0001 84.4987 56.7708 85.096 56.6961 85.864H61.0641C61.0535 85.1387 60.8828 84.552 60.5521 84.104C60.2215 83.6453 59.6988 83.416 58.9841 83.416ZM68.6714 83.512H66.5114V91H65.1034V83.512H63.5994V82.856L65.1034 82.376V81.88C65.1034 80.7707 65.3487 79.976 65.8394 79.496C66.33 79.0053 67.0127 78.76 67.8874 78.76C68.2287 78.76 68.538 78.792 68.8154 78.856C69.1034 78.9093 69.3487 78.9733 69.5514 79.048L69.1834 80.152C69.0127 80.0987 68.8154 80.0453 68.5914 79.992C68.3674 79.9387 68.138 79.912 67.9034 79.912C67.434 79.912 67.082 80.072 66.8474 80.392C66.6234 80.7013 66.5114 81.192 66.5114 81.864V82.424H68.6714V83.512ZM70.9434 79.208C71.1567 79.208 71.3434 79.2827 71.5034 79.432C71.674 79.5707 71.7594 79.7947 71.7594 80.104C71.7594 80.4027 71.674 80.6267 71.5034 80.776C71.3434 80.9253 71.1567 81 70.9434 81C70.7087 81 70.5114 80.9253 70.3514 80.776C70.1914 80.6267 70.1114 80.4027 70.1114 80.104C70.1114 79.7947 70.1914 79.5707 70.3514 79.432C70.5114 79.2827 70.7087 79.208 70.9434 79.208ZM71.6314 82.424V91H70.2234V82.424H71.6314ZM77.2084 90.008C77.4217 90.008 77.6404 89.992 77.8644 89.96C78.0884 89.9173 78.2697 89.8747 78.4084 89.832V90.904C78.259 90.9787 78.0457 91.0373 77.7684 91.08C77.491 91.1333 77.2244 91.16 76.9684 91.16C76.5204 91.16 76.1044 91.0853 75.7204 90.936C75.347 90.776 75.043 90.504 74.8084 90.12C74.5737 89.736 74.4564 89.1973 74.4564 88.504V83.512H73.2404V82.84L74.4724 82.28L75.0324 80.456H75.8644V82.424H78.3444V83.512H75.8644V88.472C75.8644 88.9947 75.987 89.384 76.2324 89.64C76.4884 89.8853 76.8137 90.008 77.2084 90.008ZM89.5139 91L85.7539 80.984H85.6899C85.7219 81.3147 85.7485 81.7627 85.7699 82.328C85.7912 82.8827 85.8019 83.464 85.8019 84.072V91H84.4739V79.576H86.6019L90.1219 88.936H90.1859L93.7699 79.576H95.8819V91H94.4579V83.976C94.4579 83.4213 94.4685 82.872 94.4899 82.328C94.5219 81.784 94.5485 81.3413 94.5699 81H94.5059L90.6979 91H89.5139ZM102.046 82.28C103.091 82.28 103.864 82.5093 104.366 82.968C104.867 83.4267 105.118 84.1573 105.118 85.16V91H104.094L103.822 89.784H103.758C103.384 90.2533 102.99 90.6 102.574 90.824C102.168 91.048 101.603 91.16 100.878 91.16C100.099 91.16 99.4535 90.9573 98.9415 90.552C98.4295 90.136 98.1735 89.4907 98.1735 88.616C98.1735 87.7627 98.5095 87.1067 99.1815 86.648C99.8535 86.1787 100.888 85.9227 102.286 85.88L103.742 85.832V85.32C103.742 84.6053 103.587 84.1093 103.278 83.832C102.968 83.5547 102.531 83.416 101.966 83.416C101.518 83.416 101.091 83.4853 100.686 83.624C100.28 83.752 99.9015 83.9013 99.5495 84.072L99.1175 83.016C99.4908 82.8133 99.9335 82.6427 100.446 82.504C100.958 82.3547 101.491 82.28 102.046 82.28ZM102.462 86.856C101.395 86.8987 100.654 87.0693 100.238 87.368C99.8322 87.6667 99.6295 88.088 99.6295 88.632C99.6295 89.112 99.7735 89.464 100.062 89.688C100.36 89.912 100.739 90.024 101.198 90.024C101.923 90.024 102.526 89.8267 103.006 89.432C103.486 89.0267 103.726 88.408 103.726 87.576V86.808L102.462 86.856ZM111.894 82.264C112.918 82.264 113.692 82.5147 114.214 83.016C114.737 83.5067 114.998 84.3067 114.998 85.416V91H113.606V85.512C113.606 84.136 112.966 83.448 111.686 83.448C110.737 83.448 110.081 83.7147 109.718 84.248C109.356 84.7813 109.174 85.5493 109.174 86.552V91H107.766V82.424H108.902L109.11 83.592H109.19C109.468 83.144 109.852 82.8133 110.342 82.6C110.833 82.376 111.35 82.264 111.894 82.264ZM120.905 82.28C121.95 82.28 122.724 82.5093 123.225 82.968C123.726 83.4267 123.977 84.1573 123.977 85.16V91H122.953L122.681 89.784H122.617C122.244 90.2533 121.849 90.6 121.433 90.824C121.028 91.048 120.462 91.16 119.737 91.16C118.958 91.16 118.313 90.9573 117.801 90.552C117.289 90.136 117.033 89.4907 117.033 88.616C117.033 87.7627 117.369 87.1067 118.041 86.648C118.713 86.1787 119.748 85.9227 121.145 85.88L122.601 85.832V85.32C122.601 84.6053 122.446 84.1093 122.137 83.832C121.828 83.5547 121.39 83.416 120.825 83.416C120.377 83.416 119.95 83.4853 119.545 83.624C119.14 83.752 118.761 83.9013 118.409 84.072L117.977 83.016C118.35 82.8133 118.793 82.6427 119.305 82.504C119.817 82.3547 120.35 82.28 120.905 82.28ZM121.321 86.856C120.254 86.8987 119.513 87.0693 119.097 87.368C118.692 87.6667 118.489 88.088 118.489 88.632C118.489 89.112 118.633 89.464 118.921 89.688C119.22 89.912 119.598 90.024 120.057 90.024C120.782 90.024 121.385 89.8267 121.865 89.432C122.345 89.0267 122.585 88.408 122.585 87.576V86.808L121.321 86.856ZM129.666 82.264C130.231 82.264 130.738 82.3707 131.186 82.584C131.644 82.7973 132.034 83.1227 132.354 83.56H132.434L132.626 82.424H133.746V91.144C133.746 92.3707 133.431 93.2933 132.802 93.912C132.183 94.5307 131.218 94.84 129.906 94.84C128.647 94.84 127.618 94.6587 126.818 94.296V93C127.66 93.448 128.716 93.672 129.986 93.672C130.722 93.672 131.298 93.4533 131.714 93.016C132.14 92.5893 132.354 92.0027 132.354 91.256V90.92C132.354 90.792 132.359 90.6107 132.37 90.376C132.38 90.1307 132.391 89.96 132.402 89.864H132.338C131.762 90.728 130.876 91.16 129.682 91.16C128.572 91.16 127.703 90.7707 127.074 89.992C126.455 89.2133 126.146 88.1253 126.146 86.728C126.146 85.3627 126.455 84.28 127.074 83.48C127.703 82.6693 128.567 82.264 129.666 82.264ZM129.858 83.448C129.143 83.448 128.588 83.736 128.194 84.312C127.799 84.8773 127.602 85.688 127.602 86.744C127.602 87.8 127.794 88.6107 128.178 89.176C128.572 89.7307 129.143 90.008 129.89 90.008C130.754 90.008 131.383 89.7787 131.778 89.32C132.172 88.8507 132.37 88.0987 132.37 87.064V86.728C132.37 85.5547 132.167 84.7173 131.762 84.216C131.356 83.704 130.722 83.448 129.858 83.448ZM139.781 82.264C140.517 82.264 141.147 82.424 141.669 82.744C142.203 83.064 142.608 83.5173 142.885 84.104C143.173 84.68 143.317 85.3573 143.317 86.136V86.984H137.445C137.467 87.9547 137.712 88.696 138.181 89.208C138.661 89.7093 139.328 89.96 140.181 89.96C140.725 89.96 141.205 89.912 141.621 89.816C142.048 89.7093 142.485 89.56 142.933 89.368V90.6C142.496 90.792 142.064 90.9307 141.637 91.016C141.211 91.112 140.704 91.16 140.117 91.16C139.307 91.16 138.587 90.9947 137.957 90.664C137.339 90.3333 136.853 89.8427 136.501 89.192C136.16 88.5307 135.989 87.7253 135.989 86.776C135.989 85.8373 136.144 85.032 136.453 84.36C136.773 83.688 137.216 83.1707 137.781 82.808C138.357 82.4453 139.024 82.264 139.781 82.264ZM139.765 83.416C139.093 83.416 138.56 83.6347 138.165 84.072C137.781 84.4987 137.552 85.096 137.477 85.864H141.845C141.835 85.1387 141.664 84.552 141.333 84.104C141.003 83.6453 140.48 83.416 139.765 83.416ZM154.909 82.264C155.879 82.264 156.605 82.5147 157.085 83.016C157.565 83.5067 157.805 84.3067 157.805 85.416V91H156.413V85.48C156.413 84.1253 155.831 83.448 154.669 83.448C153.837 83.448 153.239 83.688 152.877 84.168C152.525 84.648 152.349 85.3467 152.349 86.264V91H150.957V85.48C150.957 84.1253 150.37 83.448 149.197 83.448C148.333 83.448 147.735 83.7147 147.405 84.248C147.074 84.7813 146.909 85.5493 146.909 86.552V91H145.501V82.424H146.637L146.845 83.592H146.925C147.191 83.144 147.549 82.8133 147.997 82.6C148.455 82.376 148.941 82.264 149.453 82.264C150.797 82.264 151.671 82.744 152.077 83.704H152.157C152.445 83.2133 152.834 82.8507 153.325 82.616C153.826 82.3813 154.354 82.264 154.909 82.264ZM163.766 82.264C164.502 82.264 165.131 82.424 165.654 82.744C166.187 83.064 166.592 83.5173 166.87 84.104C167.158 84.68 167.302 85.3573 167.302 86.136V86.984H161.43C161.451 87.9547 161.696 88.696 162.166 89.208C162.646 89.7093 163.312 89.96 164.166 89.96C164.71 89.96 165.19 89.912 165.606 89.816C166.032 89.7093 166.47 89.56 166.918 89.368V90.6C166.48 90.792 166.048 90.9307 165.622 91.016C165.195 91.112 164.688 91.16 164.102 91.16C163.291 91.16 162.571 90.9947 161.942 90.664C161.323 90.3333 160.838 89.8427 160.486 89.192C160.144 88.5307 159.974 87.7253 159.974 86.776C159.974 85.8373 160.128 85.032 160.438 84.36C160.758 83.688 161.2 83.1707 161.766 82.808C162.342 82.4453 163.008 82.264 163.766 82.264ZM163.75 83.416C163.078 83.416 162.544 83.6347 162.15 84.072C161.766 84.4987 161.536 85.096 161.462 85.864H165.83C165.819 85.1387 165.648 84.552 165.318 84.104C164.987 83.6453 164.464 83.416 163.75 83.416ZM173.613 82.264C174.637 82.264 175.41 82.5147 175.933 83.016C176.456 83.5067 176.717 84.3067 176.717 85.416V91H175.325V85.512C175.325 84.136 174.685 83.448 173.405 83.448C172.456 83.448 171.8 83.7147 171.437 84.248C171.074 84.7813 170.893 85.5493 170.893 86.552V91H169.485V82.424H170.621L170.829 83.592H170.909C171.186 83.144 171.57 82.8133 172.061 82.6C172.552 82.376 173.069 82.264 173.613 82.264ZM182.24 90.008C182.453 90.008 182.672 89.992 182.896 89.96C183.12 89.9173 183.301 89.8747 183.44 89.832V90.904C183.29 90.9787 183.077 91.0373 182.8 91.08C182.522 91.1333 182.256 91.16 182 91.16C181.552 91.16 181.136 91.0853 180.752 90.936C180.378 90.776 180.074 90.504 179.84 90.12C179.605 89.736 179.488 89.1973 179.488 88.504V83.512H178.272V82.84L179.504 82.28L180.064 80.456H180.896V82.424H183.376V83.512H180.896V88.472C180.896 88.9947 181.018 89.384 181.264 89.64C181.52 89.8853 181.845 90.008 182.24 90.008Z" fill="#163A24"/>
<circle cx="9" cy="11" r="4" fill="#163A24"/>
<circle cx="9" cy="48" r="4" fill="#163A24"/>
<circle cx="9" cy="85" r="4" fill="#163A24"/>
<circle cx="9" cy="122" r="4" fill="#163A24"/>
</svg>
