<svg width="274" height="96" viewBox="0 0 274 96" fill="none" xmlns="http://www.w3.org/2000/svg">
<path d="M32.936 54H26.552V42.576H32.936V43.84H27.992V47.408H32.648V48.656H27.992V52.736H32.936V54ZM44.6586 45.264C45.6293 45.264 46.3546 45.5147 46.8346 46.016C47.3146 46.5067 47.5546 47.3067 47.5546 48.416V54H46.1626V48.48C46.1626 47.1253 45.5813 46.448 44.4186 46.448C43.5866 46.448 42.9893 46.688 42.6266 47.168C42.2746 47.648 42.0986 48.3467 42.0986 49.264V54H40.7066V48.48C40.7066 47.1253 40.12 46.448 38.9466 46.448C38.0826 46.448 37.4853 46.7147 37.1546 47.248C36.824 47.7813 36.6586 48.5493 36.6586 49.552V54H35.2506V45.424H36.3866L36.5946 46.592H36.6746C36.9413 46.144 37.2986 45.8133 37.7466 45.6C38.2053 45.376 38.6906 45.264 39.2026 45.264C40.5466 45.264 41.4213 45.744 41.8266 46.704H41.9066C42.1946 46.2133 42.584 45.8507 43.0746 45.616C43.576 45.3813 44.104 45.264 44.6586 45.264ZM54.2838 45.264C55.3398 45.264 56.1878 45.632 56.8278 46.368C57.4784 47.104 57.8038 48.2133 57.8038 49.696C57.8038 51.1573 57.4784 52.2667 56.8278 53.024C56.1878 53.7813 55.3344 54.16 54.2678 54.16C53.6064 54.16 53.0571 54.0373 52.6198 53.792C52.1931 53.536 51.8571 53.2427 51.6118 52.912H51.5158C51.5371 53.0933 51.5584 53.3227 51.5798 53.6C51.6011 53.8773 51.6118 54.1173 51.6118 54.32V57.84H50.2038V45.424H51.3558L51.5478 46.592H51.6118C51.8678 46.2187 52.2038 45.904 52.6198 45.648C53.0358 45.392 53.5904 45.264 54.2838 45.264ZM54.0278 46.448C53.1531 46.448 52.5344 46.6933 52.1718 47.184C51.8198 47.6747 51.6331 48.4213 51.6118 49.424V49.696C51.6118 50.752 51.7824 51.568 52.1238 52.144C52.4758 52.7093 53.1211 52.992 54.0598 52.992C54.5824 52.992 55.0091 52.848 55.3398 52.56C55.6811 52.272 55.9318 51.8827 56.0918 51.392C56.2624 50.8907 56.3478 50.32 56.3478 49.68C56.3478 48.6987 56.1558 47.9147 55.7718 47.328C55.3984 46.7413 54.8171 46.448 54.0278 46.448ZM61.4555 54H60.0475V41.84H61.4555V54ZM71.6285 49.696C71.6285 51.1147 71.2658 52.2133 70.5405 52.992C69.8258 53.7707 68.8552 54.16 67.6285 54.16C66.8712 54.16 66.1938 53.9893 65.5965 53.648C65.0098 53.296 64.5458 52.7893 64.2045 52.128C63.8632 51.456 63.6925 50.6453 63.6925 49.696C63.6925 48.2773 64.0498 47.184 64.7645 46.416C65.4792 45.648 66.4498 45.264 67.6765 45.264C68.4552 45.264 69.1378 45.44 69.7245 45.792C70.3218 46.1333 70.7858 46.6347 71.1165 47.296C71.4578 47.9467 71.6285 48.7467 71.6285 49.696ZM65.1485 49.696C65.1485 50.7093 65.3458 51.5147 65.7405 52.112C66.1458 52.6987 66.7858 52.992 67.6605 52.992C68.5245 52.992 69.1592 52.6987 69.5645 52.112C69.9698 51.5147 70.1725 50.7093 70.1725 49.696C70.1725 48.6827 69.9698 47.888 69.5645 47.312C69.1592 46.736 68.5192 46.448 67.6445 46.448C66.7698 46.448 66.1352 46.736 65.7405 47.312C65.3458 47.888 65.1485 48.6827 65.1485 49.696ZM72.2035 45.424H73.7075L75.5635 50.304C75.7235 50.7307 75.8675 51.1413 75.9955 51.536C76.1235 51.92 76.2195 52.288 76.2835 52.64H76.3475C76.4115 52.3733 76.5128 52.0267 76.6515 51.6C76.7902 51.1627 76.9342 50.7253 77.0835 50.288L78.8275 45.424H80.3475L76.6515 55.184C76.3528 55.9947 75.9635 56.64 75.4835 57.12C75.0142 57.6 74.3635 57.84 73.5315 57.84C73.2755 57.84 73.0515 57.824 72.8595 57.792C72.6675 57.7707 72.5022 57.744 72.3635 57.712V56.592C72.4808 56.6133 72.6195 56.6347 72.7795 56.656C72.9502 56.6773 73.1262 56.688 73.3075 56.688C73.7982 56.688 74.1928 56.5493 74.4915 56.272C74.8008 55.9947 75.0408 55.6267 75.2115 55.168L75.6595 54.032L72.2035 45.424ZM85.0158 45.264C85.7518 45.264 86.3811 45.424 86.9038 45.744C87.4371 46.064 87.8424 46.5173 88.1198 47.104C88.4078 47.68 88.5518 48.3573 88.5518 49.136V49.984H82.6798C82.7011 50.9547 82.9464 51.696 83.4158 52.208C83.8958 52.7093 84.5624 52.96 85.4158 52.96C85.9598 52.96 86.4398 52.912 86.8558 52.816C87.2824 52.7093 87.7198 52.56 88.1678 52.368V53.6C87.7304 53.792 87.2984 53.9307 86.8718 54.016C86.4451 54.112 85.9384 54.16 85.3518 54.16C84.5411 54.16 83.8211 53.9947 83.1918 53.664C82.5731 53.3333 82.0878 52.8427 81.7358 52.192C81.3944 51.5307 81.2238 50.7253 81.2238 49.776C81.2238 48.8373 81.3784 48.032 81.6878 47.36C82.0078 46.688 82.4504 46.1707 83.0158 45.808C83.5918 45.4453 84.2584 45.264 85.0158 45.264ZM84.9998 46.416C84.3278 46.416 83.7944 46.6347 83.3998 47.072C83.0158 47.4987 82.7864 48.096 82.7118 48.864H87.0798C87.0691 48.1387 86.8984 47.552 86.5678 47.104C86.2371 46.6453 85.7144 46.416 84.9998 46.416ZM94.047 45.264C94.783 45.264 95.4123 45.424 95.935 45.744C96.4683 46.064 96.8737 46.5173 97.151 47.104C97.439 47.68 97.583 48.3573 97.583 49.136V49.984H91.711C91.7323 50.9547 91.9777 51.696 92.447 52.208C92.927 52.7093 93.5937 52.96 94.447 52.96C94.991 52.96 95.471 52.912 95.887 52.816C96.3137 52.7093 96.751 52.56 97.199 52.368V53.6C96.7617 53.792 96.3297 53.9307 95.903 54.016C95.4763 54.112 94.9697 54.16 94.383 54.16C93.5723 54.16 92.8523 53.9947 92.223 53.664C91.6043 53.3333 91.119 52.8427 90.767 52.192C90.4257 51.5307 90.255 50.7253 90.255 49.776C90.255 48.8373 90.4097 48.032 90.719 47.36C91.039 46.688 91.4817 46.1707 92.047 45.808C92.623 45.4453 93.2897 45.264 94.047 45.264ZM94.031 46.416C93.359 46.416 92.8257 46.6347 92.431 47.072C92.047 47.4987 91.8177 48.096 91.743 48.864H96.111C96.1003 48.1387 95.9297 47.552 95.599 47.104C95.2683 46.6453 94.7457 46.416 94.031 46.416ZM113.267 48.176C113.267 50.1067 112.739 51.5627 111.683 52.544C110.637 53.5147 109.176 54 107.299 54H104.115V42.576H107.635C108.787 42.576 109.784 42.7893 110.627 43.216C111.469 43.6427 112.12 44.272 112.579 45.104C113.037 45.9253 113.267 46.9493 113.267 48.176ZM111.747 48.224C111.747 46.6987 111.368 45.584 110.611 44.88C109.864 44.1653 108.803 43.808 107.427 43.808H105.555V52.768H107.107C110.2 52.768 111.747 51.2533 111.747 48.224ZM118.858 45.28C119.903 45.28 120.677 45.5093 121.178 45.968C121.679 46.4267 121.93 47.1573 121.93 48.16V54H120.906L120.634 52.784H120.57C120.197 53.2533 119.802 53.6 119.386 53.824C118.981 54.048 118.415 54.16 117.69 54.16C116.911 54.16 116.266 53.9573 115.754 53.552C115.242 53.136 114.986 52.4907 114.986 51.616C114.986 50.7627 115.322 50.1067 115.994 49.648C116.666 49.1787 117.701 48.9227 119.098 48.88L120.554 48.832V48.32C120.554 47.6053 120.399 47.1093 120.09 46.832C119.781 46.5547 119.343 46.416 118.778 46.416C118.33 46.416 117.903 46.4853 117.498 46.624C117.093 46.752 116.714 46.9013 116.362 47.072L115.93 46.016C116.303 45.8133 116.746 45.6427 117.258 45.504C117.77 45.3547 118.303 45.28 118.858 45.28ZM119.274 49.856C118.207 49.8987 117.466 50.0693 117.05 50.368C116.645 50.6667 116.442 51.088 116.442 51.632C116.442 52.112 116.586 52.464 116.874 52.688C117.173 52.912 117.551 53.024 118.01 53.024C118.735 53.024 119.338 52.8267 119.818 52.432C120.298 52.0267 120.538 51.408 120.538 50.576V49.808L119.274 49.856ZM127.443 53.008C127.656 53.008 127.875 52.992 128.099 52.96C128.323 52.9173 128.504 52.8747 128.643 52.832V53.904C128.493 53.9787 128.28 54.0373 128.003 54.08C127.725 54.1333 127.459 54.16 127.203 54.16C126.755 54.16 126.339 54.0853 125.955 53.936C125.581 53.776 125.277 53.504 125.043 53.12C124.808 52.736 124.691 52.1973 124.691 51.504V46.512H123.475V45.84L124.707 45.28L125.267 43.456H126.099V45.424H128.579V46.512H126.099V51.472C126.099 51.9947 126.221 52.384 126.467 52.64C126.723 52.8853 127.048 53.008 127.443 53.008ZM133.608 45.28C134.653 45.28 135.427 45.5093 135.928 45.968C136.429 46.4267 136.68 47.1573 136.68 48.16V54H135.656L135.384 52.784H135.32C134.947 53.2533 134.552 53.6 134.136 53.824C133.731 54.048 133.165 54.16 132.44 54.16C131.661 54.16 131.016 53.9573 130.504 53.552C129.992 53.136 129.736 52.4907 129.736 51.616C129.736 50.7627 130.072 50.1067 130.744 49.648C131.416 49.1787 132.451 48.9227 133.848 48.88L135.304 48.832V48.32C135.304 47.6053 135.149 47.1093 134.84 46.832C134.531 46.5547 134.093 46.416 133.528 46.416C133.08 46.416 132.653 46.4853 132.248 46.624C131.843 46.752 131.464 46.9013 131.112 47.072L130.68 46.016C131.053 45.8133 131.496 45.6427 132.008 45.504C132.52 45.3547 133.053 45.28 133.608 45.28ZM134.024 49.856C132.957 49.8987 132.216 50.0693 131.8 50.368C131.395 50.6667 131.192 51.088 131.192 51.632C131.192 52.112 131.336 52.464 131.624 52.688C131.923 52.912 132.301 53.024 132.76 53.024C133.485 53.024 134.088 52.8267 134.568 52.432C135.048 52.0267 135.288 51.408 135.288 50.576V49.808L134.024 49.856ZM150.157 50.944C150.157 51.9573 149.789 52.7467 149.053 53.312C148.317 53.8773 147.325 54.16 146.077 54.16C145.437 54.16 144.845 54.112 144.301 54.016C143.757 53.92 143.304 53.7867 142.941 53.616V52.24C143.325 52.4107 143.8 52.5653 144.365 52.704C144.941 52.8427 145.533 52.912 146.141 52.912C146.994 52.912 147.634 52.7467 148.061 52.416C148.498 52.0853 148.717 51.6373 148.717 51.072C148.717 50.6987 148.637 50.384 148.477 50.128C148.317 49.872 148.04 49.6373 147.645 49.424C147.261 49.2 146.722 48.9653 146.029 48.72C145.058 48.368 144.322 47.936 143.821 47.424C143.33 46.912 143.085 46.2133 143.085 45.328C143.085 44.72 143.24 44.2027 143.549 43.776C143.858 43.3387 144.285 43.0027 144.829 42.768C145.384 42.5333 146.018 42.416 146.733 42.416C147.362 42.416 147.938 42.4747 148.461 42.592C148.984 42.7093 149.458 42.864 149.885 43.056L149.437 44.288C149.042 44.1173 148.61 43.9733 148.141 43.856C147.682 43.7387 147.202 43.68 146.701 43.68C145.986 43.68 145.448 43.8347 145.085 44.144C144.722 44.4427 144.541 44.8427 144.541 45.344C144.541 45.728 144.621 46.048 144.781 46.304C144.941 46.56 145.202 46.7893 145.565 46.992C145.928 47.1947 146.418 47.4133 147.037 47.648C147.709 47.8933 148.274 48.16 148.733 48.448C149.202 48.7253 149.554 49.0613 149.789 49.456C150.034 49.8507 150.157 50.3467 150.157 50.944ZM155.13 53.008C155.344 53.008 155.562 52.992 155.786 52.96C156.01 52.9173 156.192 52.8747 156.33 52.832V53.904C156.181 53.9787 155.968 54.0373 155.69 54.08C155.413 54.1333 155.146 54.16 154.89 54.16C154.442 54.16 154.026 54.0853 153.642 53.936C153.269 53.776 152.965 53.504 152.73 53.12C152.496 52.736 152.378 52.1973 152.378 51.504V46.512H151.162V45.84L152.394 45.28L152.954 43.456H153.786V45.424H156.266V46.512H153.786V51.472C153.786 51.9947 153.909 52.384 154.154 52.64C154.41 52.8853 154.736 53.008 155.13 53.008ZM165.503 49.696C165.503 51.1147 165.141 52.2133 164.416 52.992C163.701 53.7707 162.73 54.16 161.504 54.16C160.746 54.16 160.069 53.9893 159.472 53.648C158.885 53.296 158.421 52.7893 158.08 52.128C157.738 51.456 157.568 50.6453 157.568 49.696C157.568 48.2773 157.925 47.184 158.64 46.416C159.354 45.648 160.325 45.264 161.552 45.264C162.33 45.264 163.013 45.44 163.6 45.792C164.197 46.1333 164.661 46.6347 164.992 47.296C165.333 47.9467 165.503 48.7467 165.503 49.696ZM159.024 49.696C159.024 50.7093 159.221 51.5147 159.616 52.112C160.021 52.6987 160.661 52.992 161.536 52.992C162.4 52.992 163.034 52.6987 163.44 52.112C163.845 51.5147 164.048 50.7093 164.048 49.696C164.048 48.6827 163.845 47.888 163.44 47.312C163.034 46.736 162.394 46.448 161.52 46.448C160.645 46.448 160.01 46.736 159.616 47.312C159.221 47.888 159.024 48.6827 159.024 49.696ZM171.735 45.264C171.895 45.264 172.066 45.2747 172.247 45.296C172.439 45.3067 172.604 45.328 172.743 45.36L172.567 46.656C172.428 46.624 172.274 46.5973 172.103 46.576C171.943 46.5547 171.788 46.544 171.639 46.544C171.202 46.544 170.791 46.6667 170.407 46.912C170.023 47.1467 169.714 47.4827 169.479 47.92C169.255 48.3467 169.143 48.848 169.143 49.424V54H167.735V45.424H168.887L169.047 46.992H169.111C169.388 46.5227 169.746 46.1173 170.183 45.776C170.62 45.4347 171.138 45.264 171.735 45.264ZM177.28 45.28C178.325 45.28 179.099 45.5093 179.6 45.968C180.101 46.4267 180.352 47.1573 180.352 48.16V54H179.328L179.056 52.784H178.992C178.619 53.2533 178.224 53.6 177.808 53.824C177.403 54.048 176.837 54.16 176.112 54.16C175.333 54.16 174.688 53.9573 174.176 53.552C173.664 53.136 173.408 52.4907 173.408 51.616C173.408 50.7627 173.744 50.1067 174.416 49.648C175.088 49.1787 176.123 48.9227 177.52 48.88L178.976 48.832V48.32C178.976 47.6053 178.821 47.1093 178.512 46.832C178.203 46.5547 177.765 46.416 177.2 46.416C176.752 46.416 176.325 46.4853 175.92 46.624C175.515 46.752 175.136 46.9013 174.784 47.072L174.352 46.016C174.725 45.8133 175.168 45.6427 175.68 45.504C176.192 45.3547 176.725 45.28 177.28 45.28ZM177.696 49.856C176.629 49.8987 175.888 50.0693 175.472 50.368C175.067 50.6667 174.864 51.088 174.864 51.632C174.864 52.112 175.008 52.464 175.296 52.688C175.595 52.912 175.973 53.024 176.432 53.024C177.157 53.024 177.76 52.8267 178.24 52.432C178.72 52.0267 178.96 51.408 178.96 50.576V49.808L177.696 49.856ZM186.041 45.264C186.606 45.264 187.113 45.3707 187.561 45.584C188.019 45.7973 188.409 46.1227 188.729 46.56H188.809L189.001 45.424H190.121V54.144C190.121 55.3707 189.806 56.2933 189.177 56.912C188.558 57.5307 187.593 57.84 186.281 57.84C185.022 57.84 183.993 57.6587 183.193 57.296V56C184.035 56.448 185.091 56.672 186.361 56.672C187.097 56.672 187.673 56.4533 188.089 56.016C188.515 55.5893 188.729 55.0027 188.729 54.256V53.92C188.729 53.792 188.734 53.6107 188.745 53.376C188.755 53.1307 188.766 52.96 188.777 52.864H188.713C188.137 53.728 187.251 54.16 186.057 54.16C184.947 54.16 184.078 53.7707 183.449 52.992C182.83 52.2133 182.521 51.1253 182.521 49.728C182.521 48.3627 182.83 47.28 183.449 46.48C184.078 45.6693 184.942 45.264 186.041 45.264ZM186.233 46.448C185.518 46.448 184.963 46.736 184.569 47.312C184.174 47.8773 183.977 48.688 183.977 49.744C183.977 50.8 184.169 51.6107 184.553 52.176C184.947 52.7307 185.518 53.008 186.265 53.008C187.129 53.008 187.758 52.7787 188.153 52.32C188.547 51.8507 188.745 51.0987 188.745 50.064V49.728C188.745 48.5547 188.542 47.7173 188.137 47.216C187.731 46.704 187.097 46.448 186.233 46.448ZM196.156 45.264C196.892 45.264 197.522 45.424 198.044 45.744C198.578 46.064 198.983 46.5173 199.26 47.104C199.548 47.68 199.692 48.3573 199.692 49.136V49.984H193.82C193.842 50.9547 194.087 51.696 194.556 52.208C195.036 52.7093 195.703 52.96 196.556 52.96C197.1 52.96 197.58 52.912 197.996 52.816C198.423 52.7093 198.86 52.56 199.308 52.368V53.6C198.871 53.792 198.439 53.9307 198.012 54.016C197.586 54.112 197.079 54.16 196.492 54.16C195.682 54.16 194.962 53.9947 194.332 53.664C193.714 53.3333 193.228 52.8427 192.876 52.192C192.535 51.5307 192.364 50.7253 192.364 49.776C192.364 48.8373 192.519 48.032 192.828 47.36C193.148 46.688 193.591 46.1707 194.156 45.808C194.732 45.4453 195.399 45.264 196.156 45.264ZM196.14 46.416C195.468 46.416 194.935 46.6347 194.54 47.072C194.156 47.4987 193.927 48.096 193.852 48.864H198.22C198.21 48.1387 198.039 47.552 197.708 47.104C197.378 46.6453 196.855 46.416 196.14 46.416Z" fill="#163A24"/>
<path d="M31.448 6.68C30.2213 6.68 29.256 7.09067 28.552 7.912C27.848 8.73333 27.496 9.85867 27.496 11.288C27.496 12.7067 27.8213 13.832 28.472 14.664C29.1333 15.4853 30.12 15.896 31.432 15.896C31.9333 15.896 32.408 15.8533 32.856 15.768C33.304 15.6827 33.7413 15.576 34.168 15.448V16.696C33.7413 16.856 33.2987 16.9733 32.84 17.048C32.392 17.1227 31.8533 17.16 31.224 17.16C30.0613 17.16 29.0907 16.92 28.312 16.44C27.5333 15.96 26.9467 15.2773 26.552 14.392C26.168 13.5067 25.976 12.4667 25.976 11.272C25.976 10.12 26.184 9.10667 26.6 8.232C27.0267 7.34667 27.6507 6.65867 28.472 6.168C29.2933 5.66667 30.2907 5.416 31.464 5.416C32.6693 5.416 33.72 5.64 34.616 6.088L34.04 7.304C33.688 7.144 33.2933 7 32.856 6.872C32.4293 6.744 31.96 6.68 31.448 6.68ZM43.9254 12.696C43.9254 14.1147 43.5627 15.2133 42.8374 15.992C42.1227 16.7707 41.152 17.16 39.9254 17.16C39.168 17.16 38.4907 16.9893 37.8934 16.648C37.3067 16.296 36.8427 15.7893 36.5014 15.128C36.16 14.456 35.9894 13.6453 35.9894 12.696C35.9894 11.2773 36.3467 10.184 37.0614 9.416C37.776 8.648 38.7467 8.264 39.9734 8.264C40.752 8.264 41.4347 8.44 42.0214 8.792C42.6187 9.13333 43.0827 9.63467 43.4134 10.296C43.7547 10.9467 43.9254 11.7467 43.9254 12.696ZM37.4454 12.696C37.4454 13.7093 37.6427 14.5147 38.0374 15.112C38.4427 15.6987 39.0827 15.992 39.9574 15.992C40.8214 15.992 41.456 15.6987 41.8614 15.112C42.2667 14.5147 42.4694 13.7093 42.4694 12.696C42.4694 11.6827 42.2667 10.888 41.8614 10.312C41.456 9.736 40.816 9.448 39.9414 9.448C39.0667 9.448 38.432 9.736 38.0374 10.312C37.6427 10.888 37.4454 11.6827 37.4454 12.696ZM55.5649 8.264C56.5355 8.264 57.2609 8.51467 57.7409 9.016C58.2209 9.50667 58.4609 10.3067 58.4609 11.416V17H57.0689V11.48C57.0689 10.1253 56.4875 9.448 55.3249 9.448C54.4929 9.448 53.8955 9.688 53.5329 10.168C53.1809 10.648 53.0049 11.3467 53.0049 12.264V17H51.6129V11.48C51.6129 10.1253 51.0262 9.448 49.8529 9.448C48.9889 9.448 48.3915 9.71467 48.0609 10.248C47.7302 10.7813 47.5649 11.5493 47.5649 12.552V17H46.1569V8.424H47.2929L47.5009 9.592H47.5809C47.8475 9.144 48.2049 8.81333 48.6529 8.6C49.1115 8.376 49.5969 8.264 50.1089 8.264C51.4529 8.264 52.3275 8.744 52.7329 9.704H52.8129C53.1009 9.21333 53.4902 8.85067 53.9809 8.616C54.4822 8.38133 55.0102 8.264 55.5649 8.264ZM65.19 8.264C66.246 8.264 67.094 8.632 67.734 9.368C68.3847 10.104 68.71 11.2133 68.71 12.696C68.71 14.1573 68.3847 15.2667 67.734 16.024C67.094 16.7813 66.2407 17.16 65.174 17.16C64.5127 17.16 63.9633 17.0373 63.526 16.792C63.0993 16.536 62.7633 16.2427 62.518 15.912H62.422C62.4433 16.0933 62.4647 16.3227 62.486 16.6C62.5073 16.8773 62.518 17.1173 62.518 17.32V20.84H61.11V8.424H62.262L62.454 9.592H62.518C62.774 9.21867 63.11 8.904 63.526 8.648C63.942 8.392 64.4967 8.264 65.19 8.264ZM64.934 9.448C64.0593 9.448 63.4407 9.69333 63.078 10.184C62.726 10.6747 62.5393 11.4213 62.518 12.424V12.696C62.518 13.752 62.6887 14.568 63.03 15.144C63.382 15.7093 64.0273 15.992 64.966 15.992C65.4887 15.992 65.9153 15.848 66.246 15.56C66.5873 15.272 66.838 14.8827 66.998 14.392C67.1687 13.8907 67.254 13.32 67.254 12.68C67.254 11.6987 67.062 10.9147 66.678 10.328C66.3047 9.74133 65.7233 9.448 64.934 9.448ZM72.3618 17H70.9538V4.84H72.3618V17ZM75.7988 5.208C76.0121 5.208 76.1988 5.28267 76.3588 5.432C76.5294 5.57067 76.6148 5.79467 76.6148 6.104C76.6148 6.40267 76.5294 6.62667 76.3588 6.776C76.1988 6.92533 76.0121 7 75.7988 7C75.5641 7 75.3668 6.92533 75.2068 6.776C75.0468 6.62667 74.9668 6.40267 74.9668 6.104C74.9668 5.79467 75.0468 5.57067 75.2068 5.432C75.3668 5.28267 75.5641 5.208 75.7988 5.208ZM76.4868 8.424V17H75.0788V8.424H76.4868ZM82.4518 8.28C83.4971 8.28 84.2704 8.50933 84.7718 8.968C85.2731 9.42667 85.5238 10.1573 85.5238 11.16V17H84.4998L84.2278 15.784H84.1638C83.7904 16.2533 83.3958 16.6 82.9798 16.824C82.5744 17.048 82.0091 17.16 81.2838 17.16C80.5051 17.16 79.8598 16.9573 79.3478 16.552C78.8358 16.136 78.5798 15.4907 78.5798 14.616C78.5798 13.7627 78.9158 13.1067 79.5878 12.648C80.2598 12.1787 81.2944 11.9227 82.6918 11.88L84.1478 11.832V11.32C84.1478 10.6053 83.9931 10.1093 83.6838 9.832C83.3744 9.55467 82.9371 9.416 82.3718 9.416C81.9238 9.416 81.4971 9.48533 81.0918 9.624C80.6864 9.752 80.3078 9.90133 79.9557 10.072L79.5238 9.016C79.8971 8.81333 80.3398 8.64267 80.8518 8.504C81.3638 8.35467 81.8971 8.28 82.4518 8.28ZM82.8678 12.856C81.8011 12.8987 81.0598 13.0693 80.6438 13.368C80.2384 13.6667 80.0358 14.088 80.0358 14.632C80.0358 15.112 80.1798 15.464 80.4678 15.688C80.7664 15.912 81.1451 16.024 81.6038 16.024C82.3291 16.024 82.9318 15.8267 83.4118 15.432C83.8918 15.0267 84.1318 14.408 84.1318 13.576V12.808L82.8678 12.856ZM92.3005 8.264C93.3245 8.264 94.0978 8.51467 94.6205 9.016C95.1432 9.50667 95.4045 10.3067 95.4045 11.416V17H94.0125V11.512C94.0125 10.136 93.3725 9.448 92.0925 9.448C91.1432 9.448 90.4872 9.71467 90.1245 10.248C89.7618 10.7813 89.5805 11.5493 89.5805 12.552V17H88.1725V8.424H89.3085L89.5165 9.592H89.5965C89.8738 9.144 90.2578 8.81333 90.7485 8.6C91.2392 8.376 91.7565 8.264 92.3005 8.264ZM101.503 17.16C100.746 17.16 100.068 17.0053 99.4711 16.696C98.8845 16.3867 98.4205 15.9067 98.0791 15.256C97.7485 14.6053 97.5831 13.7733 97.5831 12.76C97.5831 11.704 97.7591 10.8453 98.1111 10.184C98.4631 9.52267 98.9378 9.03733 99.5351 8.728C100.143 8.41867 100.831 8.264 101.599 8.264C102.036 8.264 102.458 8.312 102.863 8.408C103.268 8.49333 103.599 8.6 103.855 8.728L103.423 9.896C103.167 9.8 102.868 9.70933 102.527 9.624C102.186 9.53867 101.866 9.496 101.567 9.496C99.8818 9.496 99.0391 10.5787 99.0391 12.744C99.0391 13.7787 99.2418 14.5733 99.6471 15.128C100.063 15.672 100.676 15.944 101.487 15.944C101.956 15.944 102.367 15.896 102.719 15.8C103.082 15.704 103.412 15.5867 103.711 15.448V16.696C103.423 16.8453 103.103 16.9573 102.751 17.032C102.41 17.1173 101.994 17.16 101.503 17.16ZM109.063 8.264C109.799 8.264 110.428 8.424 110.951 8.744C111.484 9.064 111.889 9.51733 112.167 10.104C112.455 10.68 112.599 11.3573 112.599 12.136V12.984H106.727C106.748 13.9547 106.993 14.696 107.463 15.208C107.943 15.7093 108.609 15.96 109.463 15.96C110.007 15.96 110.487 15.912 110.903 15.816C111.329 15.7093 111.767 15.56 112.215 15.368V16.6C111.777 16.792 111.345 16.9307 110.919 17.016C110.492 17.112 109.985 17.16 109.399 17.16C108.588 17.16 107.868 16.9947 107.239 16.664C106.62 16.3333 106.135 15.8427 105.783 15.192C105.441 14.5307 105.271 13.7253 105.271 12.776C105.271 11.8373 105.425 11.032 105.735 10.36C106.055 9.688 106.497 9.17067 107.063 8.808C107.639 8.44533 108.305 8.264 109.063 8.264ZM109.047 9.416C108.375 9.416 107.841 9.63467 107.447 10.072C107.063 10.4987 106.833 11.096 106.759 11.864H111.127C111.116 11.1387 110.945 10.552 110.615 10.104C110.284 9.64533 109.761 9.416 109.047 9.416ZM126.298 17L124.922 13.464H120.394L119.034 17H117.578L122.042 5.528H123.338L127.786 17H126.298ZM123.21 8.728C123.178 8.64267 123.125 8.488 123.05 8.264C122.975 8.04 122.901 7.81067 122.826 7.576C122.762 7.33067 122.709 7.144 122.666 7.016C122.591 7.34667 122.506 7.672 122.41 7.992C122.314 8.30133 122.234 8.54667 122.17 8.728L120.874 12.184H124.49L123.21 8.728ZM136.325 8.424V17H135.173L134.965 15.864H134.901C134.624 16.312 134.24 16.6427 133.749 16.856C133.258 17.0587 132.736 17.16 132.181 17.16C131.146 17.16 130.368 16.9147 129.845 16.424C129.322 15.9227 129.061 15.128 129.061 14.04V8.424H130.485V13.944C130.485 15.3093 131.12 15.992 132.389 15.992C133.338 15.992 133.994 15.7253 134.357 15.192C134.73 14.6587 134.917 13.8907 134.917 12.888V8.424H136.325ZM142.088 17.16C141.021 17.16 140.168 16.792 139.528 16.056C138.888 15.3093 138.568 14.2 138.568 12.728C138.568 11.256 138.888 10.1467 139.528 9.4C140.178 8.64267 141.037 8.264 142.104 8.264C142.765 8.264 143.304 8.38667 143.72 8.632C144.146 8.87733 144.493 9.176 144.76 9.528H144.856C144.845 9.38933 144.824 9.18667 144.792 8.92C144.77 8.64267 144.76 8.424 144.76 8.264V4.84H146.168V17H145.032L144.824 15.848H144.76C144.504 16.2107 144.162 16.52 143.736 16.776C143.309 17.032 142.76 17.16 142.088 17.16ZM142.312 15.992C143.218 15.992 143.853 15.7467 144.216 15.256C144.589 14.7547 144.776 14.0027 144.776 13V12.744C144.776 11.6773 144.6 10.8613 144.248 10.296C143.896 9.72 143.245 9.432 142.296 9.432C141.538 9.432 140.968 9.736 140.584 10.344C140.21 10.9413 140.024 11.7467 140.024 12.76C140.024 13.784 140.21 14.5787 140.584 15.144C140.968 15.7093 141.544 15.992 142.312 15.992ZM149.611 5.208C149.825 5.208 150.011 5.28267 150.171 5.432C150.342 5.57067 150.427 5.79467 150.427 6.104C150.427 6.40267 150.342 6.62667 150.171 6.776C150.011 6.92533 149.825 7 149.611 7C149.377 7 149.179 6.92533 149.019 6.776C148.859 6.62667 148.779 6.40267 148.779 6.104C148.779 5.79467 148.859 5.57067 149.019 5.432C149.179 5.28267 149.377 5.208 149.611 5.208ZM150.299 8.424V17H148.891V8.424H150.299ZM155.88 16.008C156.094 16.008 156.312 15.992 156.536 15.96C156.76 15.9173 156.942 15.8747 157.08 15.832V16.904C156.931 16.9787 156.718 17.0373 156.44 17.08C156.163 17.1333 155.896 17.16 155.64 17.16C155.192 17.16 154.776 17.0853 154.392 16.936C154.019 16.776 153.715 16.504 153.48 16.12C153.246 15.736 153.128 15.1973 153.128 14.504V9.512H151.912V8.84L153.144 8.28L153.704 6.456H154.536V8.424H157.016V9.512H154.536V14.472C154.536 14.9947 154.659 15.384 154.904 15.64C155.16 15.8853 155.486 16.008 155.88 16.008ZM164.382 14.632C164.382 15.464 164.072 16.0933 163.454 16.52C162.835 16.9467 162.003 17.16 160.958 17.16C160.36 17.16 159.843 17.112 159.406 17.016C158.979 16.92 158.6 16.7867 158.27 16.616V15.336C158.611 15.5067 159.022 15.6667 159.502 15.816C159.992 15.9547 160.488 16.024 160.99 16.024C161.704 16.024 162.222 15.912 162.542 15.688C162.862 15.4533 163.022 15.144 163.022 14.76C163.022 14.5467 162.963 14.3547 162.846 14.184C162.728 14.0133 162.515 13.8427 162.206 13.672C161.907 13.5013 161.475 13.3093 160.91 13.096C160.355 12.8827 159.88 12.6693 159.486 12.456C159.091 12.2427 158.787 11.9867 158.574 11.688C158.36 11.3893 158.254 11.0053 158.254 10.536C158.254 9.81067 158.547 9.25067 159.134 8.856C159.731 8.46133 160.51 8.264 161.47 8.264C161.992 8.264 162.478 8.31733 162.926 8.424C163.384 8.52 163.811 8.65867 164.206 8.84L163.726 9.96C163.363 9.81067 162.984 9.68267 162.59 9.576C162.195 9.46933 161.79 9.416 161.374 9.416C160.798 9.416 160.355 9.512 160.046 9.704C159.747 9.88533 159.598 10.136 159.598 10.456C159.598 10.6907 159.667 10.8933 159.806 11.064C159.944 11.224 160.174 11.384 160.494 11.544C160.824 11.6933 161.262 11.8747 161.806 12.088C162.35 12.2907 162.814 12.4987 163.198 12.712C163.582 12.9253 163.875 13.1867 164.078 13.496C164.28 13.7947 164.382 14.1733 164.382 14.632ZM174.114 5.4C174.967 5.4 175.639 5.61867 176.13 6.056C176.631 6.48267 176.882 7.08533 176.882 7.864C176.882 8.536 176.663 9.10667 176.226 9.576C175.799 10.0453 175.255 10.472 174.594 10.856L177.682 13.832C177.959 13.5013 178.183 13.1227 178.354 12.696C178.535 12.2587 178.685 11.7893 178.802 11.288H180.226C180.055 11.9707 179.842 12.6053 179.586 13.192C179.33 13.7787 178.999 14.2907 178.594 14.728L180.93 17H179.026L177.634 15.656C177.133 16.104 176.573 16.4667 175.954 16.744C175.335 17.0213 174.583 17.16 173.698 17.16C172.599 17.16 171.725 16.888 171.074 16.344C170.423 15.8 170.098 15.0267 170.098 14.024C170.098 13.2027 170.317 12.5467 170.754 12.056C171.202 11.5547 171.805 11.0907 172.562 10.664C172.221 10.28 171.901 9.86933 171.602 9.432C171.314 8.99467 171.17 8.48267 171.17 7.896C171.17 7.10667 171.431 6.49333 171.954 6.056C172.487 5.61867 173.207 5.4 174.114 5.4ZM174.066 6.552C173.618 6.552 173.25 6.66933 172.962 6.904C172.685 7.13867 172.546 7.464 172.546 7.88C172.546 8.264 172.647 8.62133 172.85 8.952C173.053 9.272 173.346 9.62933 173.73 10.024C174.359 9.66133 174.807 9.32 175.074 9C175.351 8.66933 175.49 8.29067 175.49 7.864C175.49 7.48 175.362 7.16533 175.106 6.92C174.85 6.67467 174.503 6.552 174.066 6.552ZM173.41 11.544C172.834 11.8853 172.381 12.232 172.05 12.584C171.73 12.936 171.57 13.4 171.57 13.976C171.57 14.5627 171.767 15.032 172.162 15.384C172.557 15.736 173.085 15.912 173.746 15.912C174.429 15.912 175.015 15.8 175.506 15.576C175.997 15.352 176.407 15.0853 176.738 14.776L173.41 11.544ZM190.293 17H188.853V6.84H185.285V5.576H193.845V6.84H190.293V17ZM198.579 8.264C198.739 8.264 198.909 8.27467 199.091 8.296C199.283 8.30667 199.448 8.328 199.587 8.36L199.411 9.656C199.272 9.624 199.117 9.59733 198.947 9.576C198.787 9.55467 198.632 9.544 198.483 9.544C198.045 9.544 197.635 9.66667 197.251 9.912C196.867 10.1467 196.557 10.4827 196.323 10.92C196.099 11.3467 195.987 11.848 195.987 12.424V17H194.579V8.424H195.731L195.891 9.992H195.955C196.232 9.52267 196.589 9.11733 197.027 8.776C197.464 8.43467 197.981 8.264 198.579 8.264ZM204.124 8.28C205.169 8.28 205.942 8.50933 206.444 8.968C206.945 9.42667 207.196 10.1573 207.196 11.16V17H206.172L205.9 15.784H205.836C205.462 16.2533 205.068 16.6 204.652 16.824C204.246 17.048 203.681 17.16 202.956 17.16C202.177 17.16 201.532 16.9573 201.02 16.552C200.508 16.136 200.252 15.4907 200.252 14.616C200.252 13.7627 200.588 13.1067 201.26 12.648C201.932 12.1787 202.966 11.9227 204.364 11.88L205.82 11.832V11.32C205.82 10.6053 205.665 10.1093 205.356 9.832C205.046 9.55467 204.609 9.416 204.044 9.416C203.596 9.416 203.169 9.48533 202.764 9.624C202.358 9.752 201.98 9.90133 201.628 10.072L201.196 9.016C201.569 8.81333 202.012 8.64267 202.524 8.504C203.036 8.35467 203.569 8.28 204.124 8.28ZM204.54 12.856C203.473 12.8987 202.732 13.0693 202.316 13.368C201.91 13.6667 201.708 14.088 201.708 14.632C201.708 15.112 201.852 15.464 202.14 15.688C202.438 15.912 202.817 16.024 203.276 16.024C204.001 16.024 204.604 15.8267 205.084 15.432C205.564 15.0267 205.804 14.408 205.804 13.576V12.808L204.54 12.856ZM210.564 5.208C210.778 5.208 210.964 5.28267 211.124 5.432C211.295 5.57067 211.38 5.79467 211.38 6.104C211.38 6.40267 211.295 6.62667 211.124 6.776C210.964 6.92533 210.778 7 210.564 7C210.33 7 210.132 6.92533 209.972 6.776C209.812 6.62667 209.732 6.40267 209.732 6.104C209.732 5.79467 209.812 5.57067 209.972 5.432C210.132 5.28267 210.33 5.208 210.564 5.208ZM211.252 8.424V17H209.844V8.424H211.252ZM218.097 8.264C219.121 8.264 219.895 8.51467 220.417 9.016C220.94 9.50667 221.201 10.3067 221.201 11.416V17H219.809V11.512C219.809 10.136 219.169 9.448 217.889 9.448C216.94 9.448 216.284 9.71467 215.921 10.248C215.559 10.7813 215.377 11.5493 215.377 12.552V17H213.969V8.424H215.105L215.313 9.592H215.393C215.671 9.144 216.055 8.81333 216.545 8.6C217.036 8.376 217.553 8.264 218.097 8.264ZM224.58 5.208C224.793 5.208 224.98 5.28267 225.14 5.432C225.311 5.57067 225.396 5.79467 225.396 6.104C225.396 6.40267 225.311 6.62667 225.14 6.776C224.98 6.92533 224.793 7 224.58 7C224.345 7 224.148 6.92533 223.988 6.776C223.828 6.62667 223.748 6.40267 223.748 6.104C223.748 5.79467 223.828 5.57067 223.988 5.432C224.148 5.28267 224.345 5.208 224.58 5.208ZM225.268 8.424V17H223.86V8.424H225.268ZM232.113 8.264C233.137 8.264 233.91 8.51467 234.433 9.016C234.956 9.50667 235.217 10.3067 235.217 11.416V17H233.825V11.512C233.825 10.136 233.185 9.448 231.905 9.448C230.956 9.448 230.3 9.71467 229.937 10.248C229.574 10.7813 229.393 11.5493 229.393 12.552V17H227.985V8.424H229.121L229.329 9.592H229.409C229.686 9.144 230.07 8.81333 230.561 8.6C231.052 8.376 231.569 8.264 232.113 8.264ZM240.916 8.264C241.481 8.264 241.988 8.37067 242.436 8.584C242.894 8.79733 243.284 9.12267 243.604 9.56H243.684L243.876 8.424H244.996V17.144C244.996 18.3707 244.681 19.2933 244.052 19.912C243.433 20.5307 242.468 20.84 241.156 20.84C239.897 20.84 238.868 20.6587 238.068 20.296V19C238.91 19.448 239.966 19.672 241.236 19.672C241.972 19.672 242.548 19.4533 242.964 19.016C243.39 18.5893 243.604 18.0027 243.604 17.256V16.92C243.604 16.792 243.609 16.6107 243.62 16.376C243.63 16.1307 243.641 15.96 243.652 15.864H243.588C243.012 16.728 242.126 17.16 240.932 17.16C239.822 17.16 238.953 16.7707 238.324 15.992C237.705 15.2133 237.396 14.1253 237.396 12.728C237.396 11.3627 237.705 10.28 238.324 9.48C238.953 8.66933 239.817 8.264 240.916 8.264ZM241.108 9.448C240.393 9.448 239.838 9.736 239.444 10.312C239.049 10.8773 238.852 11.688 238.852 12.744C238.852 13.8 239.044 14.6107 239.428 15.176C239.822 15.7307 240.393 16.008 241.14 16.008C242.004 16.008 242.633 15.7787 243.028 15.32C243.422 14.8507 243.62 14.0987 243.62 13.064V12.728C243.62 11.5547 243.417 10.7173 243.012 10.216C242.606 9.704 241.972 9.448 241.108 9.448Z" fill="#163A24"/>
<path d="M29.576 79.576C31.0693 79.576 32.1573 79.8693 32.84 80.456C33.5227 81.0427 33.864 81.8693 33.864 82.936C33.864 83.5653 33.72 84.1573 33.432 84.712C33.1547 85.256 32.68 85.6987 32.008 86.04C31.3467 86.3813 30.4453 86.552 29.304 86.552H27.992V91H26.552V79.576H29.576ZM29.448 80.808H27.992V85.32H29.144C30.232 85.32 31.0427 85.144 31.576 84.792C32.1093 84.44 32.376 83.8427 32.376 83C32.376 82.264 32.1413 81.7147 31.672 81.352C31.2027 80.9893 30.4613 80.808 29.448 80.808ZM43.5035 86.696C43.5035 88.1147 43.1408 89.2133 42.4155 89.992C41.7008 90.7707 40.7302 91.16 39.5035 91.16C38.7462 91.16 38.0688 90.9893 37.4715 90.648C36.8848 90.296 36.4208 89.7893 36.0795 89.128C35.7382 88.456 35.5675 87.6453 35.5675 86.696C35.5675 85.2773 35.9248 84.184 36.6395 83.416C37.3542 82.648 38.3248 82.264 39.5515 82.264C40.3302 82.264 41.0128 82.44 41.5995 82.792C42.1968 83.1333 42.6608 83.6347 42.9915 84.296C43.3328 84.9467 43.5035 85.7467 43.5035 86.696ZM37.0235 86.696C37.0235 87.7093 37.2208 88.5147 37.6155 89.112C38.0208 89.6987 38.6608 89.992 39.5355 89.992C40.3995 89.992 41.0342 89.6987 41.4395 89.112C41.8448 88.5147 42.0475 87.7093 42.0475 86.696C42.0475 85.6827 41.8448 84.888 41.4395 84.312C41.0342 83.736 40.3942 83.448 39.5195 83.448C38.6448 83.448 38.0102 83.736 37.6155 84.312C37.2208 84.888 37.0235 85.6827 37.0235 86.696ZM47.143 91H45.735V78.84H47.143V91ZM50.58 79.208C50.7933 79.208 50.98 79.2827 51.14 79.432C51.3107 79.5707 51.396 79.7947 51.396 80.104C51.396 80.4027 51.3107 80.6267 51.14 80.776C50.98 80.9253 50.7933 81 50.58 81C50.3453 81 50.148 80.9253 49.988 80.776C49.828 80.6267 49.748 80.4027 49.748 80.104C49.748 79.7947 49.828 79.5707 49.988 79.432C50.148 79.2827 50.3453 79.208 50.58 79.208ZM51.268 82.424V91H49.86V82.424H51.268ZM57.425 91.16C56.6677 91.16 55.9903 91.0053 55.393 90.696C54.8063 90.3867 54.3423 89.9067 54.001 89.256C53.6703 88.6053 53.505 87.7733 53.505 86.76C53.505 85.704 53.681 84.8453 54.033 84.184C54.385 83.5227 54.8597 83.0373 55.457 82.728C56.065 82.4187 56.753 82.264 57.521 82.264C57.9583 82.264 58.3797 82.312 58.785 82.408C59.1903 82.4933 59.521 82.6 59.777 82.728L59.345 83.896C59.089 83.8 58.7903 83.7093 58.449 83.624C58.1077 83.5387 57.7877 83.496 57.489 83.496C55.8037 83.496 54.961 84.5787 54.961 86.744C54.961 87.7787 55.1637 88.5733 55.569 89.128C55.985 89.672 56.5983 89.944 57.409 89.944C57.8783 89.944 58.289 89.896 58.641 89.8C59.0037 89.704 59.3343 89.5867 59.633 89.448V90.696C59.345 90.8453 59.025 90.9573 58.673 91.032C58.3317 91.1173 57.9157 91.16 57.425 91.16ZM60.3285 82.424H61.8325L63.6885 87.304C63.8485 87.7307 63.9925 88.1413 64.1205 88.536C64.2485 88.92 64.3445 89.288 64.4085 89.64H64.4725C64.5365 89.3733 64.6378 89.0267 64.7765 88.6C64.9152 88.1627 65.0592 87.7253 65.2085 87.288L66.9525 82.424H68.4725L64.7765 92.184C64.4778 92.9947 64.0885 93.64 63.6085 94.12C63.1392 94.6 62.4885 94.84 61.6565 94.84C61.4005 94.84 61.1765 94.824 60.9845 94.792C60.7925 94.7707 60.6272 94.744 60.4885 94.712V93.592C60.6058 93.6133 60.7445 93.6347 60.9045 93.656C61.0752 93.6773 61.2512 93.688 61.4325 93.688C61.9232 93.688 62.3178 93.5493 62.6165 93.272C62.9258 92.9947 63.1658 92.6267 63.3365 92.168L63.7845 91.032L60.3285 82.424ZM83.329 85.176C83.329 87.1067 82.801 88.5627 81.745 89.544C80.6997 90.5147 79.2383 91 77.361 91H74.177V79.576H77.697C78.849 79.576 79.8463 79.7893 80.689 80.216C81.5317 80.6427 82.1823 81.272 82.641 82.104C83.0997 82.9253 83.329 83.9493 83.329 85.176ZM81.809 85.224C81.809 83.6987 81.4303 82.584 80.673 81.88C79.9263 81.1653 78.865 80.808 77.489 80.808H75.617V89.768H77.169C80.2623 89.768 81.809 88.2533 81.809 85.224ZM89.6725 82.264C89.8325 82.264 90.0032 82.2747 90.1845 82.296C90.3765 82.3067 90.5418 82.328 90.6805 82.36L90.5045 83.656C90.3658 83.624 90.2112 83.5973 90.0405 83.576C89.8805 83.5547 89.7258 83.544 89.5765 83.544C89.1392 83.544 88.7285 83.6667 88.3445 83.912C87.9605 84.1467 87.6512 84.4827 87.4165 84.92C87.1925 85.3467 87.0805 85.848 87.0805 86.424V91H85.6725V82.424H86.8245L86.9845 83.992H87.0485C87.3258 83.5227 87.6832 83.1173 88.1205 82.776C88.5578 82.4347 89.0752 82.264 89.6725 82.264ZM95.2174 82.28C96.2627 82.28 97.036 82.5093 97.5374 82.968C98.0387 83.4267 98.2894 84.1573 98.2894 85.16V91H97.2654L96.9934 89.784H96.9294C96.556 90.2533 96.1614 90.6 95.7454 90.824C95.34 91.048 94.7747 91.16 94.0494 91.16C93.2707 91.16 92.6254 90.9573 92.1134 90.552C91.6014 90.136 91.3454 89.4907 91.3454 88.616C91.3454 87.7627 91.6814 87.1067 92.3534 86.648C93.0254 86.1787 94.06 85.9227 95.4574 85.88L96.9134 85.832V85.32C96.9134 84.6053 96.7587 84.1093 96.4494 83.832C96.14 83.5547 95.7027 83.416 95.1374 83.416C94.6894 83.416 94.2627 83.4853 93.8574 83.624C93.452 83.752 93.0734 83.9013 92.7214 84.072L92.2894 83.016C92.6627 82.8133 93.1054 82.6427 93.6174 82.504C94.1294 82.3547 94.6627 82.28 95.2174 82.28ZM95.6334 86.856C94.5667 86.8987 93.8254 87.0693 93.4094 87.368C93.004 87.6667 92.8014 88.088 92.8014 88.632C92.8014 89.112 92.9454 89.464 93.2334 89.688C93.532 89.912 93.9107 90.024 94.3694 90.024C95.0947 90.024 95.6974 89.8267 96.1774 89.432C96.6574 89.0267 96.8974 88.408 96.8974 87.576V86.808L95.6334 86.856ZM104.89 83.512H102.73V91H101.322V83.512H99.8181V82.856L101.322 82.376V81.88C101.322 80.7707 101.567 79.976 102.058 79.496C102.549 79.0053 103.231 78.76 104.106 78.76C104.447 78.76 104.757 78.792 105.034 78.856C105.322 78.9093 105.567 78.9733 105.77 79.048L105.402 80.152C105.231 80.0987 105.034 80.0453 104.81 79.992C104.586 79.9387 104.357 79.912 104.122 79.912C103.653 79.912 103.301 80.072 103.066 80.392C102.842 80.7013 102.73 81.192 102.73 81.864V82.424H104.89V83.512ZM109.302 90.008C109.515 90.008 109.734 89.992 109.958 89.96C110.182 89.9173 110.363 89.8747 110.502 89.832V90.904C110.353 90.9787 110.139 91.0373 109.862 91.08C109.585 91.1333 109.318 91.16 109.062 91.16C108.614 91.16 108.198 91.0853 107.814 90.936C107.441 90.776 107.137 90.504 106.902 90.12C106.667 89.736 106.55 89.1973 106.55 88.504V83.512H105.334V82.84L106.566 82.28L107.126 80.456H107.958V82.424H110.438V83.512H107.958V88.472C107.958 88.9947 108.081 89.384 108.326 89.64C108.582 89.8853 108.907 90.008 109.302 90.008ZM112.939 79.208C113.153 79.208 113.339 79.2827 113.499 79.432C113.67 79.5707 113.755 79.7947 113.755 80.104C113.755 80.4027 113.67 80.6267 113.499 80.776C113.339 80.9253 113.153 81 112.939 81C112.705 81 112.507 80.9253 112.347 80.776C112.187 80.6267 112.107 80.4027 112.107 80.104C112.107 79.7947 112.187 79.5707 112.347 79.432C112.507 79.2827 112.705 79.208 112.939 79.208ZM113.627 82.424V91H112.219V82.424H113.627ZM120.472 82.264C121.496 82.264 122.27 82.5147 122.792 83.016C123.315 83.5067 123.576 84.3067 123.576 85.416V91H122.184V85.512C122.184 84.136 121.544 83.448 120.264 83.448C119.315 83.448 118.659 83.7147 118.296 84.248C117.934 84.7813 117.752 85.5493 117.752 86.552V91H116.344V82.424H117.48L117.688 83.592H117.768C118.046 83.144 118.43 82.8133 118.92 82.6C119.411 82.376 119.928 82.264 120.472 82.264ZM129.275 82.264C129.84 82.264 130.347 82.3707 130.795 82.584C131.254 82.7973 131.643 83.1227 131.963 83.56H132.043L132.235 82.424H133.355V91.144C133.355 92.3707 133.04 93.2933 132.411 93.912C131.792 94.5307 130.827 94.84 129.515 94.84C128.256 94.84 127.227 94.6587 126.427 94.296V93C127.27 93.448 128.326 93.672 129.595 93.672C130.331 93.672 130.907 93.4533 131.323 93.016C131.75 92.5893 131.963 92.0027 131.963 91.256V90.92C131.963 90.792 131.968 90.6107 131.979 90.376C131.99 90.1307 132 89.96 132.011 89.864H131.947C131.371 90.728 130.486 91.16 129.291 91.16C128.182 91.16 127.312 90.7707 126.683 89.992C126.064 89.2133 125.755 88.1253 125.755 86.728C125.755 85.3627 126.064 84.28 126.683 83.48C127.312 82.6693 128.176 82.264 129.275 82.264ZM129.467 83.448C128.752 83.448 128.198 83.736 127.803 84.312C127.408 84.8773 127.211 85.688 127.211 86.744C127.211 87.8 127.403 88.6107 127.787 89.176C128.182 89.7307 128.752 90.008 129.499 90.008C130.363 90.008 130.992 89.7787 131.387 89.32C131.782 88.8507 131.979 88.0987 131.979 87.064V86.728C131.979 85.5547 131.776 84.7173 131.371 84.216C130.966 83.704 130.331 83.448 129.467 83.448Z" fill="#163A24"/>
<circle cx="10" cy="11" r="4" fill="#163A24"/>
<circle cx="10" cy="48" r="4" fill="#163A24"/>
<circle cx="10" cy="85" r="4" fill="#163A24"/>
</svg>
