<svg width="104" height="177" viewBox="0 0 104 177" fill="none" xmlns="http://www.w3.org/2000/svg">
<path d="M85.6778 134.689C87.9638 137.223 89.9476 141.289 90.0133 144.697C90.0352 145.971 89.8775 147.297 89.0279 148.316C88.7441 148.659 88.3823 148.93 87.9726 149.104C86.3084 149.782 84.907 148.527 84.1581 147.161C82.6166 144.299 82.9407 140.637 81.0926 137.971C81.3327 139.16 81.2749 140.389 80.9242 141.55C80.5734 142.71 79.9407 143.766 79.0825 144.623C78.9896 144.717 78.8699 144.779 78.7399 144.802C78.6099 144.825 78.476 144.808 78.3565 144.752C78.237 144.695 78.1378 144.604 78.0726 144.489C78.0073 144.374 77.9792 144.242 77.9921 144.111C78.2227 141.615 78.2607 139.104 78.1059 136.602L85.6778 134.689Z" fill="#FFC9A0"/>
<path d="M86.7856 136.072L78.154 137.858L78.1277 137.249L86.0631 135.136L86.7856 136.072Z" fill="#EFB086"/>
<path d="M86.4179 140.304C87.0193 141.594 87.4973 142.937 87.8456 144.317C88.1633 145.706 88.4045 147.111 88.5682 148.527C88.5715 148.669 88.6291 148.804 88.7293 148.905C88.8295 149.006 88.9646 149.065 89.1068 149.069C89.3739 149.069 89.6893 148.815 89.6498 148.527C89.4772 147.021 89.2214 145.527 88.8835 144.05C88.5031 142.582 87.9886 141.152 87.3463 139.779C87.0617 139.144 86.1245 139.696 86.4091 140.326L86.4179 140.304Z" fill="#EFB086"/>
<path d="M84.145 141.149C84.7438 142.439 85.2216 143.783 85.5726 145.161C85.8902 146.55 86.13 147.956 86.2908 149.371C86.2962 149.513 86.3552 149.648 86.4559 149.749C86.5565 149.849 86.6915 149.908 86.8338 149.914C86.9053 149.914 86.9762 149.901 87.0423 149.874C87.1085 149.847 87.1686 149.807 87.2191 149.756C87.2697 149.706 87.3096 149.646 87.3367 149.579C87.3638 149.513 87.3775 149.443 87.3769 149.371C87.2076 147.859 86.9546 146.357 86.6192 144.873C86.2389 143.405 85.7244 141.975 85.0821 140.602C84.7974 139.967 83.8603 140.518 84.145 141.149Z" fill="#EFB086"/>
<path d="M10.931 131.53C8.45224 133.871 6.14867 137.766 5.81584 141.157C5.69322 142.422 5.74581 143.757 6.5122 144.842C6.76821 145.208 7.10741 145.508 7.50194 145.717C9.10479 146.522 10.6113 145.385 11.4434 144.076C13.1951 141.35 12.7572 138.724 14.8067 136.199C14.7015 137.236 14.8177 138.284 15.1476 139.273C15.4775 140.262 16.0136 141.17 16.7205 141.936C16.8066 142.037 16.9221 142.109 17.0508 142.141C17.1795 142.174 17.3151 142.165 17.4389 142.117C17.5626 142.069 17.6683 141.984 17.7412 141.873C17.8142 141.762 17.8508 141.631 17.846 141.499C17.8138 138.991 17.9748 136.485 18.3277 134.002L10.931 131.53Z" fill="#FFC9A0"/>
<path d="M8.92957 133.81L18.0867 135.994L18.2488 134.676L10.5105 131.941L8.92957 133.81Z" fill="#EFB086"/>
<path d="M8.82884 136.484C8.09555 137.781 7.47999 139.142 6.98949 140.549C6.54254 141.973 6.17555 143.421 5.89025 144.886C5.74572 145.568 6.79242 145.857 6.93694 145.175C7.2152 143.747 7.57047 142.336 8.00117 140.947C8.46028 139.583 9.04679 138.264 9.75295 137.009C10.0902 136.396 9.15296 135.849 8.81575 136.462L8.82884 136.484Z" fill="#EFB086"/>
<path d="M11.0272 137.508C10.2911 138.81 9.6755 140.177 9.18793 141.591C8.73751 143.014 8.36903 144.462 8.08434 145.927C7.93982 146.61 8.98648 146.899 9.131 146.216C9.41132 144.789 9.7665 143.378 10.1951 141.989C10.6534 140.624 11.2399 139.305 11.9469 138.05C12.2841 137.438 11.3469 136.891 11.0097 137.503L11.0272 137.508Z" fill="#EFB086"/>
<path d="M80.4182 171.225C80.2431 171.02 79.8796 171.063 79.7088 170.853C78.8066 169.724 78.5614 167.58 77.957 166.81C77.4029 166.154 76.7178 165.62 75.9457 165.243C75.1735 164.867 74.3312 164.655 73.4726 164.622C66.1328 164.377 59.1915 165.44 52.6663 162.071L52.5612 170.214C52.511 171.76 52.6182 173.307 52.8809 174.831C52.9553 175.334 53.0735 175.903 53.5159 176.144C53.7902 176.267 54.0929 176.314 54.3917 176.28L59.0426 176.223C59.2532 176.218 59.4551 176.137 59.6111 175.996C59.7672 175.854 59.867 175.662 59.8922 175.453C59.9531 174.994 59.9309 174.529 59.8265 174.078C62.4541 176.166 61.806 176.293 63.8073 176.52C64.6044 176.608 66.2466 176.638 68.1867 176.638C68.3172 176.355 68.4787 176.086 68.6684 175.838C68.7056 175.779 68.761 175.735 68.8261 175.711C68.9312 175.689 69.0275 175.776 69.0976 175.86L69.7808 176.63C71.5019 176.63 73.3237 176.577 74.9353 176.538C75.0945 176.237 75.3339 175.985 75.6272 175.811C75.8418 176.03 76.0651 176.249 76.2359 176.503C77.5497 176.468 78.6052 176.433 79.2008 176.407C79.516 176.431 79.8289 176.336 80.0766 176.14C80.2378 175.93 80.3268 175.673 80.3306 175.409C80.5091 174.283 80.5984 173.144 80.5978 172.004C80.6318 171.732 80.5682 171.456 80.4182 171.225Z" fill="#32142A"/>
<path d="M52.5742 170.871C54.1114 171.033 56.1828 171.116 57.7243 171.16C61.7942 171.285 65.8656 171.294 69.9384 171.186C71.8171 171.133 73.7002 171.063 75.5746 170.91C76.7579 170.868 77.9329 170.694 79.0781 170.394C79.7437 170.184 80.0284 171.23 79.3671 171.44C78.011 171.789 76.6198 171.984 75.2199 172.022C71.1471 172.328 67.0436 172.359 62.9577 172.337C59.6776 172.337 55.8544 172.376 52.5918 172.03L52.5742 170.871Z" fill="#7F4341"/>
<path d="M23.5391 171.225C23.7143 171.02 24.0778 171.063 24.2442 170.853C25.1507 169.724 25.3959 167.58 25.9959 166.81C26.5509 166.153 27.2367 165.62 28.0096 165.243C28.7825 164.866 29.6255 164.655 30.4848 164.622C37.8246 164.377 45.1118 166.009 51.6371 162.639L51.5627 169.055C51.5593 170.99 51.3967 172.922 51.0766 174.831C51.0021 175.334 50.8838 175.903 50.4415 176.144C50.167 176.267 49.8645 176.313 49.5657 176.28L44.9191 176.223C44.7085 176.218 44.5067 176.137 44.3506 175.996C44.1946 175.854 44.0948 175.662 44.0696 175.453C44.0065 174.994 44.0287 174.528 44.1352 174.078C41.5076 176.166 42.1558 176.293 40.1544 176.52C39.353 176.608 37.7151 176.638 35.775 176.638C35.6461 176.355 35.486 176.086 35.2977 175.838C35.2605 175.779 35.2051 175.735 35.14 175.711C35.0349 175.689 34.9386 175.776 34.8685 175.859L34.1853 176.63C32.4642 176.63 30.638 176.577 29.0264 176.538C28.8697 176.235 28.6297 175.983 28.3345 175.811C28.1199 176.03 27.9228 176.249 27.7257 176.503C26.4119 176.468 25.3609 176.433 24.7653 176.406C24.6218 176.438 24.4728 176.435 24.3305 176.399C24.1881 176.362 24.0566 176.292 23.9464 176.195C23.8363 176.098 23.7507 175.976 23.6966 175.839C23.6426 175.702 23.6216 175.555 23.6354 175.409C23.4606 174.282 23.3727 173.144 23.3727 172.004C23.3324 171.733 23.3915 171.456 23.5391 171.225Z" fill="#32142A"/>
<path d="M51.4926 170.866C48.2562 171.212 44.3323 171.234 41.0872 171.251C37.0669 171.273 33.0379 171.251 29.0264 170.958C27.6268 170.931 26.2351 170.741 24.8791 170.394C24.2135 170.184 23.9244 171.23 24.5901 171.44C25.7612 171.748 26.9624 171.928 28.1724 171.978C30.0293 172.135 31.8905 172.21 33.7474 172.262C37.9078 172.379 42.0682 172.379 46.2286 172.262C47.7745 172.214 49.8853 172.153 51.4225 171.991" fill="#7F4341"/>
<path d="M65.8129 126.983L40.3733 126.76C40.8944 140.076 42.4009 153.375 43.6972 166.639L51.545 166.595C51.7158 156.876 52.0443 147.144 51.9042 137.429C51.9042 137.285 51.9614 137.147 52.0632 137.045C52.165 136.943 52.3032 136.886 52.4472 136.886C52.5912 136.886 52.7293 136.943 52.8311 137.045C52.933 137.147 52.9902 137.285 52.9902 137.429C53.0209 139.739 52.9902 142.054 52.9902 144.369C52.9158 151.774 52.7274 159.182 52.6179 166.586L58.749 166.556C61.635 153.813 63.6014 139.827 65.8129 126.983Z" fill="#32142A"/>
<path d="M17.2504 102.788C14.4432 94.6092 14.4782 85.7695 14.5396 77.1225C14.6228 65.8673 14.706 54.6077 15.3191 43.37C15.56 38.9939 15.884 34.5829 17.0708 30.36C19.4313 21.9711 25.1902 14.7156 32.4555 9.8888C39.7208 5.06201 48.4051 2.58079 57.1156 2.09067C64.0087 1.7012 71.0595 2.52827 77.3876 5.31582C83.7158 8.10336 89.282 12.8601 92.2775 19.0697C94.5635 23.7784 95.3167 29.069 95.7809 34.2809C97.9166 59.5099 93.6023 84.8674 83.2428 107.974" fill="#32142A"/>
<path d="M77.1599 16.361C78.3599 20.0325 79.8313 22.7938 83.0107 24.9949C83.3523 25.2356 86.2427 25.8701 86.4398 25.5201C86.6369 25.17 85.0472 24.3123 84.6881 24.076C81.8546 22.1155 78.9949 19.0873 77.5803 15.9584C76.5643 13.7441 76.8358 15.407 77.1424 16.361H77.1599Z" fill="#7F4341"/>
<path d="M75.3338 10.1426C85.1085 13.7879 91.3578 28.684 91.5812 30.7451C93.0833 44.4465 86.4792 66.1561 83.0107 79.1661C81.0357 86.5748 79.7219 89.9487 80.624 97.6243C80.7379 98.6002 82.2926 98.6133 82.1743 97.6243C80.497 83.3759 87.8412 68.5017 91.4979 55.0453C93.311 48.385 93.3548 41.6327 92.9957 34.6967C92.7198 29.3885 92.8774 28.2332 90.2761 23.5815C87.4295 18.4965 81.4342 11.4205 75.925 9.36371C74.9922 9.01363 74.5849 10.5102 75.5133 10.8559L75.3338 10.1426Z" fill="#7F4341"/>
<path d="M80.3876 62.3489C79.2139 53.5399 86.5187 48.013 86.4399 44.2714C86.4399 43.2868 85.4195 39.5847 85.2837 40.5693C84.1013 49.1945 78.2373 53.1198 79.8577 67.7009C79.9672 68.6767 80.6153 66.8256 80.4839 65.8541L80.3876 62.3489Z" fill="#7F4341"/>
<path d="M22.8034 89.0866C22.2516 70.9566 22.5844 69.9195 25.3959 58.1785C25.628 57.2114 27.1126 51.3606 25.2777 56.4281C21.0998 67.8933 20.3773 80.6277 20.6444 92.8281C20.6444 93.8215 22.2165 93.8258 22.1946 92.8281L22.8034 89.0866Z" fill="#7F4341"/>
<path d="M35.7092 74.7638C35.7092 67.6527 35.1049 60.1565 34.4699 53.0717C34.1634 49.6934 33.4496 52.1965 33.5547 53.1811C34.406 60.2667 34.406 67.4287 33.5547 74.5143C33.432 75.5033 35.1049 75.5121 35.1049 74.5143L35.7092 74.7638Z" fill="#7F4341"/>
<path d="M84.6005 93.6728L79.8313 78.2603C78.408 73.6654 76.0301 68.2391 71.2434 67.7578C71.5967 63.4547 71.9544 59.1545 72.3164 54.8572C66.0233 55.7937 50.8575 57.9204 44.5513 58.8438L43.7498 68.1385C43.0228 68.8299 42.0287 69.1406 41.0828 69.4776C34.2962 71.9314 28.64 76.7772 25.177 83.1046L2.84229 129.421C10.8784 132.27 19.4838 135.11 27.5462 137.958C27.9841 137.083 28.4221 136.208 28.86 135.359L30.0556 132.69C31.3694 129.377 32.0832 126.038 32.8759 122.69C32.9591 122.323 33.9707 122.428 33.9269 122.791C33.6204 125.373 33.7167 126.099 33.3094 127.701C33.1386 128.379 32.9591 129.053 32.762 129.727L68.5501 129.526C68.4581 128.843 68.3881 127.985 68.2392 126.563C68.0684 124.927 69.1764 125.08 69.4041 126.126C69.6099 127.084 69.6537 127.001 69.8858 127.955C70.9194 132.261 71.4274 134.274 73.5076 138.514L94.8657 132.865C92.6016 119.513 88.5944 106.569 84.6005 93.6728Z" fill="#E48929"/>
<path d="M0.748871 123.605L37.934 124.064L75.1191 124.502L96.1926 124.76C97.1911 124.76 97.1911 123.224 96.1926 123.211L59.0075 122.773L21.818 122.336L0.748871 122.078C-0.249624 122.078 -0.249624 123.614 0.748871 123.627V123.605Z" fill="#FAC7B7"/>
<path d="M0.748871 134.86L37.934 135.298L75.1191 135.757L96.1926 136.015C97.1911 136.015 97.1911 134.479 96.1926 134.466L59.0075 134.029L21.818 133.547L0.748871 133.289C-0.249624 133.289 -0.249624 134.825 0.748871 134.838V134.86Z" fill="#FAC7B7"/>
<path d="M3.35904 114.568C16.354 114.393 29.3461 114.478 42.3353 114.822C55.3244 115.167 68.3078 115.775 81.2853 116.647C88.5638 117.137 95.8364 117.708 103.103 118.358C104.097 118.45 104.089 116.901 103.103 116.813C90.1578 115.646 77.192 114.743 64.2058 114.105C51.2196 113.466 38.2275 113.088 25.2296 112.971C17.9306 112.907 10.6317 112.924 3.33279 113.024C2.3343 113.024 2.32992 114.586 3.33279 114.568H3.35904Z" fill="#FAC7B7"/>
<path d="M7.28297 105.865H96.1839C96.3895 105.865 96.5867 105.783 96.732 105.638C96.8774 105.492 96.959 105.295 96.959 105.09C96.959 104.885 96.8774 104.688 96.732 104.542C96.5867 104.397 96.3895 104.315 96.1839 104.315H7.28297C7.07739 104.315 6.88022 104.397 6.73485 104.542C6.58948 104.688 6.50781 104.885 6.50781 105.09C6.50781 105.295 6.58948 105.492 6.73485 105.638C6.88022 105.783 7.07739 105.865 7.28297 105.865Z" fill="#FAC7B7"/>
<path d="M12.5118 94.5611L71.6331 94.9112L88.3491 95.0074C89.3476 95.0074 89.3476 93.4671 88.3491 93.4627L29.2278 93.1126L12.5118 93.0164C11.5133 93.0164 11.5133 94.5567 12.5118 94.5611Z" fill="#FAC7B7"/>
<path d="M18.6123 76.9869H90.9636C91.1692 76.9869 91.3664 76.9053 91.5118 76.76C91.6571 76.6147 91.7388 76.4177 91.7388 76.2123C91.7388 76.0069 91.6571 75.8098 91.5118 75.6646C91.3664 75.5193 91.1692 75.4377 90.9636 75.4377H18.6123C18.4067 75.4377 18.2096 75.5193 18.0642 75.6646C17.9188 75.8098 17.8372 76.0069 17.8372 76.2123C17.8372 76.4177 17.9188 76.6147 18.0642 76.76C18.2096 76.9053 18.4067 76.9869 18.6123 76.9869Z" fill="#FAC7B7"/>
<path d="M18.6123 85.8484H90.9636C91.1692 85.8484 91.3664 85.7668 91.5118 85.6216C91.6571 85.4763 91.7388 85.2793 91.7388 85.0739C91.7388 84.8684 91.6571 84.6714 91.5118 84.5262C91.3664 84.3809 91.1692 84.2993 90.9636 84.2993H18.6123C18.4067 84.2993 18.2096 84.3809 18.0642 84.5262C17.9188 84.6714 17.8372 84.8684 17.8372 85.0739C17.8372 85.2793 17.9188 85.4763 18.0642 85.6216C18.2096 85.7668 18.4067 85.8484 18.6123 85.8484Z" fill="#FAC7B7"/>
<path d="M15.6343 140.112C17.5992 122.762 20.037 105.474 22.9478 88.2465C23.7623 83.4241 24.6149 78.6104 25.5053 73.8055C25.6849 72.8297 24.1915 72.414 24.012 73.3942C20.8326 90.6067 18.1233 107.891 15.884 125.246C15.2475 130.206 14.6475 135.165 14.084 140.125C13.9745 141.114 15.5248 141.105 15.6343 140.125V140.112Z" fill="#FAC7B7"/>
<path d="M26.1887 143.367L34.5795 85.9839L36.9444 69.7925C37.0845 68.8167 35.5912 68.3966 35.4466 69.3812L27.0645 126.76L24.7041 142.951C24.5595 143.927 26.0529 144.347 26.1974 143.363L26.1887 143.367Z" fill="#FAC7B7"/>
<path d="M36.2567 143.367L44.652 85.9839L47.0169 69.7925C47.1614 68.8167 45.668 68.3966 45.5235 69.3812L37.1414 126.76L34.7765 142.951C34.6363 143.927 36.1297 144.347 36.2699 143.363L36.2567 143.367Z" fill="#FAC7B7"/>
<path d="M53.3144 134.48C52.6969 117.592 54.0107 100.701 56.1041 83.9493C56.7026 79.1239 57.3639 74.3103 58.0879 69.5083C58.2281 68.5324 56.7347 68.1123 56.5902 69.0707C54.0939 86.0191 52.0619 103.077 51.6721 120.218C51.567 124.97 51.5889 129.727 51.7641 134.475C51.7991 135.469 53.3494 135.473 53.3144 134.475V134.48Z" fill="#FAC7B7"/>
<path d="M65.8963 135.788C65.3264 118.215 65.9013 100.624 67.6174 83.1265C68.102 78.1874 68.6859 73.2585 69.3691 68.3398C69.5049 67.3639 68.0116 66.9394 67.8758 67.9022C65.4721 85.453 64.2242 103.143 64.1402 120.857C64.1139 125.843 64.1825 130.825 64.346 135.805C64.3767 136.799 65.927 136.803 65.8963 135.805V135.788Z" fill="#FAC7B7"/>
<path d="M77.1512 134.549C76.5899 117.343 77.1649 100.118 78.8723 82.9864C79.3569 78.094 79.9409 73.2118 80.624 68.3398C80.7598 67.3639 79.2664 66.9394 79.1307 67.9022C76.7585 85.0746 75.5165 102.384 75.4126 119.719C75.3863 124.655 75.4549 129.591 75.6184 134.528C75.649 135.521 77.1994 135.525 77.1687 134.528L77.1512 134.549Z" fill="#FAC7B7"/>
<path d="M87.1318 141.424C86.3201 124.587 86.4458 107.717 87.5084 90.894C87.8004 86.1008 88.1784 81.3163 88.6427 76.5406C88.739 75.5472 87.1887 75.556 87.0924 76.5406C85.5002 93.3214 84.8394 110.178 85.1129 127.031C85.1917 131.828 85.3479 136.625 85.5815 141.424C85.6297 142.413 87.1756 142.422 87.1318 141.424Z" fill="#FAC7B7"/>
<path d="M34.6539 39.6941C33.1518 42.9586 35.3195 46.9627 38.442 48.7438C41.5645 50.5248 45.3308 50.6561 48.9218 50.7392L59.1258 50.9843C62.9139 51.0762 66.7546 51.1594 70.4376 50.2798C74.1207 49.4002 77.703 47.4353 79.7262 44.2321C81.3597 41.6371 81.8371 38.5082 82.2794 35.4799C83.094 29.8917 83.7465 23.6165 80.3087 19.1398C77.7118 15.7527 73.2185 14.2211 68.9486 14.3261C64.6788 14.4311 60.5709 15.9321 56.6864 17.6782C52.7784 19.4329 48.9894 21.4415 45.3439 23.6908L34.6539 39.6941Z" fill="#FFC9A0"/>
<path d="M38.2626 45.5492C35.7751 45.9431 33.0993 45.768 30.9359 44.4771C28.7725 43.1862 27.2791 40.5955 27.8003 38.1274C27.8908 37.5903 28.1341 37.0905 28.501 36.6877C29.263 35.935 30.4673 35.9306 31.5403 35.9744L41.2406 36.377" fill="#FFC9A0"/>
<path d="M72.4697 14.4574C74.0673 18.8887 76.7872 22.8305 80.3639 25.8983C83.9406 28.9661 88.252 31.0552 92.8775 31.9616C95.0672 26.4566 92.2556 19.9144 87.6223 16.2429C82.9889 12.5714 76.9016 11.2367 71.007 10.6021C68.3005 10.3104 65.5868 10.1441 62.8657 10.1033" fill="#32142A"/>
<path d="M34.3079 42.6479C33.3489 42.5903 32.4319 42.2351 31.6845 41.6319C30.9372 41.0287 30.3968 40.2075 30.1388 39.2828C30.0981 39.1468 30.0057 39.0321 29.8814 38.9634C29.7571 38.8946 29.6108 38.8773 29.4739 38.9151C29.337 38.9529 29.2204 39.0428 29.149 39.1655C29.0776 39.2882 29.0572 39.434 29.0921 39.5716C29.4125 40.7255 30.0891 41.749 31.0257 42.4963C31.9622 43.2435 33.1108 43.6764 34.3079 43.7332C35.0042 43.7595 35.0042 42.6742 34.3079 42.6479Z" fill="#B26D55"/>
<path d="M34.5445 40.1712C34.4798 40.19 34.414 40.2046 34.3474 40.215L34.492 40.1931C34.367 40.2106 34.2402 40.2106 34.1153 40.1931H34.2599C34.1799 40.1834 34.1008 40.1673 34.0234 40.145L33.9139 40.1056C33.835 40.0793 34.0234 40.1581 33.962 40.1275L33.9183 40.1056C33.8454 40.0714 33.7751 40.032 33.7081 39.9874L33.6555 39.948C33.603 39.9174 33.7518 40.0268 33.7037 39.9874L33.6073 39.9043C33.5504 39.8518 33.5022 39.7949 33.4497 39.738C33.3971 39.6811 33.5285 39.8474 33.4803 39.7774L33.4541 39.738C33.429 39.7035 33.407 39.6669 33.3884 39.6286C33.3884 39.5936 33.3533 39.5586 33.3358 39.5279C33.3183 39.4973 33.384 39.6592 33.3358 39.5761C33.334 39.5601 33.334 39.5439 33.3358 39.5279C33.3081 39.4485 33.289 39.3664 33.2789 39.2829V39.4273V39.401C33.2736 39.2581 33.2178 39.1216 33.1212 39.0159C33.0171 38.9171 32.8795 38.8608 32.7359 38.8584C32.6651 38.8584 32.595 38.8723 32.5297 38.8993C32.4643 38.9263 32.4049 38.966 32.3549 39.0159C32.3033 39.0657 32.2626 39.1256 32.2355 39.1919C32.2083 39.2582 32.1953 39.3294 32.1972 39.401C32.2264 39.7127 32.33 40.0129 32.4994 40.2762C32.6705 40.5289 32.8891 40.7459 33.1431 40.9152C33.3862 41.0775 33.6613 41.186 33.9498 41.2336C34.2383 41.2811 34.5336 41.2665 34.816 41.1909C34.8861 41.1731 34.9519 41.1415 35.0096 41.098C35.0673 41.0545 35.1157 41 35.152 40.9375C35.1883 40.8751 35.2118 40.806 35.2211 40.7344C35.2303 40.6628 35.2252 40.59 35.2059 40.5204C35.1867 40.4508 35.1537 40.3858 35.109 40.329C35.0643 40.2723 35.0086 40.2251 34.9454 40.1901C34.8822 40.1551 34.8126 40.1331 34.7408 40.1254C34.6689 40.1176 34.5962 40.1243 34.527 40.145L34.5445 40.1712Z" fill="#B26D55"/>
<path d="M17.9817 38.7927C28.6848 40.5781 42.3265 40.3287 52.4034 36.3071C62.4803 32.2855 71.2084 24.1373 74.3002 13.7442C74.5104 13.0396 74.6856 8.68108 74.3002 8.05531C73.9141 7.55189 73.3643 7.199 72.7456 7.05757C68.8304 5.70974 59.9841 5.01832 55.8587 4.94393C39.9442 4.65511 25.4572 17.6739 18.7349 32.0754L17.9817 38.7927Z" fill="#32142A"/>
<path d="M68.8917 30.6838C69.5959 30.8067 70.292 30.9718 70.9763 31.1783C71.3179 31.2833 71.6595 31.3971 71.9923 31.5196C72.1631 31.5809 72.3251 31.6509 72.4915 31.7122C72.6579 31.7734 72.6579 31.7822 72.4915 31.7122L72.6755 31.7953C73.3093 32.0763 73.9251 32.3964 74.5192 32.7537C74.8257 32.9331 75.1279 33.1256 75.4214 33.3313L75.8593 33.6376L76.0739 33.7995C75.9381 33.6901 75.9381 33.6945 76.0739 33.7995C76.3746 34.0717 76.7631 34.2269 77.1687 34.2371C77.5779 34.2385 77.9718 34.0817 78.2679 33.7995C78.7803 33.2394 78.9467 32.141 78.2679 31.6115C75.781 29.6213 72.8396 28.2772 69.7063 27.6993C69.31 27.5998 68.8905 27.6565 68.535 27.8577C68.1794 28.059 67.9151 28.3894 67.7969 28.7802C67.6261 29.5329 68.0289 30.5306 68.8829 30.6838H68.8917Z" fill="#32142A"/>
<path d="M59.4805 37.0641L61.6702 40.1273C62.2746 40.9719 62.8833 42.0878 62.2439 42.9105C61.9153 43.2619 61.4952 43.5149 61.0308 43.6413C59.5477 44.1549 57.9772 44.3691 56.4106 44.2714C55.9555 44.276 55.5086 44.1499 55.1231 43.9082C54.4005 43.3568 54.6457 42.3197 54.9523 41.5101L56.4982 37.436C56.4982 37.436 57.304 34.0183 59.4805 37.0641Z" fill="#C05929"/>
<path d="M21.4414 40.3594C21.1786 37.4493 23.3552 35.1082 25.8208 33.8741C28.9234 32.3866 32.3681 31.7565 35.7969 32.0493C43.6272 32.6707 47.7175 29.5374 52.2064 25.7565C54.803 23.6077 56.7789 20.8054 57.9302 17.6389C60.1198 11.2324 57.2076 16.8075 56.6996 17.6608C53.634 22.8377 48.7817 26.1329 43.2462 28.4916C40.3858 29.6832 37.3568 30.4215 34.2685 30.6796C31.0147 30.9947 26.9725 30.3733 24.0515 31.9924C21.3231 33.5065 20.6312 36.8061 20.6312 40.0969C20.6312 43.5714 21.6122 43.5714 21.4458 40.3725L21.4414 40.3594Z" fill="#7F4341"/>
<path d="M47.043 33.7384C55.5127 30.5746 63.1284 23.8836 66.7501 15.6085C67.7749 13.2673 67.3414 10.948 67.5034 7.3421C67.5472 6.35311 67.0655 6.90449 66.8772 7.90223C66.085 12.1276 64.4647 16.1549 62.1092 19.7522C59.7537 23.3496 56.7097 26.446 53.1522 28.8635C51.0875 30.1919 48.9029 31.3244 46.627 32.2462C40.3163 34.9725 42.2739 35.1782 47.0386 33.7384H47.043Z" fill="#7F4341"/>
<path d="M60.8206 5.48658C48.6022 4.3138 36.0991 9.17998 27.5375 17.9102C25.0938 20.4046 22.4881 22.9908 21.2881 26.2641C18.5335 33.7909 22.0895 27.8876 22.6282 27.0474C31.9343 12.4883 39.099 9.42067 50.7743 7.39893C54.0851 6.82567 59.4717 6.68125 62.8263 6.68125C65.5415 6.68125 61.7884 5.57848 60.8031 5.48658H60.8206Z" fill="#7F4341"/>
<path d="M38.442 21.7085C42.7819 14.8599 49.1364 12.6019 57.247 12.4356C58.2455 12.4356 57.501 11.6654 56.5025 11.6829C47.8357 11.858 39.4931 15.4113 34.1678 25.52C33.7035 26.3952 35.7268 25.4675 36.261 24.6448L38.442 21.7085Z" fill="#7F4341"/>
<path d="M21.6428 48.3282C24.9759 45.947 27.6515 42.7615 29.4205 39.0684C29.1271 39.191 28.8381 39.9436 28.5446 40.0443C37.0625 41.4753 45.8956 39.6461 53.7215 35.9921C61.0657 32.5613 67.2625 27.5375 71.5193 20.6759C73.8841 16.8512 75.8242 12.3308 75.8986 7.83655C75.9424 4.95273 75.4169 6.28305 75.1848 7.25453C73.3839 14.7625 69.5048 21.6125 63.9912 27.0212C58.1973 32.71 52.9376 36.4341 44.9584 37.8606C39.6595 38.6788 34.2687 38.7097 28.9607 37.9525C28.796 37.9091 28.6216 37.9202 28.4637 37.9841C28.3058 38.048 28.1729 38.1613 28.0848 38.307C26.4382 41.7641 25.1287 43.7508 21.7522 47.2735C21.0691 47.9868 17.0839 51.0544 21.6471 48.3457L21.6428 48.3282Z" fill="#7F4341"/>
<path d="M78.4868 43.3481C81.1144 43.8469 84.5741 43.5056 86.6806 41.8821C88.7871 40.2586 89.2688 37.1997 88.1258 34.8016C86.6587 31.7165 82.6604 31.0207 79.2576 30.7231" fill="#FFC9A0"/>
<path d="M82.875 34.0272C83.6607 34.3383 84.398 34.7597 85.0647 35.2787C85.4686 35.6145 85.7465 36.0774 85.853 36.5915C86.042 37.2358 86.0236 37.9231 85.8005 38.5564C85.5218 39.0762 85.05 39.466 84.4866 39.6416C83.6515 39.9228 82.7946 40.1351 81.9247 40.2762C81.2415 40.4162 81.5306 41.4621 82.2138 41.322C83.7465 41.0113 85.7435 40.7663 86.6326 39.2959C87.052 38.4801 87.1699 37.5426 86.9654 36.6484C86.8643 35.9529 86.5596 35.3027 86.0895 34.7798C85.3757 33.9965 84.3377 33.5239 83.3874 33.0951C83.2628 33.0265 83.1166 33.0082 82.979 33.0441C82.8413 33.0799 82.7226 33.167 82.6473 33.2876C82.6111 33.3487 82.5873 33.4164 82.5774 33.4868C82.5675 33.5571 82.5716 33.6287 82.5895 33.6975C82.6074 33.7662 82.6388 33.8308 82.6818 33.8873C82.7248 33.9439 82.7785 33.9914 82.84 34.0272H82.875Z" fill="#B26D55"/>
<path d="M67.8275 54.9186L50.021 57.4042C50.0732 54.5792 50.4763 51.7716 51.2209 49.0459C51.2655 48.7719 51.3958 48.5191 51.5932 48.3238C51.8803 48.145 52.2244 48.081 52.5567 48.1444C57.6816 48.4536 62.8251 48.1687 67.8844 47.2955C68.109 47.2324 68.3475 47.24 68.5675 47.3173C69.0055 47.5274 69.0055 48.1444 68.9048 48.6302L67.8099 54.9273" fill="#FFC9A0"/>
<path d="M82.2531 36.399C82.4414 36.4865 82.6297 36.574 82.8093 36.679C82.8833 36.7186 82.9549 36.7624 83.0238 36.8103L83.1071 36.8672C83.1553 36.8978 83.0589 36.8322 83.0589 36.8322C83.0738 36.8466 83.09 36.8598 83.1071 36.8716C83.1553 36.9153 83.199 36.9591 83.2428 37.0072C83.2866 37.0554 83.2428 37.0335 83.2691 37.0379C83.2954 37.0422 83.199 36.9372 83.2253 36.981C83.2516 37.0247 83.2603 37.0335 83.2735 37.0598L83.3129 37.1298C83.3523 37.1998 83.2691 37.0029 83.3129 37.1079L83.3655 37.2786C83.3655 37.3136 83.3655 37.3486 83.3655 37.3792C83.3655 37.4098 83.3655 37.5105 83.3655 37.4142C83.3655 37.3179 83.3655 37.4492 83.3655 37.4755C83.3655 37.5017 83.3655 37.5717 83.3655 37.6199C83.3655 37.668 83.3655 37.7162 83.3655 37.7555C83.3655 37.7949 83.3655 37.7074 83.3655 37.703C83.3633 37.7205 83.3633 37.7381 83.3655 37.7555L83.3392 37.8518V37.8999C83.3392 37.9743 83.3392 37.8649 83.3392 37.8562C83.3392 37.8474 83.2997 37.9306 83.2866 37.9481C83.2735 37.9656 83.2603 37.9831 83.2866 37.9875C83.3129 37.9918 83.3611 37.9 83.3261 37.935L83.2647 38.0006C83.2647 38.0006 83.1465 38.1056 83.2209 38.0444C83.2954 37.9831 83.2209 38.0444 83.1903 38.0662L83.1071 38.11L83.0238 38.1538C82.9144 38.2107 83.1246 38.1188 83.0019 38.1538C82.6528 38.2689 82.2957 38.3581 81.9334 38.4207C81.7955 38.4595 81.6785 38.5512 81.608 38.6758C81.5374 38.8004 81.5191 38.9478 81.5568 39.0859C81.5967 39.2232 81.6884 39.3396 81.8126 39.4107C81.9368 39.4817 82.0837 39.5018 82.2224 39.4666C82.9582 39.3134 83.8297 39.1734 84.2545 38.4732C84.4701 38.0601 84.5306 37.5836 84.4252 37.1298C84.3706 36.7878 84.2186 36.4687 83.9873 36.2108C83.646 35.881 83.2406 35.6248 82.7961 35.4581C82.6717 35.3885 82.5252 35.3696 82.3873 35.4055C82.2493 35.4414 82.1306 35.5292 82.056 35.6507C81.984 35.7744 81.9639 35.9216 81.9999 36.0601C82.036 36.1986 82.1254 36.3173 82.2487 36.3902L82.2531 36.399Z" fill="#B26D55"/>
<path d="M51.729 111.124C46.8657 105.899 43.2564 99.6364 41.1747 92.8106C40.6711 91.1521 40.2594 89.4148 40.5222 87.7037C40.7849 85.9927 41.8754 84.3079 43.5352 83.8047C45.195 83.3014 47.1044 84.1241 48.3043 85.4238C49.5043 86.7235 50.1831 88.4127 50.8312 90.0581L53.3669 96.504C53.9975 91.7997 54.6807 86.8767 57.3827 82.982C58.3987 81.4985 59.8658 80.1113 61.6614 80.0413C62.3057 80.0515 62.9416 80.1899 63.5319 80.4484C64.1221 80.7068 64.6549 81.0802 65.0992 81.5466C67.6348 84.0103 68.0246 88.0669 66.9779 91.4453C65.9313 94.8236 63.7022 97.6811 61.5125 100.456L53.0822 111.159" fill="white"/>
<path d="M70.2581 34.7797C69.0582 35.1517 68.1517 36.7139 68.1604 37.9392C68.1527 38.1685 68.2052 38.3959 68.3128 38.5986C68.4204 38.8013 68.5792 38.9723 68.7735 39.0945C70.0567 39.7859 71.6595 37.0859 72.0011 36.1888C72.404 35.1254 71.7472 34.5916 70.7224 34.6878C70.5651 34.7041 70.4097 34.7348 70.2581 34.7797Z" fill="#32142A"/>
<path d="M43.5003 59.8326C53.1699 57.5877 63.041 56.4981 72.8989 55.4566C73.5864 55.3866 73.5908 54.3013 72.8989 54.3757C62.9446 55.4172 52.9728 56.5156 43.2156 58.7824C42.5324 58.9399 42.8215 59.9858 43.5003 59.8283V59.8326Z" fill="#FAC7B7"/>
<path d="M42.9002 69.1932C52.3364 69.6229 61.7921 69.1657 71.1427 67.8278C71.8302 67.7272 71.5368 66.6813 70.8536 66.782C61.5978 68.0959 52.2386 68.5354 42.9002 68.0948C42.1995 68.0598 42.2039 69.145 42.9002 69.18V69.1932Z" fill="#FAC7B7"/>
<path d="M44.6914 68.0117C44.6914 65.2329 45.2739 62.4891 45.2826 59.6972C45.2826 59.5533 45.2254 59.4152 45.1236 59.3135C45.0217 59.2117 44.8836 59.1545 44.7396 59.1545C44.5956 59.1545 44.4575 59.2117 44.3556 59.3135C44.2538 59.4152 44.1965 59.5533 44.1965 59.6972C44.1965 62.476 43.6185 65.2197 43.6053 68.0117C43.6053 68.1556 43.6625 68.2936 43.7644 68.3954C43.8662 68.4971 44.0044 68.5543 44.1484 68.5543C44.2924 68.5543 44.4305 68.4971 44.5324 68.3954C44.6342 68.2936 44.6914 68.1556 44.6914 68.0117Z" fill="#FAC7B7"/>
<path d="M50.6999 67.1758V59.8897C50.6878 59.7548 50.6255 59.6293 50.5254 59.5378C50.4253 59.4464 50.2946 59.3958 50.159 59.3958C50.0234 59.3958 49.8927 59.4464 49.7927 59.5378C49.6926 59.6293 49.6303 59.7548 49.6182 59.8897V67.1758C49.6303 67.3107 49.6926 67.4363 49.7927 67.5277C49.8927 67.6191 50.0234 67.6698 50.159 67.6698C50.2946 67.6698 50.4253 67.6191 50.5254 67.5277C50.6255 67.4363 50.6878 67.3107 50.6999 67.1758Z" fill="#FAC7B7"/>
<path d="M47.7394 66.5939V59.2946C47.7394 59.1507 47.6822 59.0127 47.5803 58.9109C47.4785 58.8091 47.3404 58.752 47.1964 58.752C47.0524 58.752 46.9143 58.8091 46.8124 58.9109C46.7106 59.0127 46.6533 59.1507 46.6533 59.2946V66.5939C46.6533 66.7378 46.7106 66.8758 46.8124 66.9776C46.9143 67.0793 47.0524 67.1365 47.1964 67.1365C47.3404 67.1365 47.4785 67.0793 47.5803 66.9776C47.6822 66.8758 47.7394 66.7378 47.7394 66.5939Z" fill="#FAC7B7"/>
<path d="M53.6647 65.9944V58.7169C53.6647 58.573 53.6075 58.435 53.5057 58.3333C53.4038 58.2315 53.2657 58.1743 53.1217 58.1743C52.9776 58.1743 52.8395 58.2315 52.7377 58.3333C52.6358 58.435 52.5786 58.573 52.5786 58.7169V66.0075C52.5786 66.1514 52.6358 66.2894 52.7377 66.3912C52.8395 66.4929 52.9776 66.5501 53.1217 66.5501C53.2657 66.5501 53.4038 66.4929 53.5057 66.3912C53.6075 66.2894 53.6647 66.1514 53.6647 66.0075V65.9944Z" fill="#FAC7B7"/>
<path d="M59.5856 64.2176V56.9271C59.5734 56.7921 59.5112 56.6666 59.4111 56.5752C59.311 56.4838 59.1803 56.4331 59.0448 56.4331C58.9092 56.4331 58.7785 56.4838 58.6784 56.5752C58.5783 56.6666 58.5161 56.7921 58.5039 56.9271V64.2176C58.5161 64.3525 58.5783 64.478 58.6784 64.5694C58.7785 64.6608 58.9092 64.7115 59.0448 64.7115C59.1803 64.7115 59.311 64.6608 59.4111 64.5694C59.5112 64.478 59.5734 64.3525 59.5856 64.2176Z" fill="#FAC7B7"/>
<path d="M66.1108 63.6267V56.3362C66.0986 56.2013 66.0364 56.0758 65.9363 55.9844C65.8362 55.893 65.7055 55.8423 65.5699 55.8423C65.4343 55.8423 65.3036 55.893 65.2035 55.9844C65.1035 56.0758 65.0412 56.2013 65.0291 56.3362V63.6267C65.0412 63.7616 65.1035 63.8872 65.2035 63.9786C65.3036 64.07 65.4343 64.1207 65.5699 64.1207C65.7055 64.1207 65.8362 64.07 65.9363 63.9786C66.0364 63.8872 66.0986 63.7616 66.1108 63.6267Z" fill="#FAC7B7"/>
<path d="M56.3274 68.2172V57.4871C56.3152 57.3522 56.253 57.2267 56.1529 57.1353C56.0528 57.0439 55.9221 56.9932 55.7865 56.9932C55.6509 56.9932 55.5202 57.0439 55.4202 57.1353C55.3201 57.2267 55.2578 57.3522 55.2456 57.4871V68.2172C55.2578 68.3522 55.3201 68.4777 55.4202 68.5691C55.5202 68.6605 55.6509 68.7112 55.7865 68.7112C55.9221 68.7112 56.0528 68.6605 56.1529 68.5691C56.253 68.4777 56.3152 68.3522 56.3274 68.2172Z" fill="#FAC7B7"/>
<path d="M62.4892 66.4143C62.6235 63.0156 62.6483 59.6125 62.5636 56.205C62.5636 56.0611 62.5064 55.9231 62.4046 55.8213C62.3027 55.7195 62.1646 55.6624 62.0206 55.6624C61.8766 55.6624 61.7384 55.7195 61.6366 55.8213C61.5347 55.9231 61.4775 56.0611 61.4775 56.205C61.5651 59.6096 61.5403 63.0127 61.4031 66.4143C61.3768 67.1101 62.4629 67.1101 62.4892 66.4143Z" fill="#FAC7B7"/>
<path d="M69.5705 65.9591V55.5485C69.5705 55.4046 69.5133 55.2666 69.4114 55.1648C69.3096 55.063 69.1715 55.0059 69.0274 55.0059C68.8834 55.0059 68.7453 55.063 68.6434 55.1648C68.5416 55.2666 68.4844 55.4046 68.4844 55.5485V65.9591C68.4844 66.103 68.5416 66.2411 68.6434 66.3428C68.7453 66.4446 68.8834 66.5018 69.0274 66.5018C69.1715 66.5018 69.3096 66.4446 69.4114 66.3428C69.5133 66.2411 69.5705 66.103 69.5705 65.9591Z" fill="#FAC7B7"/>
<path d="M71.5456 66.7602V56.3495C71.5456 56.2056 71.4883 56.0676 71.3865 55.9658C71.2846 55.8641 71.1466 55.8069 71.0025 55.8069C70.8585 55.8069 70.7204 55.8641 70.6185 55.9658C70.5167 56.0676 70.4595 56.2056 70.4595 56.3495V66.7602C70.4595 66.9041 70.5167 67.0421 70.6185 67.1439C70.7204 67.2456 70.8585 67.3028 71.0025 67.3028C71.1466 67.3028 71.2846 67.2456 71.3865 67.1439C71.4883 67.0421 71.5456 66.9041 71.5456 66.7602Z" fill="#FAC7B7"/>
<path d="M68.572 50.6431C68.572 50.6431 56.2266 51.4701 50.8093 50.7875L67.8275 54.9185L68.572 50.6431Z" fill="#EFB086"/>
</svg>
